<?xml version="1.0" encoding="utf-8"?>
<!-- Generator: Adobe Illustrator 28.0.0, SVG Export Plug-In . SVG Version: 6.00 Build 0)  -->
<svg version="1.1" id="_레이어_1" xmlns="http://www.w3.org/2000/svg" xmlns:xlink="http://www.w3.org/1999/xlink" x="0px"
	 y="0px" viewBox="0 0 80 80" style="enable-background:new 0 0 80 80;" xml:space="preserve">
<style type="text/css">
	.st0{fill:none;}
	.st1{fill:#4E55A0;}
	.st2{fill:#3981C3;}
	.st3{fill:#1387C9;}
	.st4{fill:#FFFFFF;}
	.st5{fill:#AEC90A;}
</style>
<rect class="st0" width="80" height="80"/>
<g>
	<path class="st1" d="M58,56.6c0,0-0.3,4.7-5.4,5.8c0,0-3.5-3.3-4.9-1.6c-1.3,1.7,0.6,4.6,0.6,4.6s1.3,1.4,3.6,1.6
		c2.3,0.2,6.9-2.5,7.8-9.5L58,56.6z"/>
	<path class="st2" d="M53.6,35C53.6,35,53.6,35,53.6,35C53.6,35,53.6,34.9,53.6,35C53.6,35,53.6,35,53.6,35
		C53.5,35.1,53.5,35.1,53.6,35c-0.1,0-0.1,0.1-0.1,0.1C53.5,35.1,53.5,35.1,53.6,35"/>
	<polygon class="st2" points="53.9,34.7 53.9,34.7 53.9,34.7 	"/>
	<path class="st2" d="M52.8,35.8L52.8,35.8C52.8,35.8,52.8,35.8,52.8,35.8"/>
	<path class="st2" d="M52.8,37.7L52.8,37.7C52.8,37.7,52.7,37.6,52.8,37.7"/>
	<polygon class="st2" points="54,34.7 53.9,34.7 53.9,34.7 	"/>
	<polygon class="st2" points="55.3,37.7 55.3,37.7 55.3,37.7 	"/>
	<path class="st2" d="M55.4,34.4L55.4,34.4C55.4,34.4,55.4,34.4,55.4,34.4"/>
	<polygon class="st2" points="55.1,34.4 55.1,34.4 55.1,34.4 	"/>
	<polygon class="st2" points="53.7,34.9 53.7,34.9 53.7,34.8 	"/>
	<path class="st2" d="M53.6,34.9L53.6,34.9C53.6,34.9,53.6,34.9,53.6,34.9"/>
	<path class="st2" d="M54.2,34.6c0,0-0.1,0-0.1,0l0,0C54.1,34.6,54.2,34.6,54.2,34.6"/>
	<path class="st3" d="M42.1,62.1C42.1,62.1,42.1,62.1,42.1,62.1C42.1,62.1,42.1,62.1,42.1,62.1"/>
	<path class="st3" d="M14.6,50.6c0,0,0,0.1,0.1,0.1c0-0.1,0-0.2,0-0.2C14.7,50.5,14.7,50.5,14.6,50.6z"/>
	<g>
		<path class="st3" d="M38.8,41.2c0.3,0.2,0.6,0.4,1.2,0.4c0.6,0.2,1.2,0.5,1.9,0.6c0.2,0.5,0.3,1.3,0.5,1.7
			c0.2,0.5,0.2,0.7,0.5,1.1c0.7,0,0.7-2.3,1.4-2.7c0.1-0.1,0.8,0,1,0c0.3,0,0.6,0,0.9,0c0.6-0.1,1-0.2,1.5-0.5
			c-0.1-0.4-0.5-0.9-0.8-1.1c-0.4-0.2-0.7-0.6-1-0.9c-0.1-0.1-0.2-0.2-0.2-0.3c0.1-0.2,0.2-0.4,0.3-0.7c0.6-0.6,0.7-1,1.1-1.7
			c0.4-0.7,0.1-1.1-0.7-0.9c-0.4,0.1-0.4,0-0.8,0.2c-0.1,0-0.3,0-0.5,0.1c-0.5,0.1-1,0.4-1.4,0.7c0,0-0.1,0-0.1,0
			c-0.3-0.1-0.5-0.3-0.7-0.5c-0.4-0.4-1-1.5-1.7-1.4c-0.6,0.1-0.4,1-0.2,1.5c0,0.1,0.1,0.3,0.2,0.4c-0.1,0.4-0.1,0.8,0.1,1.3
			c-0.3,0.2-0.5,0.3-0.8,0.4c-0.3,0-0.6,0.3-0.8,0.3c-0.5,0.1-0.5,0.2-0.9,0.5c-0.2,0.1-0.6,0.4-0.6,0.6
			C38.1,40.9,38.3,41.1,38.8,41.2z"/>
		<path class="st3" d="M53.8,60.6c-1.5-3.6-5.7-2.4-5.6-0.4c0.1,1,0.9,1.3,1.8,1.1c1-0.1-0.4,0.6-0.1,1.5c0.2,0.7,0.6,0.8,1.5,0.6
			c1.1-0.2-0.4,1.3,0.7,1.8C53.3,65.7,54.8,63,53.8,60.6z"/>
		<path class="st3" d="M49,63.6c1.1,0.5,0.7-2-1.1-2.5c-0.6-0.2-1.5,0.3-1.7,1.5c0,0.2,0,0.3,0,0.5c-1.8,1.1-3.7,0.8-4.8,0.4
			c0-0.1,0.1-0.1,0.1-0.2c-0.3-0.2,0.2-0.8,0.2-1.3c0.2,0,0,0.3,0.1,0.5c0.1-0.3,0.2,0.1,0.3-0.4c0,0,0,0,0,0.1c0-0.1-0.2,0,0-0.3
			l0.1,0l-0.1-0.3c0.4-0.7,0.5-1.4,0.9-2l0.4,0c0-0.2,0-0.4,0-0.6c0,0,0,0,0,0c0,0,0,0,0,0c0-0.2,0-0.4,0-0.5l0.1,0.2
			c-0.1-0.7,0.2,0.1,0.2-0.5c-0.2-0.6,0.3-1,0.2-1.3c-0.1-0.6-0.1,0.3-0.3-0.1c-0.1-0.3,0.1-0.2,0.1-0.4l-0.2-0.1
			c-0.1-0.4,0.2-0.1,0.1-0.3c0.1-0.3,0.1,0.1,0.3,0.1c-0.1-0.1-0.2-0.4-0.1-0.6c0.1,0,0.1,0.4,0.1,0.1c-0.3-0.9-0.1-1.2-0.4-2.1
			l0.1,0c-0.1-0.1-0.1-0.2-0.1-0.3l0.1,0c0-0.1-0.4-0.9-0.6-1.5l0.2,0.2l-0.3-0.4l0.2,0c-0.2-0.1-0.4-0.7-0.6-1.2l0.1,0l-0.2-0.2
			l0.1,0.1c-0.1-0.3-0.5-0.5-0.6-0.9c0.1,0.2,0.3,0.2,0.3,0.1c-0.2-0.2-0.4-0.5-0.6-0.7c0.1-0.1-0.1-0.4,0.1-0.3l-0.3-0.2l0.1,0
			c-0.6-1.3-1.9-1.9-2.7-3.2l0,0c-0.3-0.1-0.5-0.3-0.8-0.4c-0.1-0.1,0-0.3-0.2-0.5c0,0.2-0.4-0.3-0.7-0.2c-0.1-0.2,0.1-0.1,0.2-0.1
			c-0.6-0.6-1.4-0.7-2.2-1.1c0.8,0.6,0.8,0.5,1.3,0.9c-0.7-0.3-0.7-0.5-1.5-0.7l0.4,0.1c-0.3-0.4-1.2-0.3-1.3-0.6
			c-0.5-0.1-0.9,0.1-1.5,0l0.3-0.2l-0.5-0.1l0,0.2c-0.2,0-0.2-0.1-0.3-0.1c-0.4,0.1-0.8,0-1.3,0.1l0-0.1c0,0-0.1,0-0.1,0.1
			c-0.1-0.2-0.5-0.1-0.5-0.3c0.2,0,0.5-0.1,0.5,0c0.4-0.1-0.5-0.1-0.7-0.1c0.3,0.1-0.1,0.1-0.2,0.1c0,0,0,0,0.1-0.1
			c-0.5-0.1-0.6,0.3-1,0.1l-0.1,0.2l-0.4-0.1c0,0.3-0.5,0.1-0.6,0.4c-0.4,0,0-0.2-0.1-0.1c-0.4,0-1.1,0.3-1.2,0.2
			c-0.3,0.2-0.7,0.2-1,0.3l-0.1-0.1c-0.1,0.1-0.3,0.2-0.4,0.2c0,0,0,0,0-0.1c-0.5,0.2-1,0.3-1.4,0.5c0-0.1,0-0.2,0.2-0.3
			c-0.5,0.1-1.1,0.5-1.7,0.8l0-0.1l-0.3,0.3c0-0.1,0-0.1,0-0.1c-0.6,0.2-1.3,0.7-1.4,1c0-0.1-0.3,0-0.1-0.2
			c-0.5,0.5-1.2,0.9-1.7,1.5l0,0l-0.2,0.2l0,0l0.1-0.2c-0.2,0.2-0.4,0.4-0.5,0.6c-0.1,0-0.2,0-0.4,0c0.1,0.1-0.7,0.5-0.8,0.9
			c-0.1,0,0.1-0.1,0-0.1c-0.6,0.7-1.2,1.7-1.8,2.5c0,0,0,0.1,0,0.1c-0.7-0.7-1.4-1.6-1.6-2.3c-0.4-1-0.7-2.4-0.6-3.4
			c0.1-1.2,0.6-2.3,1.3-2.9c1.3-1.1,2.2-1,3.3-1c1.1,0,1.3-1.1,0.7-1.6c-0.4-0.4-1.1-0.5-2.3-0.2C15,39.2,13.8,39,15,37.8
			c1.4-1.3,1.5-1.1,2.2-1.8c1.1-1,0.3-3.1-2.4-1.2c-0.8,0.6-1.7,1.4-2,1.2c-0.6-0.3,1.5-3.2,0.8-3.9c-1.6-1.6-2.7,1.4-3,2.5
			c-0.5,1.8-1,1.1-0.8,0c0.3-2-1.7-1.5-1.9,0c-0.2,1.4,0,2.1,0,2.5c0,0.1-0.7,1.7-0.6,3.4c0.1,1.4,0.4,1.8,0.5,2.9
			c0.1,1,0.8,3.9,2,5.8c1.2,1.9,2.6,3.3,3.6,4.1c-0.1,0.2-0.2,0.3-0.3,0.5c0.1,0,0.1,0.1,0.2,0.1c-0.1,0.5-0.2,1-0.3,1.4
			c0,0.1,0.1,0,0.1-0.1c0,0.4,0.2,0.9,0.1,1.3L13,56.5c-0.1,0.7,0.2,0.7,0.4,1.4c-0.1-0.2-0.1-0.5,0-0.5c0.1,0.1,0.2,0.5,0.1,0.6
			l0.1,0c0.1,0.2,0.1,0.4,0.2,0.6c0,0,0,0,0,0l0,0c0,0.1,0.1,0.2,0.1,0.3c0.1,0.2,0.1,0.5,0.2,0.7c0,0,0,0.1,0,0.1c0,0,0,0,0,0
			c0,0,0,0.1,0,0.1c0,0.1,0,0.1,0,0.2c0,0,0,0.1,0,0.1c0,0,0,0,0,0c0,0,0,0,0,0c0,0,0,0,0,0c0,0.1,0,0.1,0,0.2c0,0,0,0.1,0,0.1
			c0,0,0,0,0,0l-0.1-0.2c0.2,0.6-0.2,0-0.1,0.4c0.2,0.4,0,0.9,0,1.1c0.3,0.5,0.1-0.3,0.3,0c0.1,0.2,0,0.2,0,0.4l0.2,0
			c0.2,0.3-0.2,0.1,0,0.2c0,0.3-0.1,0-0.3,0c0.1,0,0.3,0.3,0.3,0.4c-0.1,0-0.2-0.3-0.1-0.1c0.5,0.7,0.4,1,0.9,1.5l-0.1,0
			c0.1,0.1,0.1,0.1,0.2,0.2l-0.1,0c0.1,0.1,0.7,0.6,1,1l-0.3-0.1c0.1,0.1,0.3,0.1,0.4,0.2l-0.2,0.1c0.1,0,0.1,0,0.2,0.1
			c-1.3,1-1.9,3-4,1.5c-0.9-0.6-1.8-1.4-3-1.3c-0.7,0-2,0.5-2.2,1.2c-0.2,0.7,0.7,1.3,1.2,1.6c1,0.6,1.4,1.6,2.1,2.4
			c0.5,0.6,1.2,1.1,1.8,1.6c0.4,0.3,0.7,0.9,1.1,1.2c1.3,0.9,2.7-0.6,3.3-1.6c0.9-1.4,2-2.6,2.9-4c0.6,0.2,1.3,0.4,1.9,0.9l0,0
			c0.2,0,0.5,0.1,0.7,0.1c0.1,0.1,0.1,0.2,0.3,0.4c0-0.2,0.4,0.1,0.6,0c0.1,0.1,0,0.1-0.1,0.2c0.6,0.4,1.2,0.2,1.9,0.5
			c-0.7-0.4-0.7-0.3-1.1-0.6c0.6,0.1,0.6,0.3,1.3,0.3l-0.3,0c0.3,0.3,1,0.1,1,0.4c0.4,0,0.7-0.2,1.2-0.1l-0.2,0.2l0.4,0l0-0.2
			c0.1,0,0.2,0,0.2,0.1c0.3-0.2,0.7-0.1,1.1-0.2l0,0.1c0,0,0.1,0,0.1-0.1c0.1,0.1,0.4,0.1,0.4,0.2c-0.1,0-0.4,0.1-0.4,0
			c-0.3,0.2,0.4,0.1,0.6,0.1c-0.2-0.1,0.1-0.1,0.2-0.1c0,0,0,0,0,0.1c0.4,0.1,0.5-0.4,0.8-0.1l0.1-0.2l0.3,0.1
			c0-0.3,0.4-0.1,0.4-0.4c0.3-0.1,0,0.2,0.1,0.1c0.3,0,0.9-0.4,1-0.3c0.2-0.1,0.3-0.2,0.5-0.2c0.3,1.2,0.7,2.4,1.3,3.5
			c0.3,0.1,0.4,0.4,0.5,0.8c0.7,0.3,0.7,1.9,1.2,2.5c0.5,0.6,1.3,1.1,2.1,1.2c0.9,0,1-0.6,1.4-1.2c1-1.3,2.5-2.2,3.4-3.6
			c0.5-0.7,1.8-2.8,0.1-2.9c-1.5,0-2.8,1.4-4.4,0.8c-1-0.4-1.2-1.7-1.8-2.6c0.3-0.2,0.5-0.4,0.6-0.7c0,0.1,0.3,0,0.1,0.2
			c0.3-0.5,0.9-0.8,1.3-1.3l0,0l0.1-0.2l0,0l-0.1,0.2c0.2-0.2,0.3-0.4,0.4-0.5c0.1,0,0.2,0,0.3,0c-0.1-0.1,0.6-0.4,0.6-0.8
			c0.1,0-0.1,0.1,0.1,0.1c0,0,0,0,0-0.1c5.7,2.5,9.4,0.7,9.4,0.7s-1.4-1-2-2.6C47.8,63.4,48.3,63.3,49,63.6z M43.2,57
			c0-0.1,0-0.2,0-0.2c0,0,0,0,0.1,0L43.2,57C43.3,57,43.3,57,43.2,57z M43.3,53.2C43.2,53,43,53.1,43,52.7
			C43.1,53,43.3,52.9,43.3,53.2z M42.8,52.4c0.1,0.1,0.1,0.3,0.1,0.4c0,0-0.1-0.1-0.1-0.1C42.8,52.6,42.8,52.6,42.8,52.4
			C42.8,52.5,42.8,52.4,42.8,52.4z M42.5,59.5l0.1,0c0,0,0,0.1,0,0.1l0.1-0.1c0,0.2,0.1,0.4-0.1,0.6c-0.1,0,0-0.2-0.1-0.3
			c-0.1,0,0.1,0.4-0.1,0.5C42.4,60.1,42.4,59.8,42.5,59.5z M42.3,61L42.1,61l0.1-0.2L42.3,61z M41.6,61.6c0,0,0-0.1,0.1-0.1
			c0,0,0,0.1,0,0.1c0.1-0.1,0.1-0.3,0.1-0.4c0-0.1,0.1-0.2,0.1-0.3c0,0,0-0.1,0.1-0.1c0.1-0.1,0.1-0.3,0.2-0.4c0,0,0,0,0,0
			c0,0,0,0,0,0c-0.1,0.6-0.3,1.1-0.6,1.6C41.6,61.8,41.6,61.8,41.6,61.6C41.6,61.7,41.6,61.7,41.6,61.6z M22.2,44
			c0,0.1-0.3,0.2-0.4,0.2L22.2,44z M22,44.3c0.1,0,0.1-0.1,0.2-0.1c-0.2,0.2-0.5,0.4-0.5,0.5C21.6,44.5,21.9,44.3,22,44.3z
			 M20.3,45.2c0.1,0-0.4,0.2-0.6,0.3C19.8,45.4,20.2,45.1,20.3,45.2z M19.6,45.3l-0.1,0.1c0.1,0,0.3,0-0.1,0.1l0.1-0.1
			C19.5,45.4,19.5,45.4,19.6,45.3z M17.8,47.6c0.1-0.1,0.2-0.2,0.3-0.3C18,47.5,17.9,47.6,17.8,47.6C17.8,47.7,17.8,47.6,17.8,47.6z
			 M16.4,49.2c0,0,0,0.1,0,0.1c-0.2,0.2-0.3,0.4-0.5,0.6C16,49.6,16.1,49.2,16.4,49.2z M15.3,50.6l-0.2,0.2L15.3,50.6L15.3,50.6z
			 M15,50.2c0,0.1,0.1-0.1,0.2-0.2c-0.1,0.1-0.1,0.2-0.2,0.3C14.9,50.3,15,50.2,15,50.2z M13.2,55.2c0-0.2-0.1-0.4,0-0.7
			c0.1,0,0.1,0.3,0.1,0.4c0.1-0.1-0.2-0.4,0-0.6c0.1,0.2,0.1,0.8,0.1,1.1c0,0,0,0,0,0c0,0.1,0,0.1,0,0.2c-0.1-0.1-0.1-0.2-0.2-0.5
			L13.2,55.2z M13.4,56.6c0,0.1,0,0.3,0,0.4c-0.2-0.2-0.1-0.7-0.1-0.9c0.1,0,0.1,0,0.1,0.1c0,0.3,0,0.6,0.1,0.9
			C13.4,57,13.4,56.8,13.4,56.6z M13.5,57.3C13.5,57.3,13.5,57.3,13.5,57.3c0.1,0.1,0.1,0.2,0.1,0.2C13.5,57.5,13.5,57.4,13.5,57.3z
			 M14.8,61.9L14.8,61.9c-0.1-0.2-0.1-0.2,0-0.2C14.8,61.8,14.8,61.8,14.8,61.9C14.9,61.9,14.9,61.9,14.8,61.9
			C14.9,62,14.8,62,14.8,61.9z M15.7,64.9c0.1,0.1,0.3-0.1,0.4,0.2C16,64.9,15.8,65.1,15.7,64.9z M16.2,65c0.1,0.1,0.1,0.1,0.2,0.3
			C16.3,65.2,16.2,65.1,16.2,65z M16.3,49c-0.2,0.1,0-0.3,0.1-0.5c0.2,0.4,0.3-0.4,0.6-0.5c0,0.1-0.2,0.2-0.1,0.3
			c0.1,0,0.2-0.2,0.3-0.3c0,0,0,0.1,0.1,0.1c0,0,0.1,0,0.1,0c0,0-0.1,0-0.1,0C17,48.3,16.5,48.8,16.3,49z M20.5,68.2l-0.2-0.1
			L20.5,68.2c0-0.1-0.1-0.2-0.2-0.2c0,0,0,0,0-0.1c0.1,0,0.2,0.1,0.2,0.1C20.5,68.1,20.5,68.1,20.5,68.2L20.5,68.2z M20.7,45.4
			C20.7,45.4,20.7,45.4,20.7,45.4c0,0-0.1,0,0-0.2C20.8,45.3,20.7,45.4,20.7,45.4z M21.4,68.9c0.1-0.1,0.3,0.1,0.3-0.1l-0.1-0.1
			c0.1,0.1,0.2-0.2,0.4,0.1l-0.1-0.1c0.2,0.1-0.3,0.1-0.1,0.2C21.8,69,21.5,69,21.4,68.9z M21.8,69.2c0.2-0.1,0.2,0.1,0.4,0.1
			C22.1,69.3,21.9,69.4,21.8,69.2z M22.4,44.5l-0.1-0.1c0.1,0,0.1,0.1,0.4-0.1c-0.1-0.1-0.1-0.3,0.3-0.4
			C22.7,44.2,22.7,44.2,22.4,44.5z M22.9,69.2l-0.2-0.1l0.5,0L22.9,69.2z M22.7,43.8l0.5-0.1C23,44,22.9,43.8,22.7,43.8z M23.9,69.2
			L23.9,69.2C24,69.1,24,69.2,23.9,69.2C24,69.2,24,69.2,23.9,69.2z M24.5,43.2c0.3-0.2,0.2,0.2,0.3,0c-0.1,0.2-0.5,0.3-0.8,0.4
			C23.9,43.5,24.2,43.2,24.5,43.2z M24.7,69.7L24.7,69.7c0-0.2-0.4,0-0.5,0c0.2,0,0.5-0.2,0.7,0L24.7,69.7L24.7,69.7z M25.9,43
			l0.2-0.1l0.1,0L25.9,43z M28,69.9C28,69.9,28,69.9,28,69.9L28,69.9L28,69.9z M26.5,70.6c-0.1,0,0.1-0.1,0.1-0.2
			c-0.1,0-0.1,0-0.2,0c0.1-0.2,0.2,0.1,0.5,0C26.9,70.6,26.6,70.5,26.5,70.6z M27.1,69.9c0-0.1,0-0.1,0-0.1c0,0,0.1,0,0.1,0
			c0,0,0,0,0,0C27.2,69.8,27.1,69.8,27.1,69.9z M27.3,70.7c0-0.1,0.1,0,0.2,0L27.3,70.7z M26.9,43.3c0.2,0,0.3-0.1,0.4-0.1
			L26.9,43.3c0.2-0.4,0.5,0,0.8-0.1c0,0,0,0,0,0C27.4,43.3,27.1,43.3,26.9,43.3z M28,70c0,0.1,0,0.1-0.2,0.1c0.1,0,0.1-0.2,0.4-0.1
			C28.2,70,28.1,69.9,28,70z M29.1,70c0-0.1,0-0.1,0-0.1c0.1,0,0.1,0,0.2,0c0,0,0.1,0,0.1,0C29.3,69.9,29.2,70,29.1,70z M29.6,43.2
			c0.1,0,0.2-0.1,0.3-0.1c0,0.1,0,0.1,0,0.2C29.9,43.2,29.8,43.2,29.6,43.2z M37.4,45L37.4,45C37.4,45,37.4,45,37.4,45L37.4,45z
			 M35.3,43.8l0.1-0.1C35.2,44,35.8,43.9,36,44c-0.2-0.1-0.6,0.1-0.9-0.2L35.3,43.8L35.3,43.8z M33.1,42.6c0.1,0-0.1,0.1-0.1,0.2
			c0.1,0,0.1,0,0.2,0c-0.1,0.2-0.3-0.1-0.6,0C32.6,42.7,33,42.7,33.1,42.6z M32.4,43.3c0,0.1,0,0.1,0,0.1c-0.1,0-0.1,0-0.2,0
			C32.3,43.4,32.4,43.4,32.4,43.3z M31.3,43.2c0-0.1,0-0.1,0.2-0.1c-0.2,0-0.2,0.2-0.5,0.1C31.1,43.1,31.2,43.2,31.3,43.2z
			 M31.4,43.3L31.4,43.3c-0.1,0-0.1,0-0.1,0L31.4,43.3z M31.6,69.7c-0.1,0.3-0.4,0-0.6,0.1c0,0,0,0,0,0c0,0,0.1,0,0.1,0
			c0.1,0,0.2,0,0.2,0C31.4,69.7,31.5,69.7,31.6,69.7C31.6,69.6,31.6,69.6,31.6,69.7c-0.1,0-0.2,0-0.3,0L31.6,69.7z M32.2,42.5
			c0,0.1-0.1,0-0.2,0L32.2,42.5z M32.3,70.1L32.3,70.1l0.1-0.1L32.3,70.1z M36.6,67.8c-0.1,0,0-0.1,0-0.2c0,0,0,0,0,0
			C36.6,67.7,36.7,67.6,36.6,67.8z M37,67.9c-0.1,0,0.3-0.2,0.4-0.3C37.4,67.7,37,67.9,37,67.9z M37.5,67.8l0.1-0.1
			c-0.1,0-0.2,0,0.1-0.1l-0.1,0.1C37.6,67.7,37.6,67.7,37.5,67.8z M38.1,45.2c0.1,0,0.4,0,0.4,0.3C38.3,45.5,38.4,45.3,38.1,45.2z
			 M38.9,65.8c0,0.1-0.2,0.2-0.3,0.2c0.1-0.1,0.1-0.1,0.2-0.2C38.8,65.8,38.9,65.7,38.9,65.8C38.9,65.7,38.9,65.7,38.9,65.8
			C38.9,65.7,38.9,65.7,38.9,65.8z M38.7,45.9C38.7,45.9,38.7,45.9,38.7,45.9c-0.1-0.1-0.1-0.1-0.1-0.2c-0.1-0.1,0.3,0.1,0.4,0.3
			C38.9,46,38.8,46,38.7,45.9z M41,63.1l-0.1,0.1l-0.1,0L41,63.1z M40.5,47.3l0.2,0.2l0,0L40.5,47.3L40.5,47.3z M39.3,65.3
			c0,0,0.1-0.1,0.1-0.1l0,0c0,0,0,0,0,0C39.4,65.3,39.4,65.3,39.3,65.3C39.4,65.3,39.4,65.3,39.3,65.3z M39.5,65.4
			C39.5,65.4,39.6,65.3,39.5,65.4C39.6,65.3,39.6,65.3,39.5,65.4C39.6,65.4,39.6,65.4,39.5,65.4z"/>
	</g>
	<path class="st4" d="M33.1,63.8c0.8-0.3,2.8-0.8,2-2c-0.2-0.3-0.7-0.5-1.1-0.4c-0.6,0.3-1.4,0.5-1.9,0.9c-0.2,0.1-0.3,0.2-0.6,0.3
		c-0.4,0.1-0.8,0.2-1.3,0.3c-0.1,0-0.3,0-0.4,0.1c-0.4,0.1-0.8,0.1-1.1,0.2c-0.7,0.1-1.3,0.2-1.9,0C26.3,63,26,63,25.8,63
		c-0.3,0-0.5-0.1-0.8-0.1c-0.6-0.1-1.1-0.3-1.7-0.6c-1-0.5-2-1.2-2.6-2.1c-0.2-0.3-0.6-0.4-0.8-0.1c-0.3,0.2-0.3,0.7-0.1,1
		c0.3,0.5,0.7,1.2,1.3,1.5c0.3,0.2,0.5,0.2,0.6,0.6c0.1,0,0.1,0,0.2,0c-0.2,0,0.3,0.3,0.3,0.3c0.2,0.1,0.4,0.3,0.6,0.4
		c0.6,0.3,1.1,0.6,1.7,0.7c0.3,0.1,0.6,0.2,0.9,0.3c0.3,0.1,0.6,0.1,0.9,0.1c0.4,0,0.7,0,1,0c0.4,0,0.7,0,1.1,0
		c0.8-0.1,1.5-0.2,2.2-0.3C31.5,64.4,32.3,64.1,33.1,63.8"/>
	<path class="st4" d="M18.6,52.6c-1.5,0.9,0.4,3.3,1.7,2C21.6,53.2,19.7,51.8,18.6,52.6"/>
	<path class="st4" d="M36.1,53.6c-1.9,0-1.2,3.2,0.5,2.8C38.4,56,37.8,53.6,36.1,53.6"/>
	<path class="st1" d="M57.5,55.7"/>
	<g>
		<path class="st1" d="M76.5,45.9c-0.3-0.4-0.6-0.5-0.9-0.9c-0.3-0.5-0.7-0.9-1-1.5c-0.1-0.3-0.7-1.5-1.1-1.4c0,0-0.1,0-0.1,0
			c0,0-0.3,0.1-0.2,1.1c0,0.2-0.1,0.3,0,0.7c0,0.2,0,0.4,0.1,0.7c-0.1,0.1-0.2,0.2-0.4,0.3c-0.1,0.1-0.8,0.7-0.9,0.8
			c-0.2,0.1-0.3,0.3-0.3,0.3c0,0-0.1,0-0.1,0.1c0-0.1-0.1-0.3-0.1-0.4c0,0-0.1-0.2,0-0.2c0,0,0-0.1-0.1-0.2c0,0,0.1-0.2,0-0.4
			l-0.2-0.2c0,0-0.2-0.1-0.2-0.2c0,0,0-0.3-0.1-0.4c0,0-0.1-0.3-0.2-0.4c0,0-0.3-0.7-0.4-0.7c0,0-0.3-0.2-0.3-0.3
			c0,0-0.1-0.3-0.3-0.3c0,0-0.4-0.2-0.5-0.3c0,0-0.2-0.2-0.3-0.2c0,0-0.1,0-0.1-0.1c0,0-0.1-0.2-0.2-0.1c0,0-0.1,0-0.1-0.1
			c0,0-0.3-0.4-0.6-0.4l-0.2-0.1c0,0-0.3-0.2-0.5-0.4c0,0,0,0-0.1-0.1c0.2-0.3,0.4-0.6,0.5-0.9c0.7-1.4,0.9-3.6,0.9-4.3
			c0-0.8,0.2-1.1,0.1-2.1c-0.1-1.3-0.8-2.3-0.8-2.4c0-0.3,0.1-0.8-0.2-1.8c-0.3-1.1-1.8-1.3-1.4,0.1c0.2,0.8-0.1,1.3-0.6,0.1
			c-0.3-0.8-1.4-2.9-2.4-1.5c-0.4,0.6,1.3,2.5,0.9,2.8c-0.3,0.2-0.9-0.3-1.6-0.7c-2.1-1.2-2.4,0.4-1.6,1c0.6,0.5,0.6,0.3,1.7,1.1
			c1,0.7,0.1,1-0.2,1c-0.9-0.1-1.3,0-1.6,0.3c-0.4,0.5-0.2,1.2,0.6,1.1c0.8-0.1,1.4-0.2,2.4,0.4c0.6,0.4,1,1.1,1.2,2
			c0.2,0.7,0.3,1.7,0.1,2.4c0,0.1-0.1,0.3-0.1,0.5c-0.1,0-0.1,0-0.2,0c0,0-0.4,0-0.6-0.1c0,0-0.5-0.2-0.8-0.1c0,0-0.4,0.1-0.5,0
			c0,0-0.3-0.2-0.4-0.1c0,0-0.2-0.1-0.3,0c0,0-0.2,0-0.3,0c0,0-0.3,0-0.4,0c0,0-0.3,0-0.4,0c0,0-0.3,0-0.5,0.1c0,0-0.3,0-0.3,0.1
			c0,0-0.2,0-0.2,0.1c0,0-0.2,0.2-0.3,0.1c0,0-0.2,0-0.3,0.1c0,0-0.2,0.1-0.2,0.1c-0.1,0-0.2,0.2-0.2,0.2s-0.1,0-0.2,0
			c-0.1,0-0.2,0.1-0.2,0.1s-0.2,0-0.4,0.1c-0.2,0.2-0.1,0-0.1,0s-0.5,0.3-0.6,0.3c0,0-0.1,0.1-0.3,0.1c0,0-0.5,0.1-0.6,0.2
			c0,0-0.2,0.2-0.3,0.3c0,0-0.3,0.2-0.4,0.3c0,0-0.1,0.1-0.3,0.2c0,0-0.8,0.7-0.9,0.8c0,0-0.6,0.6-0.9,1.1c0,0-0.4,0.9-0.4,1
			c0,0-0.7,1.3-0.8,1.7c0,0,0,0.3-0.1,0.4c0,0-0.2,0.1-0.2,0.3c0,0,0,0.2-0.1,0.3c0,0-0.1,0.2-0.1,0.3c0,0-0.2,0.2-0.2,0.4
			c0,0-0.2,0.3-0.1,0.4c0,0,0.1,0.1,0,0.2c0,0-0.1,0.2-0.1,0.3c0,0-0.1,0.4-0.1,0.5c0,0,0,0.1,0,0.2c0,0,0,0.3,0,0.4
			c0,0,0,0.3,0,0.4c0,0,0.1,0.3,0.1,0.4c0,0,0.1,0.3,0.1,0.3c0,0,0,0.4,0,0.5c0,0,0.1,0.3,0.1,0.4c0,0,0,0.2,0,0.3c0,0,0,0.2,0,0.3
			c0,0,0.2,0.4,0.2,0.6c0,0,0,0.4,0.1,0.4c0,0,0.2,0.2,0.2,0.3c0,0,0,0.2,0.1,0.3l0.1,0.2c0,0,0.2,0.5,0.3,0.6c0,0,0.3,0.4,0.3,0.5
			c0,0,0,0.2,0.2,0.3c0,0,0.1,0.3,0.3,0.4c0,0,0,0.2,0.2,0.2c0,0,0.2,0,0.2,0.1c0,0,0,0.2,0.1,0.2c0,0,0.3,0.2,0.3,0.2
			c0,0,0.1,0.2,0.2,0.2c0,0,0.3,0.2,0.4,0.4c0,0,0.3,0.4,0.4,0.4c0,0,0.2,0,0.3,0.1c0,0,0.1,0.1,0.3,0.1l0.1,0.1
			c0,0,0.4,0.3,0.5,0.4c0,0,0.2,0.2,0.3,0.3c0.1,0.1,0.3,0.1,0.4,0.2c0,0,0.4,0.4,0.6,0.4c0.2,0,0.3,0.2,0.4,0.2
			c0.2,0,0.2,0.1,0.4,0.1c0,0,0.5,0,0.5,0.2c0.1,0.1,0-0.1,0-0.1s0.3,0.2,0.2,0.3c-0.1,0.1-0.2,0.1,0,0.2c0,0,0.2,0,0.3-0.1
			c0,0,0.2-0.1,0.3,0c0.1,0.1,0.4,0.3,0.5,0.3c0.1,0,0.4-0.1,0.5,0.1c0,0.2,0.3,0.2,0.3,0.2s0.4,0,0.2-0.1c0,0-0.1-0.1-0.1-0.1
			c0,0,0-0.2-0.2-0.3c0,0,0.2-0.1,0.4,0c0,0,0.2,0.1,0.3,0.1c0,0,0.2,0,0.2,0c0.1,0,0.1,0,0.1,0s0.1,0,0.3-0.1
			c0.1-0.1,0.4-0.2,0.5-0.1c0.1,0,0.4,0,0.6-0.1c0,0,0.3,0.1,0.4,0c0,0,0.2-0.2,0.3-0.2c0,0,0.4-0.2,0.3-0.4l0.1-0.3
			c0,0,0-0.1,0.1-0.2l0.3-0.1c0,0,0.3,0,0.3-0.2c0,0,0-0.1,0.1-0.2c0,0,0.2-0.3,0.2-0.4c0,0,0-0.2,0.1-0.3c0,0,0.2,0,0.1-0.3l0-0.3
			c0,0,0-0.2,0-0.3c0-0.1,0-0.1,0-0.1s0-0.3,0.1-0.1l0.1,0.2c0,0,0.1,0.1,0.1,0.2c0,0,0,0.3,0.1,0.4c0,0,0.2,0.2,0.4,0.2
			c0,0,0.3,0.1,0.4,0c0,0,0.1-0.1,0.2-0.1c0,0,0.2,0,0.3-0.1c0,0,0,0,0.1,0c0,0,0.4-0.1,0.5-0.2c0,0,0.1-0.2,0.2-0.1
			c0,0,0.2-0.1,0.3-0.2c0,0,0.2-0.1,0.3-0.2c0,0,0,0,0,0c0,0,0.2,0.2,0.3,0.3c0.1,0.2,0.4,0.8,0.5,1c0.1,0.2,0.2,0.3,0.2,0.4
			c-0.1,0.2-0.2,0.4-0.3,0.6c-0.2,0.3-0.2,0.4-0.3,0.6c-0.4,0.9-0.2,1.1-0.2,1.1c0,0,0,0.1,0.1,0.1c0.3,0.3,1.3-0.7,1.6-0.9
			c0.4-0.4,1-0.7,1.4-1c0.4-0.3,0.7-0.3,1.1-0.5c0.4-0.2,0.9-0.9,0.7-1.3c-0.1-0.3-0.7-0.5-1-0.7c-0.4-0.2-0.8-0.5-1.1-0.9
			c-0.2-0.2-0.7-0.7-1.2-1.1c0,0,0,0,0,0c0,0,0.1-0.2,0.2-0.3c0,0,0.2-0.3,0.3-0.5c0,0,0.1-0.4,0.1-0.5c0,0,0,0,0,0
			c0,0,0.2-0.5,0.2-0.6c0,0,0.2-0.5,0.2-0.6c0,0,0-0.3,0-0.4c0,0,0.1-0.2,0.1-0.3c0,0,0.1-0.3,0.1-0.4c0,0,0-0.3,0-0.4
			c0,0,0.1-0.7,0.1-0.7c0,0,0-0.3,0-0.3c0,0,0,0,0-0.1c-0.1-0.2-0.2-0.5-0.2-0.7c0.8-0.3,1.7-0.6,2-0.8c0.5-0.2,0.9-0.3,1.4-0.4
			c0.3,0,0.9,0,1.1-0.2C77,47.1,76.8,46.2,76.5,45.9z M69.4,51.1l0-0.3c0,0,0-0.1,0-0.2c0-0.1,0-0.1,0-0.2c0,0,0.1-0.2,0-0.3
			c0,0,0-0.1,0-0.2c0,0,0,0,0,0c0,0-0.1-0.2,0-0.1c0,0,0.1,0,0.1,0c0,0,0.1-0.1,0.1-0.1c0,0,0.1,0.1,0.1,0.2c0,0-0.1,0.1-0.1,0.2
			c0,0,0,0.1,0,0.2c0,0-0.1,0.1-0.1,0.2c0,0,0,0.1,0,0.2c0,0,0,0.2,0,0.3l-0.1,0.3c0,0,0.1,0.1,0.1,0.2c0,0-0.1,0-0.1,0.1
			c0,0-0.1,0.2-0.2,0.2l-0.1-0.2c0,0-0.1-0.1,0-0.1C69.4,51.3,69.4,51.2,69.4,51.1z M69.7,53.2c0,0-0.2,0.3-0.4,0.3
			c0,0-0.1-0.1,0-0.2c0,0,0.1,0,0.2-0.1C69.5,53.2,69.7,53.1,69.7,53.2z M68.5,44.8l0.2,0c0,0,0,0.2-0.2,0.1
			C68.5,44.9,68.4,44.8,68.5,44.8z M68.2,45.1c0,0,0,0.1,0.1,0.2c0,0,0.2,0,0.1,0.2l0.1,0.1c0,0,0-0.2,0.1-0.2c0,0-0.1-0.1,0-0.2
			c0,0,0.1-0.1,0.2,0l0.1,0.1c0,0,0.2,0.1,0.1,0.2c0,0,0,0.1,0,0.1c0,0,0.2,0.2,0.2,0.3l0,0.2c0,0,0.1,0.2,0,0.2l-0.1,0
			c0,0-0.1,0.1,0,0.1l0.1,0.2l0.1-0.1c0,0,0.2-0.2,0.2-0.1c0,0,0.1,0.1,0,0.2c0,0,0.1,0.1,0.1,0.2l0.1,0.2l0,0.1
			c0,0,0.1-0.3,0.2-0.1l0,0.2l0,0l0,0.1c0,0-0.1,0-0.1,0c0,0-0.1,0.1,0,0.2c0,0,0.1,0.2,0,0.2c0,0,0.1,0.1,0.1,0.2l0,0.9
			c0,0,0.1,0,0.2,0c0,0.1,0,0.1,0,0.2c0,0,0,0.1,0,0.1c0,0,0,0.1,0,0.2c0,0-0.1,0.2-0.1,0.3c0,0.1-0.1,0-0.1-0.1
			c0,0,0.2-0.2,0.1-0.3l-0.1-0.3L69.9,49c0,0,0,0,0,0.2c0,0.1,0,0.3-0.1,0.3c0,0-0.2,0.1-0.1,0c0,0,0.1-0.2,0-0.3
			c0,0-0.1-0.2-0.1-0.4c0,0,0-0.2,0-0.3c0,0-0.1,0-0.1-0.2c0,0,0-0.4-0.1-0.5c0,0-0.2-0.4-0.1-0.5c0,0,0-0.1,0.1-0.1
			c0,0,0.1,0,0-0.2c0,0,0-0.2-0.2-0.2c0,0-0.1,0-0.2-0.1c0,0-0.2-0.1-0.2-0.3c0,0-0.1-0.2-0.2-0.2l0-0.1c0,0-0.1-0.2-0.1-0.3
			c0,0-0.2-0.2-0.3-0.3c0,0,0,0,0,0L68.2,45.1C68.1,45.1,68.1,44.9,68.2,45.1z M68.8,50.5c0,0,0,0.2-0.2,0.1c0,0,0-0.1,0-0.1
			c0,0,0-0.1,0-0.2c0,0,0-0.1,0.1-0.1C68.7,50.2,68.9,50.3,68.8,50.5C68.8,50.6,68.8,50.5,68.8,50.5z M68.7,49.9c0,0-0.1-0.1,0-0.1
			c0,0,0.1,0,0.1,0.1C68.9,49.8,68.8,50,68.7,49.9z M68.9,49.5C68.9,49.5,68.9,49.6,68.9,49.5c-0.1,0.1-0.2,0.2-0.2,0.2l0-0.2
			c0,0-0.1-0.1,0-0.2c0,0,0.1,0,0.1-0.1c0,0,0-0.1,0.1-0.1c0,0,0.1,0.1,0,0.2C68.9,49.3,68.9,49.4,68.9,49.5z M68.7,48.5l-0.1,0.1
			c0,0-0.1-0.1,0-0.2C68.8,48.4,68.8,48.4,68.7,48.5L68.7,48.5z M68.6,47.3c0,0,0-0.1-0.1-0.2c0,0-0.2-0.2,0-0.2c0,0,0.1,0,0.2,0.1
			C68.6,47,68.8,47.3,68.6,47.3z M68.6,50.8c0,0.2-0.1,0.1-0.1,0.1C68.4,50.9,68.5,50.8,68.6,50.8C68.5,50.7,68.6,50.8,68.6,50.8z
			 M67.8,44.7c0,0,0.1-0.1,0.2,0c0,0,0,0.3-0.1,0.1C67.9,44.8,67.7,44.7,67.8,44.7z M67.5,45.3c0,0,0.2,0.1,0.2,0.2
			c0,0,0.1,0.1,0.1,0c0,0,0.1-0.3,0.2-0.2c0,0,0,0,0.1,0.1c0,0,0.2,0.1,0.2,0.2c0,0,0,0.1,0,0.2l0.1,0.1c0,0,0.1,0,0,0.1L68.3,46
			c0,0-0.1,0-0.1,0.1c0,0,0.1,0,0.1,0c0,0,0.2-0.1,0.3,0c0,0,0-0.1,0-0.1l0,0.1c0,0,0,0,0,0c0,0-0.1,0.1-0.1,0.1
			c0,0-0.2,0.1-0.1,0.3c0,0,0.2,0.4,0,0.2c0,0,0-0.1-0.1-0.2c0,0-0.1-0.1-0.1-0.2c0,0-0.2-0.4-0.3-0.5c0,0-0.2-0.3-0.3-0.3
			C67.6,45.5,67.4,45.2,67.5,45.3z M67,52.5c0,0.1-0.2,0.4-0.2,0.4c-0.1,0-0.2,0.2-0.2,0.2c0,0,0,0-0.1,0.1L66.3,53
			c-0.1,0-0.2,0-0.3,0.1L66,53.4c-0.1,0.1-0.3,0.1-0.3,0.1l-0.3,0.1c-0.2,0.1-0.2,0-0.2,0c-0.1-0.1-0.3,0-0.3,0l-0.2-0.1l0.2,0.2
			L65,54c0.1,0.1,0.4,0.3,0.4,0.3l0.1,0.2c0.1,0.2,0.4,0.1,0.4,0.1c0.2-0.1,0.1,0.2,0.1,0.2c0,0.2-0.2,0.2-0.2,0.2
			c-0.1,0-0.2,0.3-0.2,0.3c-0.1,0.1,0.1,0.2,0.1,0.2c0.1,0.1,0,0.1,0,0.1l-0.2,0c0,0,0-0.2-0.2-0.3c0,0-0.2-0.2-0.3-0.3
			c0,0-0.3-0.4-0.6-0.5c0,0-0.2,0-0.3-0.1c0,0-0.2-0.3-0.4-0.2c0,0-0.3-0.1-0.4,0c0,0-0.3,0.1-0.5,0.1c0,0-0.4,0.2-0.5,0.3
			c0,0,0,0.2-0.2,0.2c0,0-0.1,0-0.2,0c0,0-0.1,0.1-0.2,0c0,0-0.1-0.1-0.3,0c0,0-0.1,0-0.2,0.1c0,0,0,0,0,0c0,0-0.1-0.1-0.2,0
			c0,0-0.1,0.2-0.2,0c0,0-0.1-0.1-0.2,0c0,0-0.1,0-0.1,0c-0.1,0.1-0.7-0.3-0.7-0.3c-0.1-0.1-0.4-0.2-0.4-0.2c-0.1,0-0.6-0.4-0.6-0.4
			c-0.1,0-0.2-0.2-0.2-0.2c0-0.1-0.4-0.4-0.4-0.4c-0.1-0.1-0.4-0.4-0.4-0.4c-0.2-0.2-0.4-0.7-0.4-0.7c0-0.1-0.4-0.5-0.4-0.5
			c-0.1-0.1,0-0.2,0-0.2c0.1-0.1,0-0.4,0-0.4c0-0.1-0.1-0.2-0.1-0.2C57,51.1,57,50.5,57,50.5c0.1-0.2,0-0.2,0-0.2
			c-0.1-0.1,0.1-0.4,0.1-0.4c0-0.1-0.1-0.4-0.1-0.4c0-0.1,0-0.3,0-0.3c0-0.1,0-0.3,0-0.3c0.1-0.1,0.1-0.6,0.1-0.6
			c0.4-1.3,1.9-2.9,2-3.1c0.1-0.2,0.9-0.6,0.9-0.6c0.1-0.1,0.6-0.3,0.6-0.3c0.2,0,0.5-0.2,0.5-0.2c0.1-0.1,0.3,0,0.3,0
			c0.2,0.1,0.6-0.1,0.6-0.1c0.1-0.1,0.4,0,0.4,0c0.1,0,0.3,0,0.3,0c0.1,0.1,0.4,0.1,0.4,0.1c0.1,0,0.3,0,0.3,0
			c0.2,0.1,0.5,0.1,0.5,0.1c0.1,0,0.6,0.2,0.6,0.2c0.1,0.1,0.7,0.3,0.7,0.3c0.1,0.1,0.3,0.1,0.3,0.1c0.2,0,0.6,0.4,0.6,0.4
			c0.1,0.1,0.5,0.4,0.5,0.4l0.1,0.1c0.2,0.1,0.4,0.5,0.4,0.5c0,0.1,0.3,0.4,0.3,0.4c0.1,0.1,0.2,0.6,0.2,0.6c0,0.1,0.2,0.3,0.2,0.3
			c0,0.1,0.1,0.5,0.1,0.5c0,0.1,0.1,0.3,0.1,0.3c-0.1,0.1,0,0.4,0,0.4c0.1,0.3,0.1,0.6,0.1,0.6c-0.1,0.1,0,0.3,0,0.3
			c0,0.3-0.1,0.7-0.1,0.7c0,0.1-0.1,0.4-0.1,0.4c-0.1,0.1-0.1,0.3-0.1,0.3c-0.1,0-0.2,0.4-0.2,0.4c-0.1,0.2,0.1,0.1,0.1,0.1
			c0,0.1-0.1,0.2-0.1,0.2c0-0.2-0.2,0-0.2,0c-0.1,0.1,0.1,0.2,0.1,0.2c0.1,0.1-0.1,0.2-0.1,0.2c-0.1-0.1-0.2,0.1-0.2,0.1
			c0,0.1-0.2,0.2-0.2,0.2C67.2,52.2,67,52.5,67,52.5z M67.9,52.4c0,0,0.1,0,0,0.1c0,0-0.1,0.2-0.2,0C67.8,52.5,67.8,52.3,67.9,52.4z
			 M68.2,53.7l-0.2,0.1c0,0-0.1,0-0.1,0.1c0,0,0,0,0,0c0,0-0.1,0-0.1-0.1l0,0c0,0,0-0.1-0.1,0c-0.1-0.1-0.3-0.1-0.4-0.2
			c0,0,0-0.1,0.1-0.1c0,0,0.2-0.1,0.2-0.3c0,0,0.2-0.1,0.2-0.2c0,0-0.1-0.1,0-0.1c0,0,0.1,0,0.1-0.1c0,0,0.2,0.1,0.2-0.1l0-0.2
			l0-0.2c0,0,0.1-0.2-0.1-0.1c0,0-0.2,0-0.1-0.1c0.1-0.1,0.1-0.4,0.2-0.5c0,0,0.2-0.2,0.2-0.1l0,0.2l0,0.2c0,0,0,0.2,0.1,0.2
			c0.1,0,0.2-0.1,0.1-0.3c0,0,0-0.1,0.1-0.1c0,0,0.2-0.1,0.2-0.3c0,0,0.1-0.2,0-0.4l0.1-0.2c0,0,0.2-0.2,0.1-0.3l-0.1,0l0.1-0.1
			c0,0,0.2-0.1,0-0.2c0,0,0-0.1,0.1-0.1c0,0,0.1-0.1,0.1-0.2c0,0-0.1-0.1-0.1-0.2c0,0,0.1,0,0.1-0.2c0,0,0-0.1,0-0.3
			c0,0,0-0.4-0.1-0.5c0,0,0.1-0.1,0-0.3l-0.1-0.3c0,0,0-0.2-0.1-0.2c0,0-0.1-0.2-0.1-0.3c0-0.1,0-0.2,0-0.2s0.1-0.3,0.1-0.1
			c0,0,0.1,0.1,0,0.2c0,0-0.1,0.1,0,0.2c0,0,0.1-0.2,0.1-0.1c0,0,0.1,0,0.1-0.1c0,0,0.1,0,0.1,0c0,0,0.1,0.1,0.1,0.2
			c0,0-0.1,0.2-0.1,0.2c0,0,0,0.2,0,0.2c0,0,0.1,0.1,0.1,0.2c0,0,0,0.1,0,0.2l0.1,0.2c0,0,0.1,0.2,0,0.3c0,0-0.1,0.1-0.1,0.2
			c0,0,0,0.1,0,0.1c0,0-0.1,0.2,0,0.3c0,0,0.1,0.1,0,0.2c0,0-0.1,0.3,0,0.5c0,0,0,0.2,0,0.2c0,0.1-0.2,0.2-0.1,0.3
			c0,0,0.1,0.1,0,0.2c0,0-0.1,0.1-0.1,0.2c0,0-0.1,0.2-0.1,0.2l0,0.1c0,0-0.1,0.1,0,0.2c0,0,0,0.1,0,0.2c0,0.1-0.1,0.4-0.2,0.2
			c0,0,0.1-0.1,0-0.2c0,0,0,0.1-0.1,0.2c0,0-0.1,0.1,0,0.2c0,0,0,0.1,0,0.2c0,0,0,0.2-0.1,0.2c0,0-0.1,0.1,0,0.2
			c0,0,0.1,0.1-0.1,0.1c0,0-0.1,0-0.2,0.1c0,0,0,0.1-0.1,0.1c0,0-0.1,0.1-0.1,0.2c0,0,0.1,0,0.1,0c0,0,0.1,0,0.2-0.1
			c0,0,0.1-0.2,0.2-0.2c0.1,0,0.1,0.1,0.1,0.1l-0.1,0.1c0,0-0.2,0-0.2,0.1c0,0-0.1,0.2,0.1,0.1l0.2-0.1c0,0,0.1,0,0.2-0.1l0.2-0.2
			c0,0,0.1,0,0.1-0.1c0,0,0-0.1,0.1-0.2l0-0.1l0.1-0.1l0-0.1c0,0-0.2,0.1-0.2,0c0,0,0.1-0.2,0.2-0.1c0,0,0.1,0.1,0.1,0
			c0,0,0.1-0.1,0-0.2c0,0-0.1-0.1,0-0.2c0,0,0.1-0.1,0.2,0l0,0.1c0,0-0.1,0.1,0,0.1c0,0,0.2-0.1,0.2-0.1c0,0,0.1,0,0,0.1
			c0,0,0,0.2,0,0.3c0,0-0.1,0-0.1,0.1c0,0-0.1,0.2-0.2,0.2c0,0-0.1,0.1-0.1,0.2c0,0-0.1,0.2,0,0.3c0,0,0.2,0.1,0.1,0.1L69,53.4
			c0,0-0.1,0.1-0.2,0.2c0,0-0.2,0.3-0.2,0.4c0,0,0,0.2-0.1,0.2C68.3,54.1,68.1,54,68,54c0,0,0.1-0.1,0.1-0.1l0.1-0.1L68.2,53.7z
			 M68.7,52.9c-0.1,0.1-0.1,0-0.1,0c0-0.1,0.2-0.2,0.2-0.2C68.9,52.8,68.7,52.9,68.7,52.9z"/>
		<path class="st1" d="M57.6,40.3c0,0.1-0.1,0.1-0.1,0.1C57.5,40.4,57.6,40.4,57.6,40.3z"/>
		<polygon class="st1" points="57.6,40.3 57.6,40.3 57.6,40.3 		"/>
		<polygon class="st1" points="57.1,40.6 57,40.6 57,40.6 		"/>
		<polygon class="st1" points="51.9,35.1 52,35.1 51.9,35.1 		"/>
		<path class="st1" d="M52.3,39.4C52.3,39.4,52.3,39.4,52.3,39.4c0.2,0.1,0.4,0.2,0.7,0.2l0.1,0c0,0,0,0,0,0c0.1,0,0,0,0,0
			c0,0,0.1,0,0,0c0.2,0,0.4-0.1,0.6-0.1l0,0c0.1,0,0.1-0.1,0.2-0.2l0,0c0.3-0.1,0.4-0.4,0.4-0.7c-0.1-0.1,0-0.3-0.1-0.3
			c-0.1-0.2,0-0.2-0.3-0.3c-0.1,0-0.1,0-0.2,0l0,0l-0.1,0l0-0.1h-0.1c0,0,0,0,0,0c-0.1,0-0.2-0.1-0.2-0.1c-0.1,0-0.1,0-0.2-0.1
			c0,0,0,0,0.1,0c-0.1,0,0,0-0.1-0.1c0,0,0,0,0,0c0-0.1-0.1-0.1-0.1-0.2h0c-0.1-0.1-0.1-0.3-0.1-0.4c0,0.1-0.1,0-0.1,0l0.1,0
			c0,0,0,0-0.1,0c0-0.1,0.1,0,0.1,0l0-0.1c0,0,0,0,0,0c0,0,0.1-0.1,0-0.1l0,0c0.1-0.1,0.1-0.2,0.2-0.3c0,0,0-0.1,0-0.1
			c0.1,0,0.2,0,0.3-0.1c0.1,0,0,0,0.1-0.1c0,0,0.1,0,0.1,0c0.1,0,0.2,0,0.4,0c0,0,0,0,0,0c0,0,0.1,0,0.1,0l0,0
			c0.2,0,0.3,0.3,0.5,0.4l0,0c0,0,0.1,0.1,0.1,0.1c0,0.1,0,0,0,0c0.1,0.1,0.1,0.3,0.2,0.4c-0.1,0.1,0.1,0.4,0,0.6l0,0
			c0,0,0,0.1,0,0.1c0,0,0,0,0,0c0.1,0.4,0.1,0.8,0.2,1.2c0.1,0.1,0.2,0,0.2,0.2l-0.1,0c0.2,0.2,0.4,0.5,0.7,0.7c0,0,0,0-0.1,0
			c0,0.1,0.2,0.2,0.2,0.1c0,0,0,0,0,0.1c0.1,0.1,0.2,0,0.2,0.1c0,0,0,0,0,0c0.1,0,0.2,0,0.2,0c0.1,0,0.3,0,0.4,0
			c0.1,0,0.2,0,0.2-0.1c0,0.1,0.3,0,0.3-0.2c0,0,0.1-0.1,0.1,0c0.1-0.1,0-0.2,0-0.2c0.1-0.2-0.1-0.3-0.1-0.4
			c-0.1-0.2-0.4-0.4-0.5-0.5c0.1,0,0.1,0.2,0.2,0.1c-0.1-0.1-0.3-0.2-0.3-0.4c0,0,0,0,0.1,0c-0.1-0.1-0.2-0.3-0.3-0.5c0,0,0,0,0,0
			c0,0,0-0.1,0-0.1l0,0c0,0.1-0.1-0.1-0.2-0.1c0.1,0,0-0.2,0.1-0.1c0,0,0,0-0.1,0c0,0,0,0,0,0c-0.1-0.1-0.1-0.1-0.1-0.2c0,0,0,0,0,0
			c0,0-0.1-0.1-0.1-0.2c0,0,0,0,0,0c0-0.1-0.1-0.2-0.1-0.4c0.1,0,0-0.1,0.1-0.1l0-0.1l0,0c0-0.1-0.1-0.2,0-0.2l0,0.1l0-0.2l0,0.1
			c0-0.1-0.1,0-0.1-0.1c0,0,0-0.1,0-0.1c0,0,0-0.1,0-0.1c0,0,0.1,0,0.1,0c0,0,0-0.2-0.1-0.2c0,0,0,0,0,0l0,0c0,0,0,0,0,0
			c0-0.1-0.1,0-0.1-0.1c0,0,0,0,0,0c0-0.1-0.1-0.3-0.1-0.4c0-0.1,0,0.1,0.1,0.1c-0.1-0.2-0.2-0.4-0.3-0.5l0,0c-0.1,0,0-0.1-0.1-0.2
			c0,0,0.1,0,0,0c-0.1-0.1-0.2-0.2-0.4-0.3h0c-0.1-0.1-0.2-0.1-0.2-0.2c0,0-0.1,0-0.1,0c-0.2-0.2-0.5-0.2-0.7-0.3c0,0,0.1,0,0,0
			l-0.2,0c0,0,0,0,0.1,0.1c0,0-0.1,0-0.1,0c0.1,0,0-0.1,0-0.1c0,0,0,0,0,0c-0.1-0.1,0,0.1-0.2,0l0,0c-0.1,0-0.1,0-0.2,0
			c0,0,0.1,0,0.1,0c-0.1,0-0.2,0.1-0.2,0c0,0,0.1,0,0.1,0c-0.1,0-0.1,0-0.1,0l0,0c0,0-0.1,0-0.1,0l0,0c-0.1,0.1-0.2,0-0.3,0.1
			c0.1-0.1,0,0,0-0.1c0,0-0.1,0-0.1,0c-0.1,0-0.1,0-0.2,0c0,0-0.1,0-0.1,0c-0.1,0,0,0,0,0c-0.1,0.1-0.3,0-0.5,0.1
			c-0.1,0.1-0.1,0.1-0.2,0.2c0,0,0,0-0.1,0c0,0,0-0.1,0-0.1c-0.1,0-0.1,0-0.2,0.1c0,0,0,0,0,0c0,0,0,0.1-0.1,0.1c0,0,0,0,0-0.1
			L52,35c0,0,0-0.1,0-0.1c0,0-0.1,0.1-0.1,0.1c0-0.1,0.1,0,0.1,0l0,0c0.1,0,0.2-0.1,0.3-0.2l0,0.1c-0.1,0.1-0.2,0.1-0.3,0.2
			c-0.1,0.1-0.2,0.2-0.3,0.3c0,0,0,0,0,0c0,0,0,0,0-0.1c0,0,0,0,0,0l0-0.1l0,0v0c0,0-0.1,0-0.1,0l0,0.1l-0.1,0l0.1-0.1
			c-0.1,0-0.1,0.1-0.1,0.1c0,0,0,0-0.1,0l0,0.1c0,0,0-0.1-0.1,0c0,0.1,0.1,0,0.1,0.1c-0.1,0-0.1,0-0.1,0.1c0,0,0,0,0,0
			c0,0.1-0.1,0.1,0,0.2c-0.1,0-0.1,0.2-0.1,0.2c0,0,0,0.1,0,0.2c-0.1-0.1-0.1,0.2-0.1,0.1c0,0.1,0,0.3,0,0.4c0,0,0,0,0,0
			c0,0.1,0,0.1-0.1,0.1c0.1,0,0.1,0.1,0.1,0.2c-0.1,0.1-0.1-0.1-0.1,0c0,0,0.1,0.1,0.1,0.1c0,0.1,0,0.1-0.1,0.1c0.1,0,0,0.1,0.1,0.1
			c0,0.1-0.1,0,0,0.1c0,0.1,0,0,0,0c0,0.1,0.1,0,0.1,0.1c0,0.1,0,0.1,0,0.1c0,0.1,0.1,0.1,0.1,0.2c0,0,0,0,0,0
			c0.1,0.1,0.1,0.2,0.1,0.3l0,0c0,0,0,0,0.1,0c0,0,0.1,0.1,0,0.1c0,0,0,0,0,0l0,0c0,0.1,0-0.1-0.1,0c0.1,0.1,0.1,0.2,0.1,0.2
			c0,0-0.1-0.2-0.1,0l0-0.1c0,0.1,0-0.1-0.1,0c0,0.2,0.1,0.2,0.2,0.3c0,0,0,0,0.1,0c0.2,0.2,0,0.2,0.1,0.3c0.1,0,0.1,0,0.2,0.1
			l-0.1,0c0.1,0.1,0.1,0,0.2,0.1c0,0-0.1-0.1-0.1,0c0.1,0.1,0.1,0,0.1,0.1l0,0C52,39.3,52.1,39.3,52.3,39.4z M54.9,34.7
			C54.9,34.7,54.9,34.7,54.9,34.7C54.8,34.7,54.8,34.7,54.9,34.7C54.8,34.7,54.8,34.7,54.9,34.7z M52.8,34.7L52.8,34.7
			C52.8,34.7,52.8,34.7,52.8,34.7C52.8,34.7,52.8,34.7,52.8,34.7z M52.5,39.4C52.5,39.4,52.5,39.4,52.5,39.4L52.5,39.4
			C52.4,39.4,52.4,39.4,52.5,39.4z M52.3,34.9C52.3,34.9,52.4,34.9,52.3,34.9C52.3,34.9,52.3,34.9,52.3,34.9L52.3,34.9z"/>
		<path class="st1" d="M52,35.1C51.9,35.1,51.9,35.1,52,35.1C51.9,35.1,51.9,35.1,52,35.1L52,35.1z"/>
		<path class="st1" d="M56.7,38.5L56.7,38.5C56.8,38.5,56.7,38.5,56.7,38.5z"/>
		<polygon class="st1" points="56.2,36.2 56.3,36.1 56.2,36.1 		"/>
	</g>
	<g>
		<path class="st5" d="M58,19.6c-0.6-0.9-1.1-1.2-1.3-1.4c-0.1-0.1-0.5-1.4-1.5-2.3c-0.8-0.8-1.2-0.8-1.9-1.4
			c-0.6-0.5-2.6-1.8-4.3-2.3c-2.5-0.6-4.3,0.2-5.2,0.4c-0.2,0-0.3,0.1-0.5,0.1c0-0.2-0.1-0.5-0.2-0.7c-0.2-0.3-0.5-0.5-0.7-0.8
			c-0.1-0.2-0.1-0.5-0.2-0.7c-0.3-0.4-0.7-0.8-1-1.2c-0.1-0.1-0.9-0.6-0.8-0.4c-0.1-0.4-0.7-0.1-1-0.3c-0.2-0.2-0.3-0.3-0.5-0.5
			C38.9,8,39,7.9,39,7.8c0.2-0.3,0.5-0.7,0.6-1c0.2-0.3,0.3-0.6,0.4-0.8c0.2-0.3,0.3-0.6,0.4-0.8c0.5-0.1,0.4,0.1,0.9,0.2
			c0.3,0,0.6,0,0.9,0.1c0.3,0,0.6,0.1,0.9,0c0.4,0,0.7-0.1,0.8-0.3c0.3-0.3,0.5-0.3,0-0.7c-0.2-0.2-0.7-0.4-1-0.6
			c-0.2-0.1-0.5-0.2-0.8-0.3c-0.2-0.1-0.5-0.2-0.8-0.3c-0.2-0.1-0.5-0.2-0.8-0.3C40.3,3,40.4,3,39.9,2.9c-0.2-0.1-0.5-0.2-0.8-0.4
			c-0.2-0.1-0.5-0.3-0.7-0.4C38.4,2,38,1.9,37.8,2.3c-0.1,0.2-0.2,0.5-0.3,0.9c-0.1,0.3-0.3,0.6-0.3,0.9c-0.1,0.4-0.3,1.3-0.4,1.6
			c-0.1,0.3-0.1,0.6-0.2,0.9c0,0.2-0.1,0.5-0.1,0.8c0,0,0,0-0.1,0c-0.1-0.1-0.2-0.3-0.2-0.5C36.3,7,36.1,7,36.1,7.1
			c0-0.1-0.1-0.3-0.1-0.4c-0.3,0.1-0.7,0.3-0.8-0.2c-0.1,0.1-0.2,0.1-0.3,0.2c-0.4-0.3-1.2-0.1-1.6-0.2c-0.2,0-0.4-0.1-0.6-0.1
			c0,0-0.2,0-0.2,0c-0.1,0-0.2,0-0.3,0c0,0-0.1,0-0.1,0c-0.3,0.1-0.7,0.2-1.1,0.3l0,0c-0.1,0-0.2,0.1-0.2,0.1
			c-0.2,0.1-0.3,0.2-0.4,0.1c0,0-0.1,0-0.1,0c0.1,0,0.1,0,0.2-0.1c-0.1,0-0.3,0-0.5,0.1c-0.1,0.1-0.2,0.2-0.2,0.2c0,0,0,0,0,0
			c0,0,0,0,0,0c0,0,0,0,0,0c0,0-0.5-0.1-0.6-0.1c-0.2,0-0.6,0.3-0.8,0.4c-0.2,0.1-0.3,0.4-0.5,0.5c-0.5,0.4-1.3,0.4-1.5,1
			c0,0.1,0,0.1,0,0.2c-0.5-0.1-0.4,0-0.7,0.3c0,0-0.1,0-0.1,0.1l-0.7,0.9l0,0c-0.1-0.1-0.3-0.2-0.4-0.3c-0.2-0.2-0.5-0.7-0.7-0.9
			c-0.2-0.2-0.7-1-0.9-1.1c-0.2-0.2-0.5-0.6-0.7-0.8c-0.2-0.2-0.4-0.4-0.6-0.6c-0.3-0.3-0.5-0.4-0.6-0.5c-0.5,0.1-0.5,0.1-0.9,0.5
			c-0.2,0.2-0.4,0.5-0.5,0.8c-0.2,0.4-0.4,0.5-0.7,1c-0.1,0.2,0,0.3-0.2,0.5c-0.1,0.2-0.3,0.5-0.4,0.7c-0.2,0.3-0.3,0.5-0.5,0.7
			c-0.2,0.3-0.2,0.6-0.3,0.7C17,12,17,12,17,12.5c0,0.3,0,0.6,0,0.8c0,0.1,0.2,0.3,0.5,0.1c0.2-0.1,0.5-0.3,0.8-0.4
			c0.2-0.1,0.5-0.3,0.7-0.5c0.2-0.2,0.4-0.3,0.7-0.5c0.2-0.2,0.6-0.6,0.8-0.8c0.2-0.2,0.3-0.1,0.5-0.3c0.4,0.1,0.4,0.3,0.8,0.5
			c0.4,0.2,0.5,0.4,0.9,0.7c0.3,0.2,0.6,0.4,0.9,0.6c-0.1,0.1-0.2,0.2-0.2,0.3c0,0,0.1-0.1,0.2-0.1c-0.1,0.1-0.2,0.2-0.3,0.3l0,0
			c0,0,0,0,0,0c0,0,0,0,0,0c0,0,0,0,0,0c0,0,0,0-0.1,0.1c0,0-0.4,0.5-0.4,0.5c0,0,0.2-0.2,0.3-0.3c0,0,0,0,0,0.1
			c0,0-0.3,0.3-0.3,0.3c0,0,0,0.1-0.1,0.1c0,0,0,0,0,0l0,0.1c0,0,0,0,0,0c0,0.1-0.1,0.2-0.1,0.2l0,0c0,0.1-0.1,0.1-0.1,0.2
			c0,0,0.1-0.1,0.1-0.1c-0.2,0.2-0.3,0.4-0.4,0.7c0,0,0,0.1,0,0.1c0,0,0,0,0,0c0,0,0,0-0.1,0.1l0,0c-0.1,0-0.1,0.1-0.1,0.2
			c0,0,0,0-0.1,0c0,0,0,0,0,0l0,0l0,0c0,0,0,0.1,0,0.1l0,0c0,0,0,0,0,0c0,0,0,0-0.1,0l0,0l0,0l-0.1,0l0,0l0,0c0,0,0,0.2,0,0.2
			c0,0.1,0,0.1-0.1,0.2l0,0c0,0,0,0.1,0.1,0.1c-0.2,0-0.1,0.1-0.1,0.1c0,0,0-0.1,0-0.1l0,0c0,0,0,0,0,0c0,0,0,0,0,0c0,0,0,0,0,0l0,0
			c0,0,0,0,0,0c0,0,0,0,0,0c0,0,0,0,0,0c0,0,0,0,0.1,0l0,0l0,0l0,0l0,0c0,0,0,0,0,0c0,0,0,0,0,0l0,0c0,0,0,0,0,0l0,0l0,0l0,0
			c0,0,0,0,0,0l0,0h0l0,0c0,0,0,0,0,0c0,0-0.1,0,0,0c0,0,0,0,0,0c0,0,0,0,0,0c0,0-0.1,0,0,0c0,0,0,0,0,0l0,0l0,0l0,0c0,0,0,0,0,0
			c0,0,0,0,0,0c0,0,0,0,0,0c0,0.1,0,0.3-0.1,0.4c0,0,0,0.1-0.1,0.1c0,0.1,0,0.2,0,0.3l0,0c-0.1,0.2,0,0.5,0,0.7c0,0.1,0,0.1,0,0.2
			c0,0,0,0,0,0c0,0,0,0,0,0.1l0,0c0,0.1-0.1,0.2-0.1,0.3l0,0c0,0,0,0.1,0,0.1c0,0,0,0.1-0.1,0.2l0,0.1c0,0,0,0,0-0.1
			c0,0.1,0,0.3,0,0.3c0,0,0,0,0-0.1c0,0,0,0.1,0,0.1c0.1,0,0,0.4,0,0.5c0,0.3,0.1,0.6,0,0.7l0,0.1c0,0,0,0.1,0.1,0.1
			c-3.2,1.1-4.5,2.4-5.5,3.6c-1.4,1.7-0.3,3,0,3.6c0.3,0.6-1.2,1.5-0.6,2.3c0.6,0.8,3.5-0.9,3.6-3.1c0-2.1,2.4-3.6,3.4-4.2
			c0,0,0,0.1,0,0.1c0.1,0.2,0.1,0.3,0.2,0.5l0,0c0.3,0.4,0.6,0.7,0.8,1.1c0.1,0.1,0.2,0.2,0.2,0.3c0-0.1,0.1,0,0.1,0l0.1,0.1
			c0,0,0,0,0.1,0c0.1,0.1,0.3,0.3,0.5,0.4l0,0c0,0,0.1,0.1,0.1,0c0,0.1,0.2,0.2,0.2,0.3l0.1,0.1c-0.1,0-0.1,0-0.1,0
			c0.1,0.1,0.2,0.3,0.3,0.4c-0.1,0-0.1-0.1-0.1-0.1l0.1,0.1c0.2,0.2,0.7,0.8,0.9,1c0.4,0.3,0.7,0.7,1.2,1c0.1,0,0.1,0.1,0.1,0
			c0,0,0.1,0.1,0.2,0.2c-0.1,0.2,0.2,0.5,0.4,0.5c0.1,0.1,0.2,0.1,0.4,0.3c-0.2-0.2-0.2-0.2-0.3-0.3l0,0c0,0,0,0,0.1,0
			c0,0,0,0.1,0.1,0.1c0,0,0.1,0,0.1,0.1c0,0,0,0,0,0c0,0,0,0,0.1,0.1c0,0,0,0.1,0,0.1c0,0,0.1,0.1,0.1,0.1c-0.1-0.1,0.1,0,0.1,0
			c0,0,0,0,0.1,0c0,0,0,0,0,0c0.1,0,0.2,0,0.2,0c0,0,0,0,0,0c0.1,0,0.2,0,0.2,0c0,0,0,0,0,0l0,0l0,0c0,0,0.1,0,0.1,0c0,0,0,0,0,0
			l0,0c0,0,0-0.1-0.1-0.1c0.1,0,0.1,0,0.2,0.1l0,0c0,0,0,0,0,0c0,0,0,0,0,0c0,0,0,0,0,0c0,0,0.3,0.2,0.3,0.2c0,0-0.1-0.1-0.2-0.1
			c0,0,0,0,0,0c0,0,0.2,0.1,0.2,0.1c0,0,0,0,0.1,0c0,0,0,0,0,0l0,0c0,0,0,0,0,0c0,0,0.1,0,0.1,0l0,0c0,0,0.1,0,0.1,0
			c0,0-0.1,0-0.1,0c0.1,0,0.1,0,0.2,0c0.3,0,0.6,0.1,0.8,0.2c0.1,0,0.1,0.1,0.2,0.1c0.2,0,0.3,0.1,0.4,0.2l0,0
			c0.4,0.2,0.7,0.3,1.1,0.4c0.1,0.1,0.2,0.1,0.3,0.1c-0.1,0,0.1,0,0.1,0l0.1,0.1c0,0,0,0,0.1,0c0.1,0,0.3,0.1,0.5,0.2l0,0
			c0,0,0.1,0,0.1,0c0.1,0,0.2,0.1,0.2,0.1l0.1,0c-0.1,0-0.1,0-0.1,0c0.1,0,0.3,0.1,0.4,0.2c-0.1,0-0.1,0-0.1,0l0.1,0
			c0.3,0,0.9,0.1,1.2,0.1c0.5,0,0.9,0,1.3-0.1l0.2,0c0,0,0.3-0.1,0.3-0.2c0.3,0.1,0.6-0.1,0.9-0.3c-0.1,0.1-0.3,0.1-0.4,0.2l0,0
			c0,0,0,0,0,0c0,0,0.1,0,0.1,0c0.1,0,0-0.1,0.1-0.1c0,0,0,0,0,0c0,0,0,0,0.1-0.1c0,0,0,0,0,0c0,0,0.1,0,0.1,0c-0.1,0,0.1-0.1,0-0.1
			l0,0c0,0,0,0,0,0c0.1,0,0.1-0.1,0.2-0.1c0,0,0,0,0,0c0.1,0,0.2,0,0.2-0.1c0,0,0,0,0,0l0,0l0,0c0,0,0.1,0,0.1,0c0,0,0,0,0,0l0,0
			c0,0-0.1,0-0.1,0c0.1,0,0.1-0.1,0.2-0.1l0,0l0,0c0,0,0,0,0,0c0,0,0,0,0,0c0,0,0.3-0.1,0.3-0.1c0,0-0.1,0-0.2,0.1c0,0,0,0,0,0
			c0,0,0.2,0,0.2-0.1c0,0,0,0,0,0c0,0,0,0,0,0l0,0c0,0,0,0,0,0c0,0,0.1,0,0.1-0.1l0,0c0,0,0.1,0,0.1,0c0,0-0.1,0-0.1,0
			c0.3-0.2,0.6-0.3,0.9-0.5c0.1,0,0.1,0,0.2-0.1c0.2-0.1,0.3-0.1,0.4-0.2l0,0c0.1-0.3,1.3-0.7,1.6-1c0.3-0.3,0.8-0.7,0.6-1.1
			c0.3-0.1,0.7-0.2,0.7-0.6c0-0.4,0.9-1,1.1-1.3c0.5-1,0.6-2.2,0.1-3.2c-0.7-1.4-1.2-0.6-2.2,0.1c-0.3,0.2-0.6,0.5-0.9,0.8
			c-0.3,0.3-0.5,0.7-0.8,0.9l-0.1,0.1c0,0-0.2,0.2-0.1,0.3c-0.3,0-0.4,0.3-0.6,0.5c0.1-0.1,0.2-0.2,0.3-0.2l0,0c0,0,0,0,0,0.1
			c0,0-0.1,0-0.1,0c0,0,0,0.1-0.1,0.1c0,0,0,0,0,0c0,0,0,0,0,0.1c0,0,0,0,0,0c0,0,0,0-0.1,0c0.1,0,0,0.1,0,0.1l0,0c0,0,0,0,0,0
			c0,0-0.1,0.1-0.1,0.1c0,0,0,0,0,0c0,0-0.2,0.1-0.2,0.1c0,0,0,0,0,0l0,0l0,0c0,0-0.1,0-0.1,0c0,0,0,0,0,0l0,0c0,0,0.1,0,0.1,0
			c-0.1,0-0.1,0.1-0.2,0.1l0,0l0,0c0,0,0,0,0,0c0,0,0,0,0,0c0,0-0.3,0.1-0.3,0.1c0,0,0.1,0,0.2-0.1c0,0,0,0,0,0c0,0-0.2,0-0.2,0.1
			c0,0,0,0,0,0c0,0,0,0,0,0l0,0c0,0,0,0,0,0c0,0-0.1,0.1-0.1,0.1l0,0c0,0-0.1,0-0.1,0c0,0,0.1,0,0.1,0c-0.1,0.1-0.2,0.1-0.3,0.2
			c-0.2,0.1-0.4,0.1-0.7,0.2c-0.1,0-0.2,0-0.2,0c-0.2,0.1-0.4,0.1-0.5,0.1l0,0c-0.2,0.1-0.4,0.1-0.6,0c0,0-0.2-0.2-0.4-0.1
			c-0.2,0.1-0.2,0.1-0.3,0.1c-0.1,0-0.2,0-0.3-0.1c0.1,0-0.1,0-0.1,0l-0.1-0.1c0,0,0,0-0.1,0c-0.2-0.1-0.4-0.2-0.6-0.3l0,0
			c-0.1,0-0.1,0-0.1,0c-0.1,0-0.3,0-0.4,0l-0.1,0c0.1,0,0.1,0,0.1-0.1c-0.2,0-0.3,0-0.4-0.1c0.1,0,0.1,0,0.1,0l-0.1,0
			c-0.1,0-0.3-0.1-0.5-0.2c-0.2-0.1-0.1-0.1-0.4-0.2c-0.4,0-0.4,0.1-0.5,0.1c-0.4,0.3-0.7,0-1-0.4c0-0.1-0.1-0.1-0.1-0.2
			c0,0-0.4-0.2-0.4-0.1c-0.2-0.3-0.7-0.3-1-0.3c0.1,0,0.3,0.1,0.5,0.1l0,0c0,0,0,0-0.1,0c0,0-0.1,0-0.1-0.1c-0.1,0-0.1,0-0.1,0
			c0,0,0,0,0,0c0,0,0,0-0.1,0c0,0,0,0,0,0c0,0-0.1,0-0.1,0c0,0.1-0.1,0-0.1,0.1l-0.1,0c0,0,0,0,0,0c-0.1,0-0.1,0-0.2-0.1
			c0,0,0,0,0,0c-0.1,0-0.2-0.1-0.2-0.1c0,0,0,0,0,0l0,0l0,0c0,0-0.1,0-0.1-0.1c0,0,0,0,0,0l0,0c0,0,0,0.1,0,0.1
			c0-0.1-0.1-0.1-0.2-0.1l0,0c0,0,0,0,0,0c0,0,0,0,0,0c0,0,0,0,0,0c0,0-0.3-0.2-0.3-0.2c0,0,0.1,0.1,0.2,0.2c0,0,0,0,0,0
			c0,0-0.1-0.2-0.2-0.2c0,0,0,0,0,0c0,0,0,0,0,0l0,0c0,0,0,0,0,0c0,0-0.1,0-0.1-0.1l0,0c0,0-0.1-0.1-0.1-0.1c0,0,0.1,0.1,0,0.1
			c-0.3-0.2-0.5-0.5-0.7-0.7c0-0.1-0.1-0.1-0.1-0.2c-0.1-0.1-0.2-0.2-0.2-0.4l0,0c-0.2-0.3-0.3-0.7-0.4-1.1c-0.1-0.4,0-1-0.6-1.1
			c0.3-0.4-0.2-0.8-0.1-1.2c-0.4-0.1,0-0.3-0.1-0.5c-0.1-0.2-0.3-0.3-0.3-0.6c0.4-0.3,0-0.3-0.1-0.6c-0.1-0.3,0.1-0.4-0.1-0.8
			c0.3-0.1,0.2-0.5,0.5-0.6c-0.2,0.1,0.1-0.9,0.1-0.9c0,0-0.1,0-0.1,0c0-0.1,0-0.2,0-0.2c0,0,0,0,0,0c0,0,0.1-0.3,0.1-0.3
			c0,0,0,0,0,0c0,0,0,0,0,0c0,0,0,0,0,0c0,0,0,0,0,0l0,0c0,0,0,0,0,0c0,0,0-0.1,0-0.1l0,0c0,0,0-0.1,0-0.1c0,0,0,0.1,0,0.1
			c0.1-0.4,0.2-0.7,0.3-1.1c0.1-0.1,0.1-0.2,0.2-0.2c0.1-0.2,0.2-0.3,0.3-0.5l0,0c0.3-0.4,0.6-0.9,0.9-1.3c0.1-0.1,0.2-0.2,0.3-0.3
			c-0.1,0.1,0-0.1,0-0.1l0.1-0.1c0,0,0,0,0-0.1c0.1-0.1,0.3-0.3,0.5-0.5l0,0c0,0,0.1-0.1,0.1-0.1c0.1,0,0.2-0.1,0.3-0.1l0.1,0
			c0,0,0,0.1-0.1,0.1c0.1-0.1,0.3-0.1,0.4-0.1c-0.1,0-0.1,0-0.1,0c0,0,0.1,0,0.1,0c0.1,0,0.5,0,0.8-0.3c0.4-0.5,0.2-0.4,0.4-0.4
			c0.2-0.1,0.4,0.1,0.8,0c0.3-0.1,0.4-0.1,0.6,0L32.8,9c0,0,0.4,0,0.4,0C33.5,9.1,34,9,34.3,9c-0.1,0-0.3,0-0.5,0l0.1,0
			c0,0,0,0,0.1,0c0,0,0.1,0,0.1,0c0.1,0,0.1,0,0.1,0c0,0,0,0,0,0c0.1,0,0,0,0.1,0c0,0,0,0,0,0c0,0,0.1,0,0.1,0c0,0,0.1,0,0.1-0.1
			l0.1,0c0,0,0,0,0,0c0.1,0,0.1,0,0.2,0c0,0,0,0,0,0C34.9,9,35,9.1,35,9.1c0,0,0,0,0,0l0,0h0c0,0,0.1,0,0.1,0c0,0,0,0,0,0l0,0
			c0,0,0-0.1-0.1-0.1c0.1,0,0.2,0.1,0.2,0.1l0,0c0,0,0,0,0,0c0,0,0,0,0,0c0,0,0,0,0,0c0,0,0.3,0.2,0.4,0.1c0,0-0.1-0.1-0.2-0.1
			c0,0,0,0,0,0c0,0,0.2,0.1,0.2,0.1c0,0,0,0,0.1,0c0,0,0,0,0,0l0,0c0,0,0,0,0,0c0,0,0.1,0,0.1,0l0,0c0,0,0.1,0,0.1,0
			c0,0-0.1,0-0.1,0c0.2,0.1,0.4,0.1,0.8,0.3c0.1,0,0.2,0.1,0.3,0.1c0.1,0,0.1,0.1,0.2,0.1c0.2,0.1,0.3,0.2,0.5,0.2l0,0
			c0.5,0.2,0.8,0.4,1.1,0.7c0.1,0.1,0.2,0.2,0.3,0.3c-0.1-0.1,0.1,0,0.1,0l0.1,0.1c0,0,0,0,0.1,0c0.1,0.1,0.3,0.3,0.5,0.4l0,0
			c0,0,0.1,0.1,0.1,0c0,0.1,0.2,0.2,0.2,0.2l0.1,0c-0.1,0-0.1,0-0.1,0c0.1,0.1,0.2,0.2,0.3,0.4c0,0,0,0-0.1-0.1l0.1,0.1
			c0.3,0.2,0.5,0.7,0.6,1c0.1,0.5,0.1,1,0.2,1.5c0,0.1,0,0.1,0,0.2c0,0,0.1,0.3,0.1,0.3c-0.1,0.2-0.2,0.6-0.3,0.9
			c0.1-0.2,0.1-0.3,0.2-0.5l0,0c0,0,0,0,0,0.1c0,0-0.1,0.1-0.1,0.1c0,0.1,0,0.1,0,0.1c0,0,0,0,0,0c0,0.1,0,0,0,0.1c0,0,0,0,0,0
			c0,0,0,0.1,0,0.1c0.1,0,0,0.1,0,0.1l0,0.1c0,0,0,0,0,0c0,0.1,0,0.1-0.1,0.2c0,0,0,0,0,0c0,0.1-0.1,0.2-0.1,0.2l0,0c0,0,0,0,0,0
			l0,0l0,0c0,0,0,0.1-0.1,0.1c0,0,0,0,0,0l0,0c0,0,0.1-0.1,0.1-0.1c-0.1,0.1-0.1,0.2-0.1,0.2v0c0,0,0,0,0,0c0,0,0,0,0,0c0,0,0,0,0,0
			c0,0-0.2,0.3-0.2,0.3c0,0,0,0,0,0c0,0,0,0,0,0.1c0,0,0,0,0,0l0,0c0,0,0,0,0,0c0,0-0.1,0.1-0.1,0.1l0,0c0,0-0.1,0.1-0.1,0.1
			c0,0,0.1-0.1,0.1,0c0.1,0.6-1.1,0.9-1.5,1.1c-0.2,0.1-0.4,0.4-0.6,0.5c-0.4,0.2-0.5,0.1-0.9,0.1c-0.6,0.1-1,0.4-1.6,0.3
			c-0.1,0-1.1-0.2-1.1-0.2c0,0,0,0,0,0c-0.4-0.2-0.7-0.4-1.1-0.6c-0.1-0.1-0.2-0.1-0.3-0.2c0.1,0-0.1,0-0.1,0l-0.1-0.1
			c0,0,0,0-0.1,0c-0.2-0.1-0.4-0.1-0.5-0.2l0,0c0,0-0.1,0-0.1,0c-0.1,0-0.2-0.1-0.2-0.2l-0.1,0c0.1,0,0.1,0,0.1,0
			c-0.1-0.1-0.2-0.2-0.2-0.3c0.1,0,0,0,0.1,0.1l-0.1-0.1c0,0-0.1-0.1-0.2-0.2c0,0,0,0,0-0.1c0-0.2,0-0.5-0.1-0.6
			c0-0.1,0-0.3-0.2-0.4c-0.1-0.1-0.1-0.1-0.2-0.2c-0.1-0.1-0.1-0.3-0.1-0.5c0,0,0-0.1,0.1-0.2c0,0,0.1-0.3,0-0.3
			c0.2-0.2,0.3-0.6,0.4-0.9c0,0-0.1,0.4-0.1,0.4c0.1-0.4,0-0.7,0.3-1.1c0.6-0.6,1.4-0.9,2.2-0.9c0.7,0,1.3,0.2,1.9,0.5
			C36,13.9,36,14,35.9,14.1c0.9,0.2,1.1,1.3,0.6,1.9c0,0-0.1,0.1-0.1,0.1c0.1-0.1,0.1-0.1,0.1-0.1c-0.2,0.1-0.5,0.4-0.6,0.7
			c0-0.1,0-0.1,0-0.1c0,0,0,0.1,0,0.1c0,0.1-0.1,0.3-0.1,0.6c0,0.1,0.1,0.3,0.3,0.4c0.2,0,0.3,0,0.5,0c0.4-0.1,0.7-0.2,1-0.2
			c0.3,0,1.1-0.3,1.1-0.9c0-0.4,0.2-0.6,0.3-0.9c0.3-0.5,0.3-0.9,0.2-1.5c0-1-0.2-1.3-0.9-2c0,0,0,0.1,0.1,0.2
			c-0.1-0.1-0.7-0.8-0.9-0.6c0,0-0.1,0-0.1,0c0,0,0,0,0,0l-0.1,0c0,0,0,0,0,0c-0.1,0-0.1,0-0.2-0.1h0c0,0-0.1,0-0.1,0
			c0,0,0.1,0.1,0.1,0.1c-0.5-0.2-0.7-0.4-1-0.7c0,0-0.1-0.1-0.1-0.1c-0.1-0.1-0.2-0.2-0.3-0.2l0,0c-0.4-0.2-0.7-0.2-1.1-0.3
			c-0.1,0-0.2,0-0.3-0.1c0.1,0-0.1,0-0.1,0l-0.1,0c0,0,0,0,0,0c-0.2,0-0.3,0-0.5,0l0,0c0,0-0.1,0-0.1,0c-0.1,0-0.2,0-0.3,0l-0.1,0
			c0.1,0,0.1,0,0.1-0.1c-0.1,0-0.3,0-0.4,0c0.1,0,0.1,0,0.1,0l-0.1,0c-0.6,0.2-1.2,0.3-1.7,0.6c-0.3,0.1-0.6,0.3-0.8,0.4
			c-0.2,0.2-0.4,0.4-0.5,0.6c-0.2,0.2-0.5,0.4-0.6,0.5c0,0,0,0-0.1,0.1c0,0,0,0,0,0l0,0c0,0,0.1,0,0.1,0c0,0-0.1,0.1-0.1,0.1l0,0
			l0,0c0,0,0,0,0,0c0,0,0,0,0,0c0,0-0.2,0.2-0.2,0.3c0,0,0.1-0.1,0.1-0.1c0,0,0,0,0,0c0,0-0.1,0.1-0.1,0.1c0,0,0,0,0,0c0,0,0,0,0,0
			l0,0c0,0,0,0,0,0c0,0,0,0.1,0,0.1l0,0c0,0,0,0.1,0,0.1c0,0,0,0,0,0c-0.2,0.4-0.5,0.9-0.6,1.4c-0.1,0.1-0.1,0.2-0.2,0.3
			c-0.1,0.3-0.2,0.6-0.3,0.9l0,0c-0.3,0.8-0.3,1.7,0,2.5c0,0.2,0.1,0.4,0.2,0.7c-0.1-0.1,0.1,0.1,0.1,0.1c0,0.1,0.1,0.2,0.1,0.3
			c0,0,0,0,0.1,0.1c0.2,0.3,0.3,0.6,0.5,0.9l0,0c0,0.1,0.1,0.2,0.1,0.1c0.1,0.1,0.2,0.4,0.2,0.5l0.1,0.1c-0.1-0.1-0.1-0.1-0.1-0.1
			c0.1,0.2,0.3,0.5,0.4,0.7c-0.1-0.1-0.1-0.1-0.2-0.2l0.1,0.2c0.3,0.4,1.4,1.2,1.8,1.4c0.8,0.4,1.5,0.7,2.3,1c0.1,0,0.2,0.1,0.4,0.1
			c0,0,0.6,0.1,0.7,0c0.4,0.2,1.2,0.2,1.8,0.1c-0.1,0-0.2,0-0.4,0c0.1,0,0.1,0,0.2,0c0,0,0,0,0,0c0.1,0,0.1,0,0.2,0
			c0.1,0,0.1,0,0.1,0c0.1,0,0.1,0,0.2,0c-0.1,0,0.2-0.1,0.1-0.1l0.1,0c-0.1,0,0,0,0,0c0.1,0,0.2-0.1,0.4-0.1c0,0,0,0,0.1,0
			c0.1-0.1,0.4-0.1,0.4-0.1l0,0c0,0,0,0,0,0v0l0,0c0.1,0,0.1,0,0.2-0.1c0,0-0.1,0-0.1,0l0,0c-0.1,0-0.1,0-0.1,0
			c0.1,0,0.3-0.1,0.4-0.2l0,0c0,0,0,0,0,0c0,0,0,0,0,0c0,0,0,0,0,0c0,0,0,0,0.1,0c0,0,0.6-0.3,0.6-0.3c0.1,0-0.2,0.1-0.4,0.2
			c0,0,0,0,0.1,0c0,0,0.4-0.1,0.4-0.2c0,0,0.1,0,0.1-0.1c0,0,0,0,0,0l0.1,0c0,0,0,0,0,0c0,0,0.2-0.1,0.2-0.1l0,0
			c0.1,0,0.1-0.1,0.2-0.1c0,0-0.1,0.1-0.1,0.1c0.6-0.3,1.1-0.7,1.6-1.1c0.1-0.1,0.2-0.1,0.3-0.2c0.2-0.3,0.4-0.4,0.6-0.6l0,0
			c0.5-0.6,0.8-1.4,1.1-2c0.1-0.2,0.2-0.4,0.3-0.6c-0.1,0.1,0-0.1,0-0.1c0-0.1,0.1-0.2,0.1-0.3c0,0,0-0.1,0-0.1
			c0.1-0.3,0.1-0.7,0.1-1l0,0c0-0.1,0-0.2,0-0.2c0-0.1,0-0.4,0.1-0.5l0-0.1c0,0.1,0,0.1,0,0.2c0-0.2,0-0.5,0.1-0.8
			c0,0.1,0,0.1,0,0.2l0-0.2c0-0.2,0-0.4,0-0.7c0.5-0.4,0.9-0.6,1.5-0.7c0.9,0,2.1,0.1,2.8,0.5c0.8,0.4,1.5,1.2,2,1.9
			c0.6,0.8,0.9,1.7,0.8,2.4c-0.2,1.4-0.7,1.8-1.4,2.4c-0.6,0.6-0.2,1.3,0.5,1.3c0.4,0,0.9-0.3,1.4-1.1c0.2-0.3,1.1-0.9,1,0.5
			c-0.1,1.5-0.3,1.4-0.3,2.3c-0.1,1.2,1.5,2,2-0.6c0.1-0.8,0.2-1.7,0.5-1.8c0.5-0.1,0.9,2.7,1.7,2.7c1.8,0.1,0.8-2.3,0.4-3.1
			c-0.7-1.3,0-1.2,0.5-0.5C57.8,22,58.6,20.6,58,19.6z M26.5,14.4C26.5,14.4,26.5,14.4,26.5,14.4c0,0,0-0.1,0.1-0.2
			C26.5,14.3,26.5,14.4,26.5,14.4z M26.6,14C26.5,14,26.5,14,26.6,14C26.5,14,26.5,14,26.6,14C26.5,14,26.6,14,26.6,14z M36.8,7.3
			C36.8,7.3,36.8,7.3,36.8,7.3C36.8,7.1,36.9,7,36.8,7.3z M37.3,11.6C37.3,11.6,37.3,11.6,37.3,11.6C37.3,11.6,37.3,11.6,37.3,11.6
			C37.3,11.6,37.2,11.6,37.3,11.6z M35.7,24C35.7,24,35.7,24,35.7,24c0.1,0,0.2,0,0.2,0C35.8,24,35.7,24,35.7,24z"/>
		<path class="st5" d="M36,16.6C36,16.5,36,16.5,36,16.6C36,16.5,36,16.5,36,16.6z"/>
		<path class="st5" d="M36,16.5c0,0,0-0.1,0-0.1C36,16.5,36,16.5,36,16.5z"/>
	</g>
</g>
</svg>
