<?xml version="1.0" encoding="UTF-8"?>
<svg xmlns="http://www.w3.org/2000/svg" version="1.1" xmlns:xlink="http://www.w3.org/1999/xlink" viewBox="0 0 600 600">
  <defs>
    <style>
      .cls-1 {
        fill: #fff;
      }

      .cls-2 {
        opacity: .2;
      }

      .cls-3 {
        fill: none;
      }

      .cls-4 {
        fill: #333;
      }

      .cls-5 {
        fill: #e8e8ed;
      }

      .cls-6 {
        clip-path: url(#clippath);
      }

      .cls-7 {
        fill: #263456;
      }

      .cls-8 {
        opacity: .5;
      }

      .cls-9 {
        fill: #28386b;
      }
    </style>
    <clipPath id="clippath">
      <rect class="cls-3" width="600" height="600"/>
    </clipPath>
  </defs>
  <!-- Generator: Adobe Illustrator 28.6.0, SVG Export Plug-In . SVG Version: 1.2.0 Build 709)  -->
  <g>
    <g id="_레이어_1">
      <g class="cls-6">
        <g>
          <rect class="cls-3" width="600" height="800"/>
          <path id="Highlight_1F_Experience" class="cls-7" d="M449.6,712.2l28.1-89.1h0l83.6-263.7c9.7-26.2,15-54.2,15-83.4,0-141.4-107-256.1-276.9-256.1S22.6,134.6,22.6,276s5.9,60.3,16.7,87.7l80.9,258.1h0l28.1,93.1c2.3,7.3,3.6,15.1,3.6,23.1,0,0,0,13.3-3.7,23.6-1.6,4.3-4.9,12.4-9,18.3h321.3c-2.6-3.5-5.8-8.7-8.4-14.9-1.3-3-2.5-6.3-3.4-9.6h0c-1.5-5-2.6-13.1-2.6-19.1,0-14.4,3.3-23.1,3.7-24.2h-.2Z"/>
          <polygon id="Fill_Secret_Researcher" class="cls-1" points="203.1 555.9 203.1 304.4 161.2 304.4 161.2 268.4 126.2 268.4 126.2 279.8 88 279.8 84.8 283.6 39.2 283.6 39.2 333.5 44.4 333.5 44.4 357 54.1 387.3 60.5 407.5 60.6 407.7 60.7 408.1 87 490.5 95.4 516.7 95.4 516.7 96.5 520.2 97.6 523.7 98 524.8 98.1 525.2 98.2 525.6 99 528.1 99.1 528.2 99.1 528.4 99.4 529.3 100.6 532.9 100.9 534 100.9 534 101.9 537.1 102.3 537.2 157.6 537.1 157.6 555.9 157.8 555.9 203.1 555.9"/>
          <polygon id="Fill_Digilog_Entrance" class="cls-1" points="196.2 221.3 201.6 221.3 201.6 209.5 164.4 209.5 164.4 216.7 164.4 221.3 164.4 301.2 196.2 301.2 196.2 221.3"/>
          <path id="Fill_Marine_Institute" class="cls-1" d="M88,276.6l-16,.8-13.3-6.6h0c-10.4-4.2-17.8-14.1-17.8-25.7s7.3-21.5,17.7-25.7h0l13.3-6.6h0l3.3-1.5-20.5-20.6c5.2-48.2,42.5-66.5,53.1-70.8l2.9-1v-23l46.1-31.9h43v45.7h-9.7v96.6h-29v59.2h-38.2v11.1h-35,0Z"/>
          <rect class="cls-5" x="158.4" y="552.2" width="19.1" height="1.1"/>
          <rect class="cls-5" x="152.7" y="466.7" width="50.4" height="1.1"/>
          <rect class="cls-5" x="152.7" y="453.1" width="50.4" height="1.1"/>
          <rect class="cls-5" x="176.4" y="442.8" width="1.1" height="37.7"/>
          <rect class="cls-5" x="190.1" y="442.8" width="1.1" height="37.7"/>
          <rect class="cls-5" x="164.4" y="442.8" width="1.1" height="37.7"/>
          <polygon class="cls-5" points="61.7 387.3 61.7 411.1 60.6 407.7 60.6 387.3 61.7 387.3"/>
          <polygon class="cls-5" points="60.6 425.9 60.6 425.9 60.6 425.8 60.6 425.9"/>
          <rect class="cls-5" x="195.1" y="220.2" width="4.9" height="1.1"/>
          <rect class="cls-5" x="116.2" y="216.7" width="1.1" height="6.4"/>
          <rect class="cls-5" x="107.9" y="216.7" width="1.1" height="6.4"/>
          <rect class="cls-5" x="192.5" y="395.8" width="10.7" height="1.1"/>
          <rect class="cls-5" x="152.5" y="150.2" width="1.1" height="56.2"/>
          <rect class="cls-5" x="90.5" y="279.8" width="1.1" height="17"/>
          <rect class="cls-5" x="88" y="296.6" width="3.6" height="1.1"/>
          <rect class="cls-5" x="148.6" y="176.6" width="4.9" height="1.1"/>
          <rect class="cls-5" x="90.5" y="321.9" width="1.1" height="16.9"/>
          <rect class="cls-5" x="88" y="321.2" width="3.6" height="1.1"/>
          <polygon class="cls-5" points="158.5 552.7 158.4 552.2 158.2 551.7 158.7 551.5 177.8 544.8 179.4 544.2 199.4 537.1 201 537.1 201.2 537.6 201 537.7 181 544.8 179.4 545.4 160 552.2 158.7 552.7 158.5 552.7"/>
          <polygon class="cls-5" points="200.8 553.3 179.4 545.4 177.8 544.8 158.7 537.7 158.5 537.6 158.7 537.1 160.3 537.1 179.4 544.2 181 544.8 201 552.2 201.2 552.3 201 552.8 200.8 553.3"/>
          <path class="cls-5" d="M189.2,145.9h-39.5v-31.9h39.5v31.9M190.3,147v-34.1h-41.6v34.1h41.6,0Z"/>
          <path class="cls-5" d="M148.5,479.4h-52v-35.5h52v35.5M149.6,480.5v-37.7h-54.2v37.7h54.2Z"/>
          <path class="cls-5" d="M202,438.6h-8.5v-53.7h8.5v53.7M203.1,439.7v-55.9h-10.7v55.9h10.7Z"/>
          <path class="cls-5" d="M161.2,532.9h-59.5v-.3c0,0-1.4-4.1-1.4-4.1l-.2-.6-.4-1.2-.5-1.7h0v-.2l-.5-1.5-1.1-3.5-1-3.3v-31.8h64.8v48.1M162.3,534v-50.3h-66.9v33.1l1.1,3.4,1.1,3.5.5,1.5h0l.6,1.8.4,1.2.2.6,1.3,4.1.4,1.1h61.4,0Z"/>
          <path class="cls-5" d="M202,532.9h-35.5v-48.1h35.5v48.1M203.1,534v-50.3h-37.6v50.3h37.6Z"/>
          <path class="cls-5" d="M202,554.8h-43.4v-16.6h43.4v16.6M203.1,555.9v-18.8h-45.5v18.8h45.5Z"/>
          <path class="cls-5" d="M83.8,332.4h-43.5v-47.7h43.5v47.7M84.9,333.5v-49.9h-45.6v49.9h45.6Z"/>
          <path class="cls-5" d="M90.9,383.4h-36.9l-7.4-23.3-1-3.3v-19.1h38.3v5.6h7.1v40M91.9,384.5v-42.2h-7.1v-5.6h-40.5v20.3l1.1,3.4,7.7,24.1h38.8Z"/>
          <path class="cls-5" d="M137.4,387.2c0,15-5.3,28.9-14.5,38.1l-.2.2-.2.2-.3.3v12.6h-25.8v-95.2h25.8v5.2l.3.3.2.2.2.2c9.2,9.2,14.5,23.1,14.5,38.1M138.5,387.2c0-15.8-5.8-29.8-14.8-38.8,0-.1-.2-.2-.4-.4v-5.7h-28v1.4h0v92.6h0v3.4h28v-13.2c0-.1.2-.2.4-.4,9-9,14.8-23.1,14.8-38.8h0Z"/>
          <path class="cls-5" d="M148.5,438.6h-21.2v-10c9.6-10.4,15.1-25.4,15.1-41.2s-5.5-30.8-15.1-41.2v-41h21.2v133.4M149.6,439.7v-135.6h-23.4v42.6c9.3,9.8,15.1,24.4,15.1,40.8s-5.9,31-15.1,40.8v11.5h23.4Z"/>
          <path class="cls-5" d="M202,379.5h-13.8v59.1h-34.4v-95.2h48.2v36.2M203.1,380.6v-38.3h-50.4v97.4h36.6v-59.1h13.8,0Z"/>
          <path class="cls-5" d="M202,338h-48.2v-32.6h48.2v32.6M203.1,339.1v-34.8h-50.4v34.8h50.4Z"/>
          <path class="cls-5" d="M106.9,206.5c-.7.7-2.6,2.3-5.7,4.3-3.6,2.2-9.5,5.3-17.6,7.4l-.7-.7-26.9-27.1c5.1-45,38.5-63.4,50.9-68.7v84.9M108,207v-87c-10.7,4.3-47.9,22.6-53.1,70.8l27.3,27.5,1.1,1.1c16.7-4,24.7-12.4,24.7-12.4h0Z"/>
          <path class="cls-5" d="M202,479.4h-48.2v-35.5h48.2v35.5M203.1,480.5v-37.7h-50.4v37.7h50.4Z"/>
          <path class="cls-5" d="M200.5,220.3h-5.4v79.8h-29.6v-89.5h35.1v9.7M201.6,221.3v-11.8h-37.2v91.7h31.8v-79.8h5.4Z"/>
          <path class="cls-5" d="M83.8,263.8l-2.2,2.3-.5.5-4.5,4.7-4.7,4.8-12.5-6.2h0c-10.4-4.2-17.1-13.9-17.1-24.7s6.7-20.5,17.1-24.7h0l12.6-6.2,4.7,4.8,5.1,5.2,2.2,2.3h0v37.3h0M84.8,264.3v-38.3l-2.5-2.6-5.1-5.2-5.2-5.4-13.3,6.6h0c-10.4,4.2-17.7,14.1-17.7,25.7s7.3,21.5,17.8,25.7h0l13.3,6.6,5.2-5.4,4.5-4.7.5-.5,2.5-2.6h0Z"/>
          <path class="cls-5" d="M198.9,108.7h-54.5v102h15.8v11.5h-71.1c4.4-1.3,11.9-4.1,17.9-9.1.5-.4.9-.8,1.4-1.2s.9-.9,1.3-1.3c.3-.3.6-.6.8-.9h0c.2-.4.5-.7.7-1.1.2-.3.3-.6.3-.6v-.2c0,0,0-.3,0-.3v-96.4h0v-14.3l45.3-31.4h41.6v43.6M199.9,109.7v-45.7h-43l-46.1,31.9h0v13.8h0v97.5s0,.2-.3.5c-.2.2-.4.6-.6.9,0,0,0,.1-.2.2-.3.3-.5.6-.8.9-.4.4-.8.9-1.3,1.3-.4.4-.9.8-1.3,1.2-6.2,5.2-13.8,7.8-18.3,9v2h73.2v-13.6h-15.8v-99.8h54.5Z"/>
          <path class="cls-5" d="M160.1,264.5h-32.9v-37.1h32.9v37.1M161.2,265.6v-39.3h-35v39.2h35Z"/>
          <path class="cls-5" d="M122,275.6h-32.9v-48.2h32.9v48.2M123,276.6v-50.3h-35v50.3h35Z"/>
          <path class="cls-5" d="M160.1,300.1h-32.9v-30.6h32.9v30.6M161.2,301.2v-32.8h-35v32.8h35Z"/>
          <path class="cls-5" d="M122,337.7h-32.9v-56.9h32.9v56.9M123,338.8v-59h-35v59.1h35Z"/>
          <path class="cls-5" d="M189.2,205.3h-39.5v-54h39.4v54M190.3,206.4v-56.2h-41.6v56.2h41.6,0Z"/>
          <path class="cls-5" d="M90.9,489.4h-3.1l-3-9.3-22.2-69.4-1.1-3.4-3.3-10.3-2.8-8.6h35.3v101M91.9,490.5v-10h0v-93.2h-37.9l3.2,10,3.3,10.3,1.1,3.4,22.2,69.4,3.2,10h4.9Z"/>
          <g>
            <g id="Chair">
              <path class="cls-9" d="M311.2,501.5v2.6h-5.1v-2.6c0-1.4,1.1-2.6,2.6-2.6h0c1.4,0,2.6,1.1,2.6,2.6h-.1Z"/>
              <path class="cls-9" d="M294.9,501.5v2.6h-5.1v-2.6c0-1.4,1.1-2.6,2.6-2.6h0c1.4,0,2.6,1.1,2.6,2.6h-.1Z"/>
            </g>
            <g id="Desk">
              <path class="cls-9" d="M265.8,503.5c0-1.1.4-2.3,1.3-3.1,8.9-8.9,20.8-13.8,33.4-13.8s24.4,4.9,33.3,13.8,1.7,4.5,0,6.2-4.5,1.7-6.2,0c-7.2-7.2-16.9-11.2-27.1-11.2s-19.9,4-27.1,11.2-4.5,1.7-6.2,0-1.3-2-1.3-3.1h0Z"/>
            </g>
            <g id="_체험그릇_Bottom">
              <polygon class="cls-9" points="500.4 533.5 400 533.5 400 431.7 532.5 431.7 500.4 533.5"/>
              <polygon class="cls-9" points="533.9 428.5 405 428.5 405 425 534.6 425 533.9 428.5"/>
              <rect class="cls-9" x="400" y="599.1" width="10" height="32.7"/>
              <rect class="cls-9" x="400" y="536.7" width="41.3" height="15.6"/>
              <rect class="cls-9" x="427.1" y="577.5" width="14.1" height="18.3"/>
              <polygon class="cls-9" points="537.9 414.5 537.9 347.6 539 349 553 366.7 539 411 537.9 414.5"/>
              <polygon class="cls-9" points="409.1 304 409.1 233.1 409.1 233.1 409.1 150.7 409.1 144.3 404.2 144.3 404.2 126.1 409.1 126 409.1 119.6 404.2 119.6 404.2 112.9 409.1 112.9 409.1 89.9 394.1 89.9 394.1 111.4 394.1 112.9 394.1 119.6 394.1 126.1 394.1 144.3 394.1 150.7 394.1 233.1 397.9 233.1 402.4 233.1 402.4 304 409.1 304"/>
              <path class="cls-9" d="M163,60.9c39.2-19.4,85.5-30.4,137.5-30.4s99.2,11,138.4,30.4H163Z"/>
              <polygon class="cls-9" points="406.1 428.5 347.6 428.5 347.6 425 406.1 425 406.1 428.5"/>
              <rect class="cls-9" x="389.8" y="431.7" width="7" height="67.1"/>
              <rect class="cls-9" x="206.2" y="425.2" width="42.5" height="3.8"/>
            </g>
            <rect class="cls-9" x="176.2" y="575.9" width="26.9" height="22"/>
            <polygon class="cls-9" points="154.4 597.8 121.3 597.8 121 596.7 120.4 595.1 101.9 537.1 154.4 537.1 154.4 597.8"/>
            <polygon class="cls-9" points="480.9 595.9 444.2 595.9 444.2 537 499.4 536.9 495.7 548.8 495.4 549.9 480.9 595.9"/>
            <polygon class="cls-9" points="469.6 631.7 413.3 631.7 413.3 599.1 479.9 599.1 469.9 630.6 469.6 631.7 469.6 631.7"/>
            <rect class="cls-9" x="400.1" y="577.5" width="24" height="18.3"/>
            <path class="cls-9" d="M334.1,503.5h0c0,.9-.3,1.7-1,2.4-1.3,1.3-3.4,1.3-4.7,0-7.5-7.4-17.3-11.5-27.9-11.5s-20.5,4.1-27.9,11.6-1.5,1-2.4,1-1.7-.3-2.4-1-1-1.5-1-2.4.3-1.7,1-2.4c8.7-8.7,20.3-13.5,32.6-13.5s23.9,4.8,32.6,13.5,1,1.5,1,2.4M335.2,503.5c0-1.1-.4-2.3-1.3-3.1-8.9-8.9-20.8-13.8-33.3-13.8s-24.5,4.9-33.4,13.8-1.3,2-1.3,3.1.4,2.3,1.3,3.1c1.7,1.7,4.5,1.7,6.2,0,7.2-7.2,16.9-11.2,27.1-11.2s19.9,4,27.1,11.2,4.5,1.7,6.2,0,1.3-2,1.3-3.1h0Z"/>
            <path class="cls-9" d="M310.1,502.9h-3v-1.5c0-.8.7-1.5,1.5-1.5s1.5.7,1.5,1.5v1.5M311.2,504v-2.6c0-1.4-1.1-2.6-2.6-2.6s-2.6,1.1-2.6,2.6v2.6h5.2Z"/>
            <path class="cls-9" d="M293.9,502.9h-3v-1.5c0-.8.7-1.5,1.5-1.5s1.5.7,1.5,1.5v1.5M294.9,504v-2.6c0-1.4-1.1-2.6-2.6-2.6s-2.6,1.1-2.6,2.6v2.6h5.2Z"/>
            <g id="Chair-2" class="cls-8">
              <path class="cls-9" d="M311.2,501.5v2.6h-5.1v-2.6c0-1.4,1.1-2.6,2.6-2.6h0c1.4,0,2.6,1.1,2.6,2.6h-.1Z"/>
              <path class="cls-9" d="M294.9,501.5v2.6h-5.1v-2.6c0-1.4,1.1-2.6,2.6-2.6h0c1.4,0,2.6,1.1,2.6,2.6h-.1Z"/>
            </g>
            <g id="Desk-2" class="cls-8">
              <path class="cls-9" d="M265.8,503.5c0-1.1.4-2.3,1.3-3.1,8.9-8.9,20.8-13.8,33.4-13.8s24.4,4.9,33.3,13.8,1.7,4.5,0,6.2-4.5,1.7-6.2,0c-7.2-7.2-16.9-11.2-27.1-11.2s-19.9,4-27.1,11.2-4.5,1.7-6.2,0-1.3-2-1.3-3.1h0Z"/>
            </g>
            <rect class="cls-9" x="365.2" y="237.4" width="33" height="66.3"/>
            <polygon class="cls-9" points="298.2 586.6 235.6 586.6 235.6 629 235.6 640.3 235.6 652.5 298.2 652.5 298.2 586.6"/>
            <polygon class="cls-9" points="298.2 515.1 235.6 515.1 235.6 572.1 235.6 583.4 298.2 583.4 298.2 515.1"/>
            <polygon class="cls-9" points="363.7 640.3 363.7 629 363.7 515.1 300.3 515.1 300.3 652.5 363.7 652.5 363.7 640.3"/>
            <rect id="Fill_Jumping_Touch" class="cls-9" x="206.3" y="274" width="32.1" height="128.7"/>
            <rect id="Fill_Digital_Climbing" class="cls-9" x="203.3" y="64" width="35.2" height="157.3"/>
            <path id="Fill_Dunk_Shoot" class="cls-9" d="M330.1,113.6v30.7h-61.1v-30.7c0-16.9,13.7-30.5,30.5-30.5h0c16.9,0,30.5,13.7,30.5,30.5h.1Z"/>
            <path id="Fill_Pose_Challenge" class="cls-9" d="M330.1,179.7v34.2h-61.1v-34.2c0-3.1,2.5-5.6,5.6-5.6h49.8c3.1,0,5.6,2.5,5.6,5.6h.1Z"/>
            <rect id="Fill_Push_Up" class="cls-9" x="300.8" y="216.2" width="29.4" height="78.4"/>
            <rect id="Fill_Gold_Bug" class="cls-9" x="269" y="216.2" width="29.4" height="78.4"/>
            <rect id="Fill_Musician" class="cls-9" x="360.5" y="138.8" width="30.6" height="94.4"/>
            <circle id="Fill_Moa_Sports" class="cls-9" cx="298.9" cy="357.1" r="43.3"/>
            <path id="Fill_Shortest_Path" class="cls-9" d="M409.2,364.1v60.9h-30.5c-16.8,0-30.5-13.7-30.5-30.5v-.3c0-16.6,13.5-30.1,30.1-30.1h30.9Z"/>
            <path id="Fill_Library" class="cls-9" d="M531.6,269.5c0-30.5-24.8-55.3-55.3-55.3s-55.3,24.8-55.3,55.3,24.8,55.3,55.3,55.3,55.3-24.8,55.3-55.3h0Z"/>
            <path id="Fill_Share_Wall" class="cls-9" d="M539.7,343h0l-8.9-12v-7.1h0v-2.5h2.4c6.8-7.3,12.2-15.9,15.7-25.4,3.3-8.3,5.1-17.3,5.1-26.7s-.3-4.6-.7-7c-1.6-17.1-9-32.6-20.1-44.5h-2.4v-9.8l2.1-2.7,20.1-25.4c11.5,29.4,17.6,61.6,17.6,95.2s-3.6,47.2-10.2,69.2c-.4,1.3-.8,2.6-1.2,3.9,0,.4-.3.8-.4,1.2-.4,1.2-.8,2.3-1.2,3.5,0,.4-.3.8-.4,1.2-.5,1.3-.9,2.6-1.4,3.9,0,.2,0,.4-.2.6l-1.1,3.3-14.9-18.8h.1Z"/>
            <path id="Fill_Creative_Office" class="cls-9" d="M528.5,208.4c-.4,0-.8-.1-1.2-.2h-.3c-.4,0-.8-.1-1.3-.2-.5,0-.9-.2-1.4-.3-27.2-5.4-47.9-29.3-48.6-58v-2.3c.3-18.3,8.9-35.5,23-46.7h.1c.2.3.5.5.8.8,6.4,6.2,34.9,35.5,53.3,78.3h0l-22.2,28.4h-2.4l.2.2Z"/>
            <g id="Fill_Experience_Room">
              <path class="cls-9" d="M456.5,369.7c-16.3,0-29.6-13.2-29.6-29.6s6.6-21.5,16.2-26.4c2.4-1.2,4.9-2.1,7.6-2.6,7.5,4.6,16.3,7.3,25.7,7.3h.2c2,1.8,3.7,3.9,5.1,6.2,2.8,4.5,4.4,9.8,4.4,15.5,0,16.3-13.2,29.6-29.5,29.6h-.1Z"/>
              <path class="cls-9" d="M534.7,425l1-22.4-1,22.4,1.2-3.7,17.2-54.7-14-17.7-1-1.3h0l-.2-.3c-11.3,34.2-43.5,57.7-79.9,57.7s-34.2-5.7-48.8-15.7v35.5h125.5v.2Z"/>
            </g>
            <polygon class="cls-9" points="159.1 597.5 158.7 597.2 158.7 597.2 158.3 596.9 158.4 596.7 158.7 596.3 165.3 587 166 586.1 172.4 577 172.6 576.7 173.1 577 173.1 577.9 166.6 587 166 587.9 159.7 596.7 159.1 597.5"/>
            <polygon class="cls-9" points="172.6 597.1 172.4 596.7 166 587.9 165.3 587 158.7 577.9 158.3 577.3 158.7 577 158.7 577 159.1 576.7 159.4 577 166 586.1 166.6 587 173.1 595.8 173.1 596.7 172.6 597.1"/>
          </g>
          <g>
            <g>
              <path class="cls-4" d="M135.1,404.6c-.9,0-1.5-.6-1.5-1.4v-12.3c0-.8.6-1.4,1.5-1.4s1.5.6,1.5,1.4v12.3c0,.8-.6,1.4-1.5,1.4ZM126,400.9c-1.3,0-1.9-.5-1.9-1.8v-6.6c0-1.3.6-1.8,1.9-1.8h4.4c1.3,0,1.9.5,1.9,1.8v6.6c0,1.3-.6,1.8-1.9,1.8,0,0-4.4,0-4.4,0ZM129.3,398.2v-4.8h-2.1v4.8h2.1Z"/>
              <path class="cls-1" d="M135.1,390.1c.5,0,1,.3,1,.9v12.3c0,.6-.5.9-1,.9s-1-.3-1-.9v-12.3c0-.6.5-.9,1-.9M130.4,391.1c1,0,1.4.3,1.4,1.3v6.6c0,1-.3,1.3-1.4,1.3h-4.4c-1,0-1.4-.3-1.4-1.3v-6.6c0-1,.3-1.3,1.4-1.3h4.4M127,398.7h2.4c.3,0,.4,0,.4-.4v-5.1c0-.3,0-.4-.4-.4h-2.4c-.3,0-.4,0-.4.4v5.1c0,.3,0,.4.4.4M135.1,389.1c-1.2,0-2,.8-2,1.9v12.3c0,1.1.9,1.9,2,1.9s2-.8,2-1.9v-12.3c0-1.1-.9-1.9-2-1.9h0ZM130.4,390.1h-4.4c-1.6,0-2.4.8-2.4,2.3v6.6c0,1.6.8,2.3,2.4,2.3h4.4c1.6,0,2.4-.8,2.4-2.3v-6.6c0-1.6-.8-2.3-2.4-2.3h0ZM127.7,393.9h1.1v3.8h-1.1v-3.8h0Z"/>
            </g>
            <g>
              <path class="cls-4" d="M149.2,404.6c-.8,0-1.4-.5-1.4-1.3v-6.1h-.3v5.5c0,.8-.6,1.3-1.4,1.3s-1.4-.5-1.4-1.3v-2.1c-.2.2-.4.3-.7.4-.9.1-2.7.2-4.8.2h0c-1.3,0-1.9-.5-1.9-1.8v-2.9c0-1.3.6-1.8,1.9-1.8h2v-1.1h-2.7c-.7,0-1.2-.6-1.2-1.4s.5-1.4,1.2-1.4h3.8c1.3,0,1.9.5,1.9,1.8v2.9c0,1.3-.6,1.8-1.9,1.8h-2v1.2c1.2,0,2.4,0,3.3-.2h.2c.4,0,.7.1.9.4v-7.5c0-.8.6-1.3,1.4-1.3s1.4.5,1.4,1.3v3.4h.3v-3.5c0-.8.6-1.3,1.4-1.3s1.4.5,1.4,1.3v12.4c0,.8-.6,1.3-1.4,1.3v-.2Z"/>
              <path class="cls-1" d="M149.2,390.1c.5,0,.9.3.9.8v12.4c0,.5-.5.8-.9.8s-.9-.3-.9-.8v-6.6h-1.3v6c0,.5-.5.8-.9.8s-.9-.3-.9-.8v-11.6c0-.5.5-.8.9-.8s.9.3.9.8v3.9h1.3v-4c0-.5.5-.8.9-.8M142.3,391.2c1,0,1.4.3,1.4,1.3v2.9c0,1-.3,1.3-1.4,1.3h-2.1c-.3,0-.4,0-.4.4v1.5c0,.3,0,.4.4.4,1.1,0,2.5,0,3.5-.2h.1c.4,0,.7.3.7.7s-.1.9-.6,1c-.7.1-2.2.2-4.7.2s-1.4-.3-1.4-1.3h0v-2.9c0-1,.3-1.3,1.4-1.3h2.1c.3,0,.4,0,.4-.4v-1.4c0-.3,0-.4-.4-.4h-2.8c-.5,0-.7-.4-.7-.9s.2-.9.7-.9h3.8M149.2,389.1c-.7,0-1.3.3-1.6.8-.3-.4-.9-.6-1.5-.6-1,0-1.8.7-1.9,1.6-.4-.4-1-.7-1.9-.7h-3.8c-1,0-1.7.8-1.7,1.9s.7,1.9,1.7,1.9h2.2c0,.1-1.5.1-1.5.1-1.6,0-2.4.8-2.4,2.3v2.9c0,1.6.8,2.3,2.4,2.3s4,0,4.9-.2h0v1.2c0,1,.8,1.8,1.9,1.8s1-.2,1.3-.5c.3.7,1,1.1,1.8,1.1s1.9-.8,1.9-1.8v-12.4c0-1-.8-1.8-1.9-1.8h.1ZM140.8,397.7h1.5c.8,0,1.5-.2,1.9-.7v.7h-.6c-.7.1-1.7.2-2.7.2v-.2h-.1Z"/>
            </g>
            <g>
              <path class="cls-4" d="M120.1,423.8c-.9,0-1.5-.6-1.5-1.4v-12.3c0-.8.6-1.4,1.5-1.4s1.5.6,1.5,1.4v12.3c0,.4,0,.7-.4.9-.3.3-.7.4-1.2.4h0ZM111,420.1c-1.3,0-1.9-.5-1.9-1.8v-7.2c0-.8.6-1.3,1.5-1.3s1.5.6,1.5,1.3v2h2.1v-2c0-.8.6-1.3,1.5-1.3s1.5.6,1.5,1.3v7.2c0,1.3-.6,1.8-1.9,1.8h-4.4.1ZM114.2,417.4v-1.6h-2.1v1.6h2.1Z"/>
              <path class="cls-1" d="M120.1,409.3c.5,0,1,.3,1,.9v12.3h0c0,.6-.5.9-1,.9s-1-.3-1-.9v-12.3c0-.6.5-.9,1-.9M115.8,410.2c.5,0,1,.3,1,.8v7.2c0,1-.3,1.3-1.4,1.3h-4.4c-1,0-1.4-.3-1.4-1.3v-7.2c0-.6.5-.8,1-.8s1,.3,1,.8v2.5h3.1v-2.5c0-.6.5-.8,1-.8M112,417.9h2.4c.3,0,.4,0,.4-.4v-2.3h-3.1v2.3c0,.3,0,.4.4.4M120.1,408.3c-1.2,0-2,.8-2,1.9v12.3c0,1.1.9,1.9,2,1.9s2-.8,2-1.9v-12.3c0-1.1-.9-1.9-2-1.9h0ZM115.8,409.2c-1.2,0-2,.8-2,1.8v1.5h-1.1v-1.5c0-1.1-.8-1.8-2-1.8s-2,.8-2,1.8v7.2c0,1.6.8,2.3,2.4,2.3h4.4c1.6,0,2.4-.8,2.4-2.3v-7.2c0-1.1-.8-1.8-2-1.8h-.1ZM112.6,416.3h1.1v.6h-1.1v-.6h0Z"/>
            </g>
            <g>
              <path class="cls-4" d="M126.2,424.7c-1.3,0-1.9-.5-1.9-1.8v-1.5c0-1.1.4-1.6,1.3-1.8h-.2c-.7,0-1.2-.5-1.2-1.3s.5-1.3,1.2-1.3h6.8c-.3-.2-.4-.6-.4-1v-5.9c0-.8.6-1.4,1.5-1.4s1.5.6,1.5,1.4v5.9c0,.5-.3,1-.7,1.2.5.3.7.8.7,1.6v1.5c0,1.1-.4,1.6-1.3,1.8h.5c.7,0,1.2.5,1.2,1.3s-.5,1.3-1.2,1.3h-7.9,0ZM124.3,416.8c-1.3,0-1.9-.5-1.9-1.8v-3.7c0-1.3.6-1.8,1.9-1.8h4.4c1.3,0,1.9.5,1.9,1.8v3.7c0,1.3-.6,1.8-1.9,1.8,0,0-4.4,0-4.4,0ZM127.5,414.1v-2h-2.1v2h2.1Z"/>
              <path class="cls-1" d="M133.4,409.3c.5,0,1,.3,1,.9v5.9c0,.6-.5.9-1,.9s-1-.3-1-.9v-5.9c0-.6.5-.9,1-.9M128.7,409.9c1,0,1.4.3,1.4,1.3v3.7h0c0,1-.3,1.3-1.4,1.3h-4.4c-1,0-1.4-.3-1.4-1.3v-3.7c0-1,.3-1.3,1.4-1.3h4.4M125.3,414.6h2.4c.3,0,.4,0,.4-.4v-2.3c0-.3,0-.4-.4-.4h-2.4c-.3,0-.4,0-.4.4v2.3c0,.3,0,.4.4.4M133.1,417.5c1,0,1.4.3,1.4,1.3v1.5c0,1-.3,1.3-1.4,1.3h-5.9c-.3,0-.4,0-.4.4v.2c0,.3,0,.4.4.4h6.9c.5,0,.7.4.7.8s-.2.8-.7.8h-7.9c-1,0-1.4-.3-1.4-1.3v-1.5c0-1,.3-1.3,1.4-1.3h5.9c.3,0,.4,0,.4-.4v-.2c0-.3,0-.4-.4-.4h-6.6c-.5,0-.7-.4-.7-.8s.2-.8.7-.8h7.6M133.4,408.3c-1.2,0-2,.8-2,1.9v6.4h-.8c.3-.4.4-.9.4-1.6v-3.7c0-1.6-.8-2.3-2.4-2.3h-4.4c-1.6,0-2.4.8-2.4,2.3v3.7c0,1.5.7,2.3,2.1,2.3-.2.3-.3.6-.3,1,0,.6.2,1.1.6,1.4-.4.4-.5,1-.5,1.7v1.5c0,1.6.8,2.3,2.4,2.3h7.9c1,0,1.7-.8,1.7-1.8s-.3-1.2-.7-1.5c.3-.4.4-.9.4-1.6v-1.5c0-.7-.1-1.2-.4-1.6.3-.3.4-.7.4-1.2v-5.9c0-1.1-.9-1.9-2-1.9h0ZM126,412.6h1.1v1h-1.1v-1h0Z"/>
            </g>
            <g>
              <path class="cls-4" d="M140.2,422.5c-.7,0-1.2-.6-1.2-1.4s.5-1.3,1.2-1.3h2.1v-1c0-.6.3-1,.8-1.2-1.5-.7-2.4-2-2.4-3.8,0-2.8,2.1-4.4,5.6-4.4s5.6,1.6,5.6,4.4-.9,3.1-2.4,3.8c.5.2.8.7.8,1.2v1h2.1c.7,0,1.2.6,1.2,1.3s-.5,1.4-1.2,1.4h-12.2ZM147.1,419.8v-1c0-.2,0-.5.2-.7h-2c.1.2.2.4.2.7v1h1.8-.2ZM146.2,412.1c-1.1,0-2.5.3-2.5,1.7s1.4,1.7,2.5,1.7,2.5-.3,2.5-1.7-1.4-1.7-2.5-1.7Z"/>
              <path class="cls-1" d="M146.2,409.9c3.1,0,5.1,1.4,5.1,3.9s-1.9,3.9-5.1,3.9-5.1-1.4-5.1-3.9,1.9-3.9,5.1-3.9M146.2,415.9c2.1,0,3-.9,3-2.2s-.9-2.2-3-2.2-3,.9-3,2.2.9,2.2,3,2.2M148.6,417.9c.5,0,1,.3,1,.9v1.5h2.6c.5,0,.7.4.7.8s-.2.9-.7.9h-12.1c-.5,0-.7-.4-.7-.9s.2-.9.7-.9h2.6v-1.5c0-.6.5-.9,1-.9s1,.3,1,.9v1.5h2.8v-1.5c0-.6.5-.9,1-.9M146.2,408.9c-3.7,0-6.1,1.9-6.1,4.9s.7,3,2,3.9c-.2.3-.4.7-.4,1.1v.5h-1.6c-1,0-1.7.8-1.7,1.9s.7,1.9,1.7,1.9h12.1c1,0,1.7-.8,1.7-1.9s-.7-1.8-1.7-1.8h-1.6v-.5c0-.4-.1-.8-.4-1.1,1.3-.8,2-2.2,2-3.9,0-3-2.3-4.9-6.1-4.9h.1ZM146.2,414.9c-2,0-2-.9-2-1.2s0-1.2,2-1.2,2,.9,2,1.2,0,1.2-2,1.2h0ZM145.8,419.3v-.5h0c.1-.1.3-.1.4-.1h.4v.6h-.8,0Z"/>
            </g>
            <g>
              <path class="cls-4" d="M156.3,424.5c-1.3,0-1.9-.5-1.9-1.8v-1.9c0-.8.6-1.4,1.5-1.4v-1.5h-2.5c-.8,0-1.2-.6-1.2-1.3s.5-1.3,1.2-1.3h2.2c-1.6-.5-2.5-1.5-2.5-3s1.6-3.3,4.4-3.3,4.4,1.2,4.4,3.3-.7,2.3-1.9,2.8c.5,0,1,0,1.5-.1h.2c.3,0,.6.1.8.3v-5.1c0-.8.6-1.4,1.5-1.4s1.5.6,1.5,1.4v9.7c0,.8-.6,1.4-1.5,1.4s-1.4-.5-1.5-1.2h-1.7c-.7,0-1.2-.5-1.2-1.3s0-.6.2-.8h-1v1.1c0,.8-.6,1.3-1.5,1.3h0c0,.2.1.4.1.6v1h7.2c.7,0,1.2.6,1.2,1.4s-.5,1.4-1.2,1.4h-8.4v-.3ZM162.5,417.4h0ZM157.5,411.6c-.7,0-1.5.1-1.5.7s.8.7,1.5.7,1.5-.1,1.5-.7-.8-.7-1.5-.7v-.5.5Z"/>
              <path class="cls-1" d="M164,409.3c.5,0,1,.3,1,.9v9.7c0,.6-.5.9-1,.9s-1-.3-1-.9v-.3h-2.2c-.5,0-.7-.4-.7-.8s.2-.8.7-.8h2.2v-7.7c0-.6.5-.9,1-.9M157.5,409.5c2.6,0,3.9,1.1,3.9,2.8s-1.3,2.8-3.9,2.8-3.9-1.1-3.9-2.8,1.3-2.8,3.9-2.8M157.5,413.5c1.4,0,2-.4,2-1.2s-.6-1.2-2-1.2h0c-1.4,0-2,.4-2,1.2s.6,1.2,2,1.2M161.7,415.5c.4,0,.6.3.7.8,0,.4-.1.8-.6.9-.9.1-2.1.2-3.3.3v1.6c0,.5-.4.8-1,.8s-1-.2-1-.8v-1.5h-3c-1,0-.7-.4-.7-.8s.2-.8.7-.8c2.6,0,5.5,0,8.2-.4h.1M152.6,416.7h0M156,420c.5,0,1,.3,1,.9v1.1c0,.3,0,.4.4.4h7.3c.5,0,.7.4.7.9s-.2.9-.7.9h-8.4c-1,0-1.4-.3-1.4-1.3v-1.9c0-.6.5-.9,1-.9M164,408.3c-1.2,0-2,.8-2,1.9v.4c-.6-1.1-2-2-4.5-2-3.6,0-4.9,1.9-4.9,3.8s.3,1.8,1.1,2.5h-.3c-1,0-1.7.8-1.7,1.8s.7,1.8,1.7,1.8h2v.5h0c-.9.2-1.4.9-1.4,1.8v1.9c0,1.6.8,2.3,2.4,2.3h8.4c1,0,1.7-.8,1.7-1.9s-.5-1.6-1.2-1.8c.5-.3.9-.9.9-1.6v-9.7c0-1.1-.8-1.9-2-1.9h0l-.2.2ZM156.5,412.3s.3-.2,1-.2,1,.2,1,.2h0s-.3.2-1,.2-1-.2-1-.2h0ZM161.7,414.5c.1-.1.2-.3.3-.4v.5h-.3ZM158,420.7c.7-.2,1.2-.6,1.3-1.2.3.6.8,1,1.5,1h1.3c.1.3.4.6.7.8h-4.8v-.7h0Z"/>
            </g>
            <g>
              <path class="cls-4" d="M130.8,177.2c-.9,0-1.5-.6-1.5-1.4v-12.3c0-.8.6-1.4,1.5-1.4s1.5.6,1.5,1.4v12.3c0,.8-.6,1.4-1.5,1.4ZM121.7,173.5c-1.3,0-1.9-.5-1.9-1.8v-6.6c0-1.3.6-1.8,1.9-1.8h4.4c1.3,0,1.9.5,1.9,1.8v6.6c0,1.3-.6,1.8-1.9,1.8h-4.4ZM124.9,170.8v-4.8h-2.1v4.8h2.1Z"/>
              <path class="cls-1" d="M130.8,162.7c.5,0,1,.3,1,.9v12.3c0,.6-.5.9-1,.9s-1-.3-1-.9v-12.3c0-.6.5-.9,1-.9M126.1,163.7c1,0,1.4.3,1.4,1.3v6.6c0,1-.3,1.3-1.4,1.3h-4.4c-1,0-1.4-.3-1.4-1.3v-6.6c0-1,.3-1.3,1.4-1.3h4.4M122.7,171.3h2.4c.3,0,.4,0,.4-.4v-5.1h0c0-.3,0-.4-.4-.4h-2.4c-.3,0-.4,0-.4.4v5.1c0,.3,0,.4.4.4M130.8,161.7c-1.2,0-2,.8-2,1.9v12.3c0,1.1.9,1.9,2,1.9s2-.8,2-1.9v-12.3c0-1.1-.9-1.9-2-1.9h0ZM126.1,162.7h-4.4c-1.6,0-2.4.8-2.4,2.3v6.6c0,1.6.8,2.3,2.4,2.3h4.4c1.6,0,2.4-.8,2.4-2.3v-6.6c0-1.6-.8-2.3-2.4-2.3h0ZM123.4,166.5h1.1v3.8h-1.1v-3.8h0Z"/>
            </g>
            <g>
              <path class="cls-4" d="M144.9,177.2c-.8,0-1.4-.5-1.4-1.3v-6.1h-.3v5.5c0,.8-.6,1.3-1.4,1.3s-1.4-.5-1.4-1.3v-2.1c-.2.2-.4.3-.7.4-.9.1-2.7.2-4.8.2s-1.9-.5-1.9-1.8v-2.9c0-1.3.6-1.8,1.9-1.8h2v-1.1h-2.7c-.7,0-1.2-.6-1.2-1.4s.5-1.4,1.2-1.4h3.8c1.3,0,1.9.5,1.9,1.8v2.9c0,1.3-.6,1.8-1.9,1.8h-2v1.2c1.2,0,2.4,0,3.3-.2h.2c.4,0,.7.1.9.4v-7.5c0-.8.6-1.3,1.4-1.3s1.4.5,1.4,1.3v3.4h.3v-3.5c0-.8.6-1.3,1.4-1.3s1.4.5,1.4,1.3v12.4c0,.8-.6,1.3-1.4,1.3v-.2Z"/>
              <path class="cls-1" d="M144.9,162.7c.5,0,.9.3.9.8v12.4c0,.5-.5.8-.9.8s-.9-.3-.9-.8v-6.6h-1.3v6c0,.5-.5.8-.9.8s-.9-.3-.9-.8v-11.6c0-.5.5-.8.9-.8s.9.3.9.8v3.9h1.3v-4c0-.5.5-.8.9-.8M138,163.8c1,0,1.4.3,1.4,1.3v2.9c0,1-.3,1.3-1.4,1.3h-2.1c-.3,0-.4,0-.4.4v1.5c0,.3,0,.4.4.4,1.1,0,2.5,0,3.5-.2h.1c.4,0,.7.3.7.7s-.1.9-.6,1c-.7.1-2.2.2-4.7.2s-1.4-.3-1.4-1.3h0v-2.9c0-1,.3-1.3,1.4-1.3h2.1c.3,0,.4,0,.4-.4v-1.4c0-.3,0-.4-.4-.4h-2.8c-.5,0-.7-.4-.7-.9s.2-.9.7-.9h3.8M144.9,161.7c-.7,0-1.3.3-1.6.8-.3-.4-.9-.6-1.5-.6-1,0-1.8.7-1.9,1.6-.4-.4-1-.7-1.9-.7h-3.8c-1,0-1.7.8-1.7,1.9s.7,1.9,1.7,1.9h2.2c0,.1-1.5.1-1.5.1-1.6,0-2.4.8-2.4,2.3v2.9c0,1.6.8,2.3,2.4,2.3s4,0,4.9-.2h0v1.2c0,1,.8,1.8,1.9,1.8s1-.2,1.3-.5c.3.7,1,1.1,1.8,1.1s1.9-.8,1.9-1.8v-12.4c0-1-.8-1.8-1.9-1.8h.1ZM136.5,170.3h1.5c.8,0,1.5-.2,1.9-.7v.7h-.6c-.7.1-1.7.2-2.7.2v-.2h-.1Z"/>
            </g>
            <g>
              <path class="cls-4" d="M131.2,196.4c-.8,0-1.4-.5-1.4-1.3v-6h-.3v5.3c0,.7-.6,1.3-1.4,1.3s-1.4-.5-1.4-1.3v-4c-.3,1.7-1.6,2.8-3.5,2.8s-3.6-1.4-3.6-3.7.8-2.9,2.1-3.4h-1.6c-.7,0-1.2-.6-1.2-1.4s.5-1.3,1.2-1.3h1.6v-.6c0-.8.6-1.3,1.5-1.3s1.5.6,1.5,1.3v.6h1.4c.2,0,.5,0,.6.2v-.8c0-.7.6-1.3,1.4-1.3s1.4.5,1.4,1.3v3.5h.3v-3.7c0-.8.6-1.3,1.4-1.3s1.4.5,1.4,1.3v12.4c0,.8-.6,1.3-1.4,1.3h0ZM123.1,188.5c-.3,0-.5,0-.6.2-.2.2-.2.4-.2.8,0,.7.3,1,.9,1s.9-.3.9-1-.3-1-.9-1h-.1ZM124.6,186.1c1.1.4,1.8,1.3,2,2.6v-2.7c-.2.1-.4.2-.6.2h-1.4Z"/>
              <path class="cls-1" d="M131.2,181.9c.5,0,.9.3.9.8v12.4c0,.5-.5.8-.9.8s-.9-.3-.9-.8v-6.5h-1.3v5.8c0,.5-.5.8-.9.8s-.9-.3-.9-.8v-11.6c0-.5.5-.8.9-.8s.9.3.9.8v4h1.3v-4.2c0-.5.5-.8.9-.8M123.1,182c.5,0,1,.3,1,.8v1.1h1.9c.5,0,.7.4.7.8s-.2.9-.7.9h-6c-.5,0-.7-.4-.7-.9s.2-.8.7-.8h2.1v-1.1c0-.6.5-.8,1-.8M123.1,186.4c2,0,3.1,1.3,3.1,3.2s-1.1,3.2-3.1,3.2-3.1-1.3-3.1-3.2,1.1-3.2,3.1-3.2M123.1,191c.8,0,1.4-.5,1.4-1.5s-.5-1.5-1.4-1.5-1.4.5-1.4,1.5.5,1.5,1.4,1.5M131.2,180.9c-.7,0-1.3.3-1.6.8-.3-.4-.9-.6-1.5-.6-1.1,0-1.9.8-1.9,1.8h0q0,.1,0,.1h-.9c0-1.2-.8-2-2-2s-2,.8-2,1.8h0c0,.1-1.1.1-1.1.1-1,0-1.7.8-1.7,1.8s.7,1.9,1.7,1.9h0c-.7.7-1,1.7-1,2.9,0,2.5,1.6,4.2,4.1,4.2s2.3-.4,3-1.2v1.9c0,1,.8,1.8,1.9,1.8s1-.2,1.3-.5c.3.7,1,1.1,1.8,1.1s1.9-.8,1.9-1.8v-12.4c0-1-.8-1.8-1.9-1.8h0ZM123.1,190c-.2,0-.4,0-.4-.5s0-.4,0-.5h.3c.2,0,.4,0,.4.5s-.2.5-.4.5h0Z"/>
            </g>
            <g>
              <path class="cls-4" d="M140.1,197.5c-3.3,0-5.2-1.3-5.2-3.6s1.9-3.6,5.2-3.6,1.7,0,2.3.3c-.1-.2-.2-.4-.2-.7v-7.1c0-.8.6-1.4,1.5-1.4s1.5.6,1.5,1.4v.7h.9c.7,0,1.2.6,1.2,1.4s-.4,1.3-1,1.4c.6,0,1,.6,1,1.4s-.5,1.4-1.2,1.4h-.9v.9c0,.7-.5,1.3-1.3,1.4,1.2.8,1.4,1.9,1.4,2.7,0,2.3-1.9,3.6-5.2,3.6v-.2ZM140.1,192.9c-1.5,0-2.2.3-2.2,1s.7,1,2.2,1,2.2-.3,2.2-1-.7-1-2.2-1h0ZM137.2,190.3c-2.7,0-4.3-1.6-4.3-4.1s1.7-4.1,4.3-4.1h0c1.3,0,2.5.4,3.2,1.2.7.7,1.1,1.8,1.1,3,0,2.6-1.7,4.1-4.3,4.1h0ZM137.2,184.7c-.3,0-1.4,0-1.4,1.5s1,1.5,1.4,1.5,1.4,0,1.4-1.5-1-1.5-1.4-1.5Z"/>
              <path class="cls-1" d="M143.8,181.9c.5,0,1,.3,1,.9v1.2h1.4c.5,0,.7.4.7.9s-.2.9-.7.9h-1.4v1h1.4c.5,0,.7.4.7.9s-.2.9-.7.9h-1.4v1.4c0,.6-.5.9-1,.9s-1-.3-1-.9v-7.1c0-.6.5-.9,1-.9M137.2,182.5c2.5,0,3.8,1.5,3.8,3.6s-1.3,3.6-3.8,3.7c-2.5,0-3.8-1.5-3.8-3.6s1.3-3.6,3.8-3.6h0M137.2,188.1c1.4,0,1.9-.9,1.9-2s-.5-2-1.9-2-1.9.9-1.9,2,.5,2,1.9,2M140.1,190.8h0c2.9,0,4.7,1,4.7,3.1s-1.8,3.1-4.7,3.1-4.7-1-4.7-3.1,1.8-3.1,4.7-3.1M140.1,195.4h0c2,0,2.7-.6,2.7-1.5s-.7-1.5-2.7-1.5h0c-2,0-2.7.6-2.7,1.5s.7,1.5,2.7,1.5M143.8,180.9c-1.2,0-2,.8-2,1.9v1.6c-.6-1.8-2.3-2.9-4.5-2.9h0c-2.9,0-4.8,1.8-4.8,4.6s1.5,4.2,3.8,4.6c-1.5.9-1.8,2.4-1.8,3.2,0,1.2.6,4.1,5.7,4.1s5.7-2.9,5.7-4.1-.1-1.6-.9-2.5c.5-.3.9-.9.9-1.6v-.4h.4c1,0,1.7-.8,1.7-1.9s-.2-1-.5-1.4c.3-.3.5-.8.5-1.3,0-1.1-.7-1.9-1.7-1.9h-.4v-.2c0-1.1-.9-1.9-2-1.9h0ZM137.2,187.1c-.6,0-.9-.2-.9-1s.3-1,.9-1,.9.2.9,1-.3,1-.9,1h0ZM140.4,189.8c.6-.5,1.1-1.1,1.4-1.9v1.9h0c-.4,0-.9,0-1.4-.1h0ZM140.1,194.4c-.8,0-1.7-.1-1.7-.5s.9-.5,1.7-.5h0c1,0,1.4.2,1.6.3.1,0,.1.1.1.2,0,.3-.9.5-1.7.5h0Z"/>
            </g>
            <g>
              <path class="cls-4" d="M116.7,216.3c-1.3,0-1.9-.5-1.9-1.8v-3c0-.8.6-1.4,1.5-1.4s1.5.6,1.5,1.4v2.1h6.8c.7,0,1.2.6,1.2,1.4s-.5,1.4-1.2,1.4h-8,0ZM124,212.5c-.9,0-1.5-.6-1.5-1.4v-2.5h-.9c-.5,0-.9-.3-1.1-.7-.7,1.3-2,2-3.7,2-2.6,0-4.2-1.7-4.2-4.3s1.7-4.3,4.2-4.3,3.1.8,3.7,2.1c.2-.4.6-.7,1.1-.7h.9v-.7c0-.8.6-1.4,1.5-1.4s1.5.6,1.5,1.4v9.2c0,.8-.6,1.4-1.5,1.4h0ZM116.8,204c-.3,0-1.3,0-1.3,1.6s1,1.6,1.3,1.6,1.3,0,1.3-1.6-1-1.6-1.3-1.6ZM121,205.6v.4c.2,0,.4-.1.6-.1h.9v-.5h-.9c-.2,0-.4,0-.6-.1v.3h0Z"/>
              <path class="cls-1" d="M124,201.1c.5,0,1,.3,1,.9v9.2c0,.6-.5.9-1,.9s-1-.3-1-.9v-3h-1.4c-.5,0-.7-.4-.7-.9s.2-.9.7-.9h1.4v-1.5h-1.4c-.5,0-.7-.4-.7-.9s.2-.9.7-.9h1.4v-1.2c0-.6.5-.9,1-.9M116.8,201.8h0c2.5,0,3.7,1.6,3.7,3.8s-1.3,3.8-3.7,3.8-3.7-1.6-3.7-3.8,1.3-3.8,3.7-3.8M116.8,207.7c1.3,0,1.8-.9,1.8-2.1s-.5-2.1-1.8-2.1-1.8.9-1.8,2.1.5,2.1,1.8,2.1M116.4,210.6c.5,0,1,.3,1,.9v2.2c0,.3,0,.4.4.4h6.9c.5,0,.7.4.7.9s-.2.9-.7.9h-8c-1,0-1.4-.3-1.4-1.3v-3c0-.6.5-.9,1-.9M125,211.1h0M124,200.1c-1.2,0-2,.8-2,1.9v.2h-.4c-.4,0-.7.1-1,.3-.8-1.1-2.1-1.7-3.8-1.7h0c-2.9,0-4.7,1.9-4.7,4.8s1.1,3.8,2.9,4.5c-.4.3-.6.8-.6,1.3v3c0,1.6.8,2.3,2.4,2.3h8c1,0,1.7-.8,1.7-1.9s-.7-1.9-1.7-1.9h-6.3v-1.6c0-.4,0-.8-.4-1.2,1.1-.2,1.9-.8,2.6-1.5.3.2.6.4,1,.4h.4v2c0,1.1.8,1.9,2,1.9s2-.8,2-1.9v-9.2c0-1.1-.8-1.9-2-1.9h0v.2ZM116.8,206.7c-.3,0-.8,0-.8-1.1s.5-1.1.8-1.1.8,0,.8,1.1-.5,1.1-.8,1.1h0Z"/>
            </g>
            <g>
              <path class="cls-4" d="M133.1,216.7c-.9,0-1.5-.6-1.5-1.4v-4.8h-4.6c-.7,0-1.2-.6-1.2-1.4s.5-1.4,1.2-1.4h8.1c.2-1.1.3-2.2.3-3.5v-.2h-6.8c-.7,0-1.2-.6-1.2-1.4s.5-1.4,1.2-1.4h8c1.3,0,1.9.5,1.9,1.8v1.1c0,1.2-.1,2.5-.3,3.5h1c.7,0,1.2.6,1.2,1.4s-.5,1.4-1.2,1.4h-4.5v4.8c0,.8-.6,1.4-1.5,1.4h0Z"/>
              <path class="cls-1" d="M136.6,201.8c1,0,1.4.3,1.4,1.3v1.1c0,1.4-.2,2.9-.4,4.1h1.6c.5,0,.7.4.7.9s-.2.9-.7.9h-5v5.3c0,.6-.5.9-1,.9s-1-.3-1-.9v-5.3h-5c-.5,0-.7-.4-.7-.9s.2-.9.7-.9h8.5c.3-1.3.4-2.6.4-4v-.4c0-.3,0-.4-.4-.4h-7c-.5,0-.7-.4-.7-.9s.2-.9.7-.9h8M136.6,200.8h-8c-1,0-1.7.8-1.7,1.9s.7,1.9,1.7,1.9h6.3c0,.9,0,1.8-.2,2.7h-7.7c-1,0-1.7.8-1.7,1.9s.7,1.8,1.6,1.9h4.1v4.3c0,1.1.9,1.9,2,1.9s2-.8,2-1.9v-4.3h4c1,0,1.7-.8,1.7-1.9s-.7-1.9-1.7-1.9h-.4c.2-1,.2-2,.2-3.1v-1.1c0-1.6-.8-2.3-2.4-2.3h.2Z"/>
            </g>
            <g>
              <path class="cls-4" d="M140.8,214.3c-.7,0-1.2-.6-1.2-1.4s.5-1.4,1.2-1.4h4.5v-1.6c0-.8.6-1.4,1.5-1.4s1.5.6,1.5,1.4v1.6h4.5c.7,0,1.2.6,1.2,1.4s-.5,1.4-1.2,1.4h-12.1.1ZM142.1,210c-.5,0-1-.3-1.2-.7s-.3-.8-.2-1.2c0-.3.3-.6.6-.7.8-.4,1.8-1,2.8-1.6.9-.6,1.3-1.3,1.3-2.3v-.8c0-.8.6-1.4,1.5-1.4s1.5.6,1.5,1.4v.8c0,1,.4,1.7,1.3,2.3,1,.6,1.9,1.2,2.8,1.6.3.2.5.4.5.7.1.4,0,.8-.2,1.2-.3.5-.7.7-1.2.7s-.4,0-.6-.2c-1.1-.6-2-1.2-2.9-1.7-.4-.3-.9-.6-1.2-1-.3.3-.7.7-1.3,1.1-.8.5-1.7,1.1-2.9,1.7-.2.1-.4.2-.6.2h0Z"/>
              <path class="cls-1" d="M146.8,201.7c.5,0,1,.3,1,.9v.8c0,1.2.4,2,1.5,2.7,1,.6,1.9,1.2,2.8,1.7.4.2.4.8.2,1.2h0c-.2.3-.5.5-.8.5h-.4c-1-.6-2-1.1-2.8-1.7-1-.6-1.4-1.2-1.5-1.6h0c0,.4-.6,1-1.5,1.6s-1.8,1.1-2.8,1.7h-.4c-.3,0-.6-.2-.8-.5-.2-.4-.3-1,.2-1.2.9-.5,1.8-1,2.8-1.7,1.1-.7,1.5-1.5,1.5-2.7v-.8c0-.6.5-.9,1-.9M146.8,209c.5,0,1,.3,1,.9v2.1h5c.5,0,.7.4.7.9s-.2.9-.7.9h-12.1c-.5,0-.7-.4-.7-.9s.2-.9.7-.9h5v-2.1c0-.6.5-.9,1-.9M146.8,200.7c-1.2,0-2,.8-2,1.9v.8c0,.9-.3,1.4-1.1,1.9-1,.6-2,1.2-2.7,1.6-.4.2-.7.6-.8,1-.1.5,0,1.1.2,1.6.4.6,1,1,1.7,1s.6,0,.9-.2c.8-.4,1.4-.8,2-1.2-.1.2-.2.5-.2.8v1.1h-4c-1,0-1.7.8-1.7,1.9s.7,1.9,1.7,1.9h12.1c1,0,1.7-.8,1.7-1.9s-.7-1.9-1.7-1.9h-.6l.9-1.6c.3-.5.4-1.1.2-1.6-.1-.4-.4-.8-.8-1-.8-.5-1.8-1-2.7-1.6-.8-.5-1.1-1-1.1-1.9v-.8c0-1.1-.9-1.9-2-1.9h0ZM146.5,208.1c.1,0,.2-.2.3-.3.1,0,.2.2.4.3h-.7ZM148.8,211v-1.1c0-.3,0-.6-.2-.9.6.4,1.3.8,2.1,1.2.2.1.4.2.7.2v.6h-2.6Z"/>
            </g>
          </g>
          <g class="cls-2">
            <path class="cls-1" d="M153.4,596.8h-31.2v-.3c0,0-.6-1.6-.6-1.6l-18.1-56.6h49.9v58.5M154.4,597.8v-60.7h-52.5l18.5,58,.5,1.6.3,1.1h33.2Z"/>
            <path class="cls-1" d="M172,596.8h-13.3v-19.8h13.3v19.8M173.1,597.8v-22h-15.5v22h15.5Z"/>
            <path class="cls-1" d="M202.1,596.8h-24.7v-19.8h24.7v19.8M203.1,597.8v-22h-26.9v22h26.9Z"/>
            <path class="cls-1" d="M248,425.2V123.7c0-29.3,23.9-53.2,53.2-53.2s53.2,23.9,53.2,53.2v186.3c0,2.7,2.2,4.8,4.8,4.8h49.6v.4h-49.6c-2.9,0-5.2-2.4-5.2-5.2V123.7c0-29.1-23.7-52.8-52.8-52.8s-52.8,23.7-52.8,52.8v301.5h-.4Z"/>
            <path class="cls-1" d="M247.7,425.6V123.7c0-29.5,24-53.5,53.5-53.5s53.5,24,53.5,53.5v186.3c0,2.5,2,4.5,4.5,4.5h50v1.1h-50c-3.1,0-5.6-2.5-5.6-5.6V123.7c0-28.9-23.5-52.5-52.5-52.5s-52.5,23.5-52.5,52.5v301.8h-1,0Z"/>
            <rect class="cls-1" x="408.4" y="304" width=".4" height="85.9"/>
            <rect class="cls-1" x="408.1" y="303.7" width="1.1" height="86.5"/>
            <path class="cls-1" d="M360.2,130.5v-35.3c0-2.7,2.2-4.9,4.9-4.9h21.2c2.7,0,4.9,2.2,4.9,4.9v35.3c0,2.7-2.2,4.9-4.9,4.9h-21.2c-2.7,0-4.9-2.2-4.9-4.9ZM390.8,95.1c0-2.5-2-4.5-4.5-4.5h-21.2c-2.5,0-4.5,2-4.5,4.5v35.3c0,2.5,2,4.5,4.5,4.5h21.2c2.5,0,4.5-2,4.5-4.5,0,0,0-35.3,0-35.3Z"/>
            <path class="cls-1" d="M359.9,130.5v-35.3c0-2.9,2.3-5.2,5.2-5.2h21.2c2.9,0,5.2,2.3,5.2,5.2v35.3c0,2.9-2.3,5.2-5.2,5.2h-21.2c-2.9,0-5.2-2.3-5.2-5.2h0ZM390.5,95.1c0-2.3-1.9-4.2-4.2-4.2h-21.2c-2.3,0-4.2,1.9-4.2,4.2v35.3c0,2.3,1.9,4.2,4.2,4.2h21.2c2.3,0,4.2-1.9,4.2-4.2,0,0,0-35.3,0-35.3Z"/>
            <path class="cls-1" d="M255.9,357.1c0-23.7,19.3-43,43-43s43,19.3,43,43-19.3,43-43,43-43-19.3-43-43h0ZM341.4,357.1c0-23.5-19.1-42.5-42.5-42.5s-42.5,19.1-42.5,42.5,19.1,42.5,42.5,42.5,42.5-19.1,42.5-42.5Z"/>
            <path class="cls-1" d="M255.6,357.1c0-23.9,19.4-43.3,43.3-43.3s43.3,19.4,43.3,43.3-19.4,43.3-43.3,43.3-43.3-19.4-43.3-43.3h0ZM341.1,357.1c0-23.3-18.9-42.2-42.2-42.2s-42.2,18.9-42.2,42.2,18.9,42.2,42.2,42.2,42.2-18.9,42.2-42.2Z"/>
            <path class="cls-1" d="M347.1,394.6c0-17.4,14.2-31.5,31.5-31.6h28.3v1.1h-28.3c-16.8,0-30.5,13.7-30.5,30.5s13.7,30.5,30.5,30.5h28.3v1.1h-28.3c-17.4,0-31.5-14.1-31.6-31.5h.1Z"/>
            <path class="cls-1" d="M395.8,497.7h-4.8v-65h4.8v65M396.9,498.8v-67.1h-7v67.1h7Z"/>
            <path class="cls-1" d="M405.1,427.4h-56.4v-1.3h56.3v1.3M406.2,428.5v-3.4h-58.5v3.4h58.5Z"/>
            <path class="cls-1" d="M329,186.1c0,2.5-2,4.6-4.6,4.6h-49.8c-2.5,0-4.6-2-4.6-4.6v-6.4c0-2.5,2-4.6,4.6-4.6h49.8c2.5,0,4.6,2,4.6,4.6v6.4M330.1,186.1v-6.4c0-3.1-2.5-5.6-5.6-5.6h-49.8c-3.1,0-5.6,2.5-5.6,5.6v6.4c0,3.1,2.5,5.6,5.6,5.6h49.8c3.1,0,5.6-2.5,5.6-5.6h0Z"/>
            <path class="cls-1" d="M329,215.1c0,2.5-2,4.6-4.6,4.6h-14.4l-.3.3-5.3,5.1-.3.3v68h-11.6v-2.6h5.3v-63.8h-5.3v-3.9l-.3-.3-2.9-2.8-.3-.3h-14.4c-2.5,0-4.6-2-4.6-4.6s2-4.6,4.6-4.6h49.8c2.5,0,4.6,2,4.6,4.6M330.1,215.1h0c0-3.1-2.5-5.6-5.6-5.6h-49.8c-3.1,0-5.6,2.5-5.6,5.6h0c0,3.1,2.5,5.6,5.6,5.6h13.9l2.9,2.8v4.5h5.3v61.6h-5.3v4.8h13.7v-68.6l5.3-5.1h13.9c3.1,0,5.6-2.5,5.6-5.6h.1Z"/>
            <path class="cls-1" d="M329,129.7h-58.9v-16c0-16.2,13.2-29.5,29.5-29.5s29.5,13.2,29.5,29.5v16M330.1,130.8v-17.1c0-16.9-13.7-30.5-30.5-30.5h0c-16.9,0-30.5,13.7-30.5,30.5v17.1h61.1-.1Z"/>
            <path class="cls-1" d="M389.9,187.6h1.1v-48.9h-30.6v52.9h1.1v-51.8h28.4v47.8Z"/>
            <path class="cls-1" d="M391,185.4h-1.1v46.6h-28.4v-46.6h-1.1v47.7h30.6v-47.7h0Z"/>
            <path class="cls-1" d="M398.2,302.9h-33.1v-65.5h33v65.5M399.3,304v-67.7h-35.2v67.7h35.2Z"/>
            <path class="cls-1" d="M237.3,401.5h-29.9v-126.5h29.9v126.5M238.4,402.6v-128.7h-32.1v128.7h32.1Z"/>
            <path class="cls-1" d="M247.6,428h-40.3v-1.6h40.3v1.6M248.7,429v-3.8h-42.5v3.8h42.5Z"/>
            <path class="cls-1" d="M237.4,220.3h-33V65.2h33v155.1M238.5,221.3V64h-35.2v157.3h35.2Z"/>
            <path class="cls-1" d="M434.3,59.8H167.9c18.6-8.8,38.6-15.6,59.5-20.3,23.3-5.2,47.9-7.9,73.3-7.9s50.6,2.7,74,7.9c21,4.7,41.1,11.5,59.7,20.3M439,60.8c-39.2-19.4-85.8-30.4-138.4-30.4s-98.3,11-137.5,30.4h275.9Z"/>
            <path class="cls-1" d="M408.1,302.9h-4.5v-70.9h-8.3V91h12.8v20.8h-4.9v8.9h4.9v4.2h-4.9v20.4h4.9v157.6M409.2,304v-70.9h0v-88.8h-4.9v-18.2h4.9v-6.4h-4.9v-6.8h4.9v-23h-14.9v143.2h8.3v70.9h6.7-.1Z"/>
            <rect class="cls-1" x="269" y="143.3" width="61.1" height="1.1"/>
            <rect class="cls-1" x="329" y="129.7" width="1.1" height="14.7"/>
            <rect class="cls-1" x="269" y="129.7" width="1.1" height="14.7"/>
            <rect class="cls-1" x="203.3" y="66" width="35.2" height="1.1"/>
            <rect class="cls-1" x="206.3" y="401.5" width="32.1" height="1.1"/>
            <rect class="cls-1" x="206.3" y="427.9" width="39.3" height="1.1"/>
            <rect class="cls-1" x="203.3" y="78.6" width="5.8" height="1.1"/>
            <rect class="cls-1" x="203.3" y="91.1" width="5.8" height="1.1"/>
            <rect class="cls-1" x="203.3" y="103.7" width="5.8" height="1.1"/>
            <rect class="cls-1" x="206.3" y="402.6" width="1.1" height="22.6"/>
            <rect class="cls-1" x="224.7" y="398.4" width="1.1" height="4.2"/>
            <rect class="cls-1" x="223.6" y="402.6" width="1.1" height="4.2"/>
            <rect class="cls-1" x="206.3" y="425.2" width="1.1" height="3.8"/>
            <rect class="cls-1" x="245.5" y="425.2" width="1.1" height="3.8"/>
            <rect class="cls-1" x="203.3" y="116.3" width="5.8" height="1.1"/>
            <rect class="cls-1" x="203.3" y="128.8" width="5.8" height="1.1"/>
            <rect class="cls-1" x="203.3" y="141.4" width="5.8" height="1.1"/>
            <rect class="cls-1" x="203.3" y="153.9" width="5.8" height="1.1"/>
            <rect class="cls-1" x="203.3" y="166.5" width="5.8" height="1.1"/>
            <rect class="cls-1" x="203.3" y="179" width="5.8" height="1.1"/>
            <rect class="cls-1" x="203.3" y="191.6" width="5.8" height="1.1"/>
            <rect class="cls-1" x="203.3" y="204.1" width="5.8" height="1.1"/>
            <rect class="cls-1" x="203.3" y="216.7" width="5.8" height="1.1"/>
            <rect class="cls-1" x="203.3" y="64" width="1.1" height="157.3"/>
            <rect class="cls-1" x="208" y="66" width="1.1" height="155.3"/>
            <rect class="cls-1" x="210.8" y="66" width="1.1" height="155.3"/>
            <rect class="cls-1" x="291.5" y="228.1" width="1.1" height="61.6"/>
            <rect class="cls-1" x="311.5" y="130.5" width="1.1" height="13.8"/>
            <rect class="cls-1" x="286.5" y="130.5" width="1.1" height="13.8"/>
            <rect class="cls-1" x="287.3" y="136" width="24.8" height="1.1"/>
            <rect class="cls-1" x="287.3" y="139.2" width="24.8" height="1.1"/>
            <rect class="cls-1" x="404.3" y="159.4" width="4.9" height="1.1"/>
            <rect class="cls-1" x="404.3" y="165.6" width="4.9" height="1.1"/>
            <rect class="cls-1" x="404.3" y="171.8" width="4.9" height="1.1"/>
            <rect class="cls-1" x="404.3" y="178" width="4.9" height="1.1"/>
            <rect class="cls-1" x="399.3" y="99.4" width="6.8" height="1.1"/>
            <rect class="cls-1" x="399.3" y="103.9" width="6.8" height="1.1"/>
            <rect class="cls-1" x="405.1" y="99.4" width="1.1" height="5.6"/>
            <rect class="cls-1" x="399.3" y="99.4" width="1.1" height="5.6"/>
            <rect class="cls-1" x="394.2" y="224.4" width="3" height="1.1"/>
            <rect class="cls-1" x="394.2" y="219.9" width="3" height="1.1"/>
            <rect class="cls-1" x="394.2" y="178" width="3" height="1.1"/>
            <rect class="cls-1" x="394.2" y="173.5" width="3" height="1.1"/>
            <rect class="cls-1" x="394.2" y="141.5" width="3" height="1.1"/>
            <rect class="cls-1" x="394.2" y="137" width="3" height="1.1"/>
            <rect class="cls-1" x="392.5" y="438.7" width="4.4" height="1.1"/>
            <rect class="cls-1" x="392.5" y="442.9" width="4.4" height="1.1"/>
            <rect class="cls-1" x="392.5" y="447.1" width="4.4" height="1.1"/>
            <rect class="cls-1" x="392.5" y="451.3" width="4.4" height="1.1"/>
            <rect class="cls-1" x="392.5" y="455.5" width="4.4" height="1.1"/>
            <rect class="cls-1" x="392.5" y="459.8" width="4.4" height="1.1"/>
            <rect class="cls-1" x="392.5" y="464" width="4.4" height="1.1"/>
            <rect class="cls-1" x="392.5" y="468.2" width="4.4" height="1.1"/>
            <rect class="cls-1" x="392.5" y="472.4" width="4.4" height="1.1"/>
            <rect class="cls-1" x="392.5" y="476.6" width="4.4" height="1.1"/>
            <rect class="cls-1" x="392.5" y="480.8" width="4.4" height="1.1"/>
            <rect class="cls-1" x="392.5" y="485" width="4.4" height="1.1"/>
            <rect class="cls-1" x="392.5" y="489.3" width="4.4" height="1.1"/>
            <rect class="cls-1" x="392.5" y="493.5" width="4.4" height="1.1"/>
            <rect class="cls-1" x="235.6" y="565.1" width="6.8" height="1.1"/>
            <rect class="cls-1" x="360.1" y="565.1" width="3.5" height="1.1"/>
            <rect class="cls-1" x="360.1" y="563.8" width="1.1" height="3.5"/>
            <path class="cls-1" d="M297.1,651.4h-60.5v-63.8h60.5v63.7M298.2,652.5v-65.9h-62.6v66h62.6Z"/>
            <path class="cls-1" d="M297.1,582.3h-60.5v-66.1h60.5v66.1M298.2,583.4v-68.3h-62.6v68.3h62.6Z"/>
            <path class="cls-1" d="M362.6,651.4h-61.3v-135.2h61.3v135.2M363.7,652.5v-137.3h-63.4v137.4h63.4Z"/>
            <rect class="cls-1" x="370.5" y="252.6" width="28.7" height="1.1"/>
            <rect class="cls-1" x="370.5" y="255.6" width="28.7" height="1.1"/>
            <rect class="cls-1" x="370.5" y="258.5" width="28.7" height="1.1"/>
            <rect class="cls-1" x="370.5" y="261.4" width="28.7" height="1.1"/>
            <rect class="cls-1" x="370.5" y="264.3" width="28.7" height="1.1"/>
            <rect class="cls-1" x="370.5" y="267.2" width="28.7" height="1.1"/>
            <rect class="cls-1" x="370.5" y="270.2" width="28.7" height="1.1"/>
            <rect class="cls-1" x="370.5" y="273.1" width="28.7" height="1.1"/>
            <rect class="cls-1" x="370.5" y="276" width="28.7" height="1.1"/>
            <rect class="cls-1" x="370.5" y="278.9" width="28.7" height="1.1"/>
            <rect class="cls-1" x="384.3" y="253.2" width="1.1" height="26.4"/>
            <rect class="cls-1" x="377.2" y="252.7" width="1.1" height="18.6" transform="translate(-64.5 387.6) rotate(-50.6)"/>
            <rect class="cls-1" x="370.3" y="282.2" width="15.2" height="1.1"/>
            <rect class="cls-1" x="370.3" y="284.1" width="15.2" height="1.1"/>
            <rect class="cls-1" x="380.6" y="282.7" width="1.1" height="1.9"/>
            <rect class="cls-1" x="377.5" y="282.7" width="1.1" height="1.9"/>
            <rect class="cls-1" x="374.4" y="282.7" width="1.1" height="1.9"/>
            <rect class="cls-1" x="380.3" y="298.5" width="19" height="1.1"/>
            <rect class="cls-1" x="389.3" y="299.1" width="1.1" height="4.9"/>
            <rect class="cls-1" x="380.3" y="299.1" width="1.1" height="4.9"/>
            <path class="cls-1" d="M300.4,364.8c0-11.1,9.1-20.2,20.2-20.2s20.2,9.1,20.2,20.2-9.1,20.2-20.2,20.2-20.2-9.1-20.2-20.2ZM339.7,364.8c0-10.5-8.6-19.1-19.1-19.1s-19.1,8.6-19.1,19.1,8.6,19.1,19.1,19.1,19.1-8.6,19.1-19.1Z"/>
            <path class="cls-1" d="M270.5,332.7c0-8.5,6.9-15.4,15.4-15.4s15.4,6.9,15.4,15.4-6.9,15.4-15.4,15.4-15.4-6.9-15.4-15.4h0ZM300.2,332.7c0-7.9-6.4-14.3-14.3-14.3s-14.3,6.4-14.3,14.3,6.4,14.3,14.3,14.3,14.3-6.4,14.3-14.3Z"/>
            <path class="cls-1" d="M259.1,371.1c0-8.5,6.9-15.4,15.4-15.4s15.4,6.9,15.4,15.4-6.9,15.4-15.4,15.4-15.4-6.9-15.4-15.4h0ZM288.7,371.1c0-7.9-6.4-14.3-14.3-14.3s-14.3,6.4-14.3,14.3,6.4,14.3,14.3,14.3,14.3-6.4,14.3-14.3Z"/>
            <rect class="cls-1" x="404.9" y="363" width="4.3" height="62"/>
            <path id="Library" class="cls-1" d="M476.3,214.2c30.5,0,55.3,24.8,55.3,55.3s-24.8,55.3-55.3,55.3h0c-30.5,0-55.3-24.8-55.3-55.3s24.8-55.3,55.3-55.3h0M476.3,318.4c27,0,48.9-21.9,48.9-48.9s-21.9-48.9-48.9-48.9-48.9,21.9-48.9,48.9,21.9,48.9,48.9,48.9M476.3,212.7h0c-31.3,0-56.8,25.5-56.8,56.8s25.5,56.8,56.8,56.8,56.8-25.5,56.8-56.8-25.5-56.8-56.8-56.8h0ZM476.3,316.9c-26.1,0-47.4-21.3-47.4-47.4s4.9-24.6,13.9-33.5c9-9,20.8-13.9,33.5-13.9s24.6,4.9,33.5,13.9c9,8.9,13.9,20.8,13.9,33.5,0,26.1-21.3,47.4-47.4,47.4h0Z"/>
            <path class="cls-1" d="M408.8,388.9l.2-.4c14,9.7,31.9,15.9,48.9,15.9,37.7,0,70.8-25.4,80.5-61.8h.4c-9.8,36.7-43.1,62.2-81,62.2s-35.1-6.3-49.2-16h.2Z"/>
            <path class="cls-1" d="M408.3,389l.6-.9.3.2c14.6,10.1,32.3,15.9,48.8,15.9,37.6,0,70.6-25.3,80.2-61.6v-.3l1.1.3v.3c-9.9,36.7-43.3,62.3-81.3,62.3s-34.6-5.9-49.4-16.1l-.3-.2h0Z"/>
            <rect class="cls-1" x="509.3" y="218.9" width="27.1" height=".4" transform="translate(38.3 513.4) rotate(-54)"/>
            <rect class="cls-1" x="509.1" y="218.6" width="27.7" height="1.1" transform="translate(38.3 513.4) rotate(-54)"/>
            <rect class="cls-1" x="522.7" y="307.7" width=".4" height="26.9" transform="translate(-84.1 411.2) rotate(-40)"/>
            <rect class="cls-1" x="510.8" y="425" width="1.1" height="3.4"/>
            <rect class="cls-1" x="538.1" y="400" width="2.5" height="1.1"/>
            <rect class="cls-1" x="538.1" y="392" width="2.5" height="1.1"/>
            <rect class="cls-1" x="538.1" y="384" width="2.5" height="1.1"/>
            <rect class="cls-1" x="538.1" y="376" width="2.5" height="1.1"/>
            <rect class="cls-1" x="538.1" y="368" width="2.5" height="1.1"/>
            <rect class="cls-1" x="538.1" y="360" width="2.5" height="1.1"/>
            <rect class="cls-1" x="538.1" y="352" width="2.5" height="1.1"/>
            <rect class="cls-1" x="505.3" y="425" width="1.1" height="3.4"/>
            <rect class="cls-1" x="499.7" y="425" width="1.1" height="3.4"/>
            <rect class="cls-1" x="494.2" y="425" width="1.1" height="3.4"/>
            <rect class="cls-1" x="488.7" y="425" width="1.1" height="3.4"/>
            <rect class="cls-1" x="483.2" y="425" width="1.1" height="3.4"/>
            <rect class="cls-1" x="477.7" y="425" width="1.1" height="3.4"/>
            <rect class="cls-1" x="472.2" y="425" width="1.1" height="3.4"/>
            <rect class="cls-1" x="466.7" y="425" width="1.1" height="3.4"/>
            <rect class="cls-1" x="461.2" y="425" width="1.1" height="3.4"/>
            <rect class="cls-1" x="455.7" y="425" width="1.1" height="3.4"/>
            <rect class="cls-1" x="450.2" y="425" width="1.1" height="3.4"/>
            <rect class="cls-1" x="444.7" y="425" width="1.1" height="3.4"/>
            <rect class="cls-1" x="439.2" y="425" width="1.1" height="3.4"/>
            <rect class="cls-1" x="433.6" y="425" width="1.1" height="3.4"/>
            <rect class="cls-1" x="428.1" y="425" width="1.1" height="3.4"/>
            <rect class="cls-1" x="422.6" y="425" width="1.1" height="3.4"/>
            <rect class="cls-1" x="417.1" y="425" width="1.1" height="3.4"/>
            <rect class="cls-1" x="411.6" y="425" width="1.1" height="3.4"/>
            <rect class="cls-1" x="406.1" y="425" width="1.1" height="3.4"/>
            <path class="cls-1" d="M498,538l-3.3,10.5-.3,1.1-14.2,45.2h-34.8v-56.7h52.7M499.4,536.9h-55.3v58.9h36.7l14.5-46,.3-1.1,3.7-11.9h0Z"/>
            <path class="cls-1" d="M478.4,600.1l-9.5,30.1v.4h-54.5v-30.5h64M479.9,599.1h-66.6v32.7h56.3l.3-1.1,9.9-31.5h.1Z"/>
            <path class="cls-1" d="M409,630.6h-7.9v-30.5h7.9v30.5M410.1,631.7v-32.7h-10v32.7h10Z"/>
            <path class="cls-1" d="M440.2,551.2h-39.1v-13.4h39.1v13.4M441.3,552.3v-15.6h-41.3v15.6h41.3Z"/>
            <path class="cls-1" d="M440.2,594.8h-11.9v-16.2h11.9v16.2M441.3,595.9v-18.3h-14.1v18.3h14.1Z"/>
            <path class="cls-1" d="M422.9,594.8h-21.8v-16.2h21.8v16.2M424,595.9v-18.3h-24v18.3h24Z"/>
            <path class="cls-1" d="M531.1,432.7l-31.4,99.7h-98.6v-99.7h130M532.6,431.7h-132.6v101.9h100.4l32.1-101.9h.1Z"/>
            <path class="cls-1" d="M551.9,366.9l-12.8,40.6v-56.7l12.8,16.2M553.1,366.7l-14-17.7-1.1-1.4v66.9l1.1-3.5,14-44.4h0Z"/>
            <path class="cls-1" d="M569.6,275.1c0,23.4-3.4,46.6-10.2,68.9-.5,1.5-.8,2.7-1.2,3.8,0,.3-.2.6-.3.9v.3c-.5,1.2-.9,2.4-1.3,3.4,0,.4-.3.8-.4,1.2-.5,1.3-.9,2.6-1.4,3.9v.3l-.2.3h0l-.4,1.4-13.6-17.2-.2-.2-8.5-11.4v-6.3h0v-1.9h1.8l.3-.3c7-7.5,12.4-16.2,16-25.7,3.4-8.6,5.2-17.7,5.2-27.1s-.2-4.5-.7-7.1c-.8-8.5-3-16.8-6.6-24.5-3.5-7.6-8.1-14.5-13.8-20.6l-.3-.3h-1.8v-8.4l1.9-2.4,18.9-24c11.2,29.2,16.8,60.5,16.8,93.1M570.7,275.1c0-33.7-6.1-65.8-17.6-95.2l-20.1,25.4-2.1,2.7v9.8h2.5c11.1,11.9,18.5,27.4,20.1,44.5.5,2.4.7,4.8.7,7,0,9.4-1.8,18.4-5.1,26.7-3.5,9.5-8.9,18.1-15.7,25.4h-2.4v2.5h0v7.1l8.9,12h0l14.9,18.8,1.1-3.3c0-.2,0-.4.2-.6.5-1.3.9-2.6,1.4-3.9,0-.4.3-.8.4-1.2.4-1.1.8-2.3,1.2-3.5,0-.4.3-.8.4-1.2.4-1.3.8-2.6,1.2-3.9,6.7-22,10.2-45.2,10.2-69.2h-.2Z"/>
            <path class="cls-1" d="M569.6,275.1c0,23.4-3.4,46.6-10.2,68.9-.5,1.5-.8,2.7-1.2,3.8,0,.3-.2.6-.3.9v.3c-.5,1.2-.9,2.4-1.3,3.4,0,.4-.3.8-.4,1.2-.5,1.3-.9,2.6-1.4,3.9v.3l-.2.3h0l-.4,1.4-13.6-17.2-.2-.2-8.5-11.4v-6.3h0v-1.9h1.8l.3-.3c7-7.5,12.4-16.2,16-25.7,3.4-8.6,5.2-17.7,5.2-27.1s-.2-4.5-.7-7.1c-.8-8.5-3-16.8-6.6-24.5-3.5-7.6-8.1-14.5-13.8-20.6l-.3-.3h-1.8v-8.4l1.9-2.4,18.9-24c11.2,29.2,16.8,60.5,16.8,93.1h0ZM570.7,275.1c0-33.7-6.1-65.8-17.6-95.2l-20.1,25.4-2.1,2.7v9.8h2.5c11.1,11.9,18.5,27.4,20.1,44.5.5,2.4.7,4.8.7,7,0,9.4-1.8,18.4-5.1,26.7-3.5,9.5-8.9,18.1-15.7,25.4h-2.4v2.5h0v7.1l8.9,12h0l14.9,18.8,1.1-3.3c0-.2,0-.4.2-.6.5-1.3.9-2.6,1.4-3.9,0-.4.3-.8.4-1.2.4-1.1.8-2.3,1.2-3.5,0-.4.3-.8.4-1.2.4-1.3.8-2.6,1.2-3.9,6.7-22,10.2-45.2,10.2-69.2h-.2Z"/>
            <path class="cls-1" d="M533.4,426.1l-.3,1.3h-126.9v-1.3h127.2M534.7,425h-129.6v3.4h128.9l.8-3.4h0Z"/>
            <rect class="cls-1" x="456.2" y="599.1" width="1.1" height="28.7"/>
            <rect class="cls-1" x="453.3" y="599.1" width="1.1" height="28.7"/>
            <rect class="cls-1" x="450.3" y="599.1" width="1.1" height="28.7"/>
            <rect class="cls-1" x="447.4" y="599.1" width="1.1" height="28.7"/>
            <rect class="cls-1" x="444.5" y="599.1" width="1.1" height="28.7"/>
            <rect class="cls-1" x="441.6" y="599.1" width="1.1" height="28.7"/>
            <rect class="cls-1" x="438.6" y="599.1" width="1.1" height="28.7"/>
            <rect class="cls-1" x="435.7" y="599.1" width="1.1" height="28.7"/>
            <rect class="cls-1" x="432.8" y="599.1" width="1.1" height="28.7"/>
            <rect class="cls-1" x="429.9" y="599.1" width="1.1" height="28.7"/>
            <path class="cls-1" d="M486,340.2c0-5.7-1.6-11-4.4-15.5-.4,0-.8,0-1.2.1,2.9,4.5,4.6,9.8,4.6,15.4,0,15.7-12.8,28.5-28.5,28.5s-28.5-12.8-28.5-28.5,6.6-21,16.1-25.7c-.3-.2-.6-.5-.9-.7-9.6,4.9-16.2,14.9-16.2,26.4,0,16.3,13.3,29.6,29.6,29.6s29.6-13.3,29.6-29.6h-.2Z"/>
            <path class="cls-1" d="M530.9,208.7c-.8,0-1.6-.2-2.4-.3-.4,0-.8-.1-1.2-.2h-.3c-.4,0-.8-.1-1.3-.2-.5,0-.9-.2-1.4-.3-27.3-5.4-48-29.3-48.6-58v-2.3c.3-18.3,9-35.4,23.2-46.6.2.2.5.4.8.7-14.3,11.2-22.9,28.4-22.9,46.8,0,31.1,24,56.6,54.4,59.2h.2l-.5.6v.4h0v.2Z"/>
            <path class="cls-1" d="M498,538l-3.3,10.5-.3,1.1-14.2,45.2h-34.8v-56.7h52.7M499.4,536.9h-55.3v58.9h36.7l14.5-46,.3-1.1,3.7-11.9h0Z"/>
            <path class="cls-1" d="M422.9,594.8h-21.8v-16.2h21.8v16.2M424,595.9v-18.3h-24v18.3h24Z"/>
            <path class="cls-1" d="M153.4,596.8h-31.2v-.3c0,0-.6-1.6-.6-1.6l-18.1-56.6h49.9v58.5M154.4,597.8v-60.7h-52.5l18.5,58,.5,1.6.3,1.1h33.2Z"/>
            <path class="cls-1" d="M202.1,596.8h-24.7v-19.8h24.7v19.8M203.1,597.8v-22h-26.9v22h26.9Z"/>
            <path class="cls-1" d="M398.2,302.9h-33.1v-65.5h33v65.5M399.3,304v-67.7h-35.2v67.7h35.2Z"/>
            <path class="cls-1" d="M478.4,600.1l-9.5,30.1v.4h-54.5v-30.5h64M479.9,599.1h-66.6v32.7h56.3l.3-1.1,9.9-31.5h.1Z"/>
            <path class="cls-1" d="M334.1,503.5h0c0,.9-.3,1.7-1,2.4-1.3,1.3-3.4,1.3-4.7,0-7.5-7.4-17.3-11.5-27.9-11.5s-20.5,4.1-27.9,11.6-1.5,1-2.4,1-1.7-.3-2.4-1-1-1.5-1-2.4.3-1.7,1-2.4c8.7-8.7,20.3-13.5,32.6-13.5s23.9,4.8,32.6,13.5,1,1.5,1,2.4M335.2,503.5c0-1.1-.4-2.3-1.3-3.1-8.9-8.9-20.8-13.8-33.3-13.8s-24.5,4.9-33.4,13.8-1.3,2-1.3,3.1.4,2.3,1.3,3.1c1.7,1.7,4.5,1.7,6.2,0,7.2-7.2,16.9-11.2,27.1-11.2s19.9,4,27.1,11.2,4.5,1.7,6.2,0,1.3-2,1.3-3.1h0Z"/>
            <path class="cls-1" d="M310.1,502.9h-3v-1.5c0-.8.7-1.5,1.5-1.5s1.5.7,1.5,1.5v1.5M311.2,504v-2.6c0-1.4-1.1-2.6-2.6-2.6s-2.6,1.1-2.6,2.6v2.6h5.2Z"/>
            <path class="cls-1" d="M293.9,502.9h-3v-1.5c0-.8.7-1.5,1.5-1.5s1.5.7,1.5,1.5v1.5M294.9,504v-2.6c0-1.4-1.1-2.6-2.6-2.6s-2.6,1.1-2.6,2.6v2.6h5.2Z"/>
          </g>
        </g>
      </g>
    </g>
  </g>
</svg>