<?xml version="1.0" encoding="utf-8"?>
<!-- Generator: Adobe Illustrator 28.0.0, SVG Export Plug-In . SVG Version: 6.00 Build 0)  -->
<svg version="1.1" id="레이어_1" xmlns="http://www.w3.org/2000/svg" xmlns:xlink="http://www.w3.org/1999/xlink" x="0px"
	 y="0px" width="189.751px" height="64px" viewBox="0 0 189.751 64" style="enable-background:new 0 0 189.751 64;"
	 xml:space="preserve">
<style type="text/css">
	.st0{fill:#A5CD39;}
	.st1{fill:#0090D0;}
	.st2{fill:#4B5DA9;}
	.st3{fill:#263669;}
	.st4{fill:#5C791B;}
	.st5{fill:#00567E;}
	.st6{fill:#A6A8AB;}
	.st7{fill:#FFFFFF;}
</style>
<g transform="translate(160 18)">
	<path class="st0" d="M-106.841,13.204c-9.012-1.255-17.336,5.033-18.591,14.046s5.033,17.336,14.046,18.591
		c9.012,1.255,17.336-5.033,18.591-14.046c0,0,0-0.001,0-0.001C-91.541,22.782-97.829,14.459-106.841,13.204z M-102.796,30.404
		c-0.487,3.489-3.71,5.923-7.2,5.436c-3.489-0.487-5.923-3.71-5.436-7.2c0.487-3.488,3.709-5.922,7.197-5.436
		c3.489,0.485,5.924,3.706,5.439,7.195c0,0.001,0,0.002,0,0.003L-102.796,30.404z"/>
	<path class="st1" d="M-137.345-16.32c-10.966-1.449-21.03,6.265-22.48,17.231s6.265,21.03,17.231,22.48
		c10.966,1.449,21.03-6.265,22.48-17.231c0,0,0,0,0-0.001C-118.665-4.807-126.379-14.871-137.345-16.32z M-130.257,4.819
		c-0.707,5.366-5.63,9.143-10.996,8.436c-5.366-0.707-9.143-5.63-8.436-10.996s5.63-9.143,10.996-8.436
		c0.002,0,0.005,0.001,0.007,0.001C-133.323-5.466-129.551-0.544-130.257,4.819z"/>
	<path class="st2" d="M-116.845-5.791c-0.902,7.589,4.52,14.472,12.109,15.374c7.589,0.902,14.472-4.52,15.374-12.109
		s-4.52-14.472-12.109-15.374c0,0-0.001,0-0.001,0c-7.589-0.9-14.471,4.522-15.372,12.111"/>
	<path class="st3" d="M-106.105,9.348V-1.164h-10.506c1.166,5.246,5.262,9.344,10.508,10.512"/>
	<path class="st4" d="M-125.431,27.251c-0.087,0.632-0.137,1.268-0.151,1.906h10.106c0.01-0.171,0.021-0.341,0.045-0.513
		c0.477-3.482,3.686-5.919,7.168-5.442c0.755,0.103,1.486,0.342,2.157,0.703V13.33c-0.243-0.045-0.487-0.087-0.735-0.121
		c-9.012-1.255-17.336,5.034-18.591,14.046"/>
	<path class="st5" d="M-120.11,6.159c0.324-2.444,0.193-4.927-0.387-7.323h-10.878c2.595,4.75,0.849,10.704-3.901,13.299
		c-0.371,0.203-0.756,0.382-1.15,0.535v10.58C-127.849,21.708-121.253,14.798-120.11,6.159"/>
	<path class="st6" d="M-136.426,12.67c5.045-1.96,7.546-7.639,5.586-12.684c-0.153-0.395-0.332-0.779-0.535-1.15h-5.051V12.67z"/>
	<path class="st6" d="M-106.105,23.905c-3.095-1.667-6.955-0.51-8.622,2.585c-0.361,0.67-0.599,1.4-0.703,2.154
		c-0.024,0.172-0.036,0.342-0.045,0.513h9.371L-106.105,23.905z"/>
	<g transform="translate(79.668 12.359)">
		<path class="st7" d="M-157.818,18.429h10.255V-0.938c0-0.34-0.275-0.615-0.615-0.615h-11.485v18.136
			C-159.663,17.602-158.837,18.428-157.818,18.429 M-156.058,0.683h4.891v15.54h-4.276c-0.34,0-0.615-0.275-0.615-0.615l0,0V0.683z"
			/>
		<path class="st7" d="M-144.813,20.79h3.6v-22.6c0-0.34-0.275-0.615-0.615-0.615h-2.989V20.79H-144.813z"/>
		<path class="st7" d="M-122.067,5.045h-1.092V-1.81c0-0.34-0.275-0.615-0.615-0.615h-2.875v19.234h-6.854
			c-0.34,0-0.615-0.275-0.615-0.615V9.35h5.894V-0.938c0-0.34-0.275-0.615-0.615-0.615h-8.941v2.236h5.929v6.433h-5.894v10.051
			c0,1.019,0.826,1.845,1.845,1.845l0,0h9.251v1.78h3.489V7.398h1.092V20.79h3.489v-22.6c0-0.34-0.275-0.615-0.615-0.615h-2.874
			v7.474L-122.067,5.045z"/>
		<path class="st7" d="M-99.858,14.079h3.6v-14.7c0-0.34-0.275-0.615-0.615-0.615h-17.662v2.207h14.677v13.105V14.079z"/>
		<path class="st7" d="M-101.857,8.312h-2.989v9.106h-2.6V8.927c0-0.34-0.275-0.615-0.615-0.615h-3.012v9.106h-4.639v2.177h20.76
			v-2.177h-6.293V8.927c0-0.34-0.275-0.615-0.615-0.615"/>
		<path class="st7" d="M-53.521-2.429V8.429h-15.828v2.235h4.409v3.115h3.6v-3.115h7.814v1.851h-4.764v2.206h4.764v3.869h-10.142
			c-0.34,0-0.615-0.275-0.615-0.615v-2.738c0-0.34-0.275-0.615-0.615-0.615h-2.989v4.329c0,1.019,0.826,1.845,1.845,1.845h16.125
			V-1.81c0-0.34-0.275-0.615-0.615-0.615L-53.521-2.429z"/>
		<path class="st7" d="M-92.77,10.548h4.409v1.968h-3.234v2.205h14.677v6.072h3.6v-7.662c0-0.34-0.275-0.615-0.615-0.615h-2.332
			v-1.968h4.252V8.312h-20.76L-92.77,10.548z M-84.757,10.548h4.891v1.968h-4.891V10.548z"/>
		<path class="st7" d="M-82.312,7.512c5.691,0,9.226-1.933,9.226-5.043s-3.535-5.044-9.226-5.044s-9.226,1.933-9.226,5.044
			S-88.002,7.512-82.312,7.512 M-82.312-0.388c3.406,0,5.521,1.094,5.521,2.856s-2.115,2.856-5.521,2.856s-5.521-1.094-5.521-2.856
			S-85.717-0.388-82.312-0.388"/>
		<path class="st7" d="M-61.974,7.367c4.2,0,7.025-1.968,7.025-4.9s-2.823-4.9-7.025-4.9s-7.025,1.968-7.025,4.9
			S-66.176,7.367-61.974,7.367 M-61.974-0.233c1.63,0,3.274,0.835,3.274,2.7s-1.644,2.7-3.274,2.7s-3.274-0.835-3.274-2.7
			S-63.604-0.233-61.974-0.233"/>
		<path class="st7" d="M-151.035-17.661h-1.335v1.329h-1.457c0.06-0.309,0.088-0.623,0.081-0.938h-5.907v1h4.059
			c-0.1,0.576-0.7,2.792-4.135,2.792h-0.1h-0.17l0.308,0.934h0.084c0.043,0,4.346,0.161,5.531-2.8h1.708v1.022h-2.02v0.98h2.02
			v1.732c-0.778-0.287-1.604-0.422-2.433-0.4c-2.57,0-4.043,0.944-4.043,2.591s1.474,2.59,4.043,2.59
			c2.569,0,4.043-0.944,4.043-2.59c0-0.009,0-0.017,0-0.026l0,0v-7.941c0-0.152-0.123-0.275-0.275-0.275 M-154.801-7.818
			c-1.535,0-2.416-0.582-2.416-1.6s0.881-1.6,2.416-1.6s2.416,0.582,2.416,1.6S-153.266-7.818-154.801-7.818"/>
		<path class="st7" d="M-140.861-17.661h-1.335v6.056c-0.78-0.287-1.608-0.423-2.439-0.4c-2.57,0-4.043,0.944-4.043,2.591
			s1.474,2.59,4.043,2.59s4.035-0.939,4.043-2.578l0.005,0.031v-5.171h1.107v-0.985h-1.107v-1.86
			C-140.587-17.538-140.71-17.661-140.861-17.661 M-144.635-7.818c-1.535,0-2.416-0.582-2.416-1.6s0.881-1.6,2.416-1.6
			s2.416,0.582,2.416,1.6S-143.1-7.818-144.635-7.818"/>
		<path class="st7" d="M-130.345-17.661h-1.335v3.92h-4.962c-0.151,0.001-0.274-0.122-0.275-0.273c0,0,0-0.001,0-0.001V-17.4h-1.609
			v3.823c0,0.455,0.369,0.824,0.824,0.824l0,0h6.022v0.956h-6.429v3.68c0.001,0.454,0.369,0.822,0.823,0.823h7.211v-7.247h1.107
			v-0.985h-1.107v-1.86c0.001-0.151-0.122-0.274-0.273-0.275c-0.001,0-0.001,0-0.002,0 M-131.684-8.277h-4.541
			c-0.152,0-0.275-0.123-0.275-0.275v-2.246h4.815L-131.684-8.277z"/>
		<path class="st7" d="M-122.829-11.15h3.3v-0.985h-6.277c-0.152,0-0.275-0.123-0.275-0.275v-3.863h6.448v-1h-8.058v5.3
			c0,0.455,0.368,0.823,0.823,0.824h2.418v2.476h-3.791v0.972h9.132v-0.972h-3.721L-122.829-11.15z"/>
		<path class="st7" d="M-111.058-10.29h1.605v-6.562c0-0.152-0.123-0.275-0.275-0.275h-7.888v0.986h6.553L-111.058-10.29z"/>
		<path class="st7" d="M-111.95-12.865h-1.335v4.066h-1.159v-3.791c0-0.152-0.123-0.275-0.275-0.275h-1.345v4.066h-2.074v0.972h9.27
			v-0.972h-2.81v-3.791c0-0.152-0.123-0.275-0.275-0.275"/>
		<path class="st7" d="M-107.892-11.867h1.968v0.879h-1.445v0.985h6.554v2.711h1.612v-3.422c0.001-0.151-0.122-0.274-0.273-0.275
			c-0.001,0-0.001,0-0.002,0h-1.042v-0.879h1.9v-1h-9.269L-107.892-11.867z M-104.314-11.867h2.184v0.879h-2.184V-11.867z"/>
		<path class="st7" d="M-146.387-14.232c0.773,0.915,1.808,1.571,2.966,1.879l0.086,0.022l0.5-0.79l-0.144-0.05
			c-1.557-0.39-2.629-1.817-2.571-3.421v-0.664c0-0.152-0.123-0.275-0.275-0.275h-1.4v0.939c0.085,1.613-0.998,3.054-2.571,3.421
			l-0.144,0.05l0.5,0.79l0.086-0.022c1.158-0.308,2.193-0.964,2.966-1.879"/>
		<path class="st7" d="M-103.223-13.222c2.541,0,4.12-0.862,4.12-2.252s-1.579-2.252-4.12-2.252s-4.12,0.863-4.12,2.252
			S-105.764-13.222-103.223-13.222 M-103.223-16.749c1.52,0,2.465,0.489,2.465,1.275s-0.945,1.271-2.465,1.271
			s-2.465-0.489-2.465-1.275s0.945-1.275,2.465-1.275"/>
		<path class="st7" d="M-94.464-14.29c0.708,0.944,1.71,1.626,2.848,1.937l0.084,0.021l0.513-0.79l-0.148-0.049
			c-1.337-0.332-2.32-1.469-2.456-2.84h2.13v-0.986h-2.146v-0.725c0-0.152-0.123-0.275-0.275-0.275h-1.376v1h-2.146v0.986h2.13
			c-0.136,1.371-1.119,2.508-2.456,2.84l-0.148,0.049l0.513,0.79l0.083-0.021c1.139-0.311,2.141-0.992,2.848-1.937"/>
		<path class="st7" d="M-88.553-9.43L-88.553-9.43v-7.956c0-0.152-0.123-0.275-0.275-0.275h-1.335v2.267h-1.711v0.986h1.711v2.8
			c-0.779-0.287-1.605-0.423-2.434-0.4c-2.57,0-4.043,0.944-4.043,2.591s1.474,2.59,4.043,2.59s4.043-0.944,4.043-2.59
			c0-0.006,0-0.011,0-0.017 M-92.597-7.822c-1.535,0-2.416-0.582-2.416-1.6s0.881-1.6,2.416-1.6s2.416,0.582,2.416,1.6
			S-91.062-7.822-92.597-7.822"/>
	</g>
</g>
</svg>
