<svg version="1.1" id="레이어_1" xmlns="http://www.w3.org/2000/svg" x="0" y="0" width="320" height="320" style="enable-background:new 0 0 320 320" xml:space="preserve"><style>@keyframes head{0%{transform:rotateY(0deg)}to{transform:rotateY(5deg)}}@keyframes arm{0%{transform:rotate(0deg)}to{transform:rotate(5deg)}}@keyframes eye{0%{opacity:1}to{opacity:.5}}.st2,.st5{fill-rule:evenodd;clip-rule:evenodd;fill:#fff}.st5{fill:#4a54a2}.st8{fill:#6047fb}.st10,.st12{fill-rule:evenodd;clip-rule:evenodd}.st10{opacity:.2;fill:#fff;enable-background:new}.st12{fill:#59cffb}.st17{fill:#0ff0f2}</style><g style="transform-origin:center center;animation:arm 1.5s infinite alternate forwards"><radialGradient id="SVGID_1_" cx="114.443" cy="-275.45" r="44.624" gradientTransform="matrix(.1147 .9934 .4831 -.0558 247.362 129.58)" gradientUnits="userSpaceOnUse"><stop offset="0" style="stop-color:#b7bbfb"/><stop offset=".729" style="stop-color:#acacfc"/><stop offset=".804" style="stop-color:#adb2fc"/><stop offset=".906" style="stop-color:#afc4fb"/><stop offset="1" style="stop-color:#b2dafb"/></radialGradient><path d="M143.4 318.8c5.3-6.4 6.3-59.9 3.2-93.8-1.5-15.9-3.8-27.5-7-27.7-6.5-.5-20.6 39.6-21.2 60.9-.7 23.6 17.3 69.9 25 60.6z" style="fill-rule:evenodd;clip-rule:evenodd;fill:url(#SVGID_1_)"/><linearGradient id="SVGID_00000098195508372695305680000013313301969762461580_" gradientUnits="userSpaceOnUse" x1="4656.179" y1="2246.09" x2="4724.367" y2="2246.09" gradientTransform="rotate(135.333 2821.33 320.876)"><stop offset="0" style="stop-color:#4f379d"/><stop offset=".237" style="stop-color:#7e6db7;stop-opacity:.7626"/><stop offset=".607" style="stop-color:#c3bbde;stop-opacity:.3933"/><stop offset=".87" style="stop-color:#eeecf6;stop-opacity:.1299"/><stop offset="1" style="stop-color:#fff;stop-opacity:0"/></linearGradient><path style="opacity:.8;fill-rule:evenodd;clip-rule:evenodd;fill:url(#SVGID_00000098195508372695305680000013313301969762461580_);enable-background:new" d="M143.4 318.8c5.3-6.4 6.3-59.9 3.2-93.8l-16.7-8.7s-20 49 13.5 102.5z"/><path class="st2" d="M118.8 252.8s5.5 12.5 6.6 18.6c1.1 6-2.6 15-2.6 15s-5.8-22.4-4-33.6z"/></g><g style="animation:head 1.5s infinite alternate-reverse forwards"><radialGradient id="SVGID_00000136403213152014208460000018026565695991632300_" cx="117.004" cy="-3.098" r="56.373" gradientTransform="matrix(.7023 .7119 .7169 -.7071 86.754 116.457)" gradientUnits="userSpaceOnUse"><stop offset="0" style="stop-color:#b7d3fb"/><stop offset=".729" style="stop-color:#9e9efb"/><stop offset=".791" style="stop-color:#a0a4fb"/><stop offset=".876" style="stop-color:#a6b6fb"/><stop offset=".974" style="stop-color:#b0d3fb"/><stop offset=".996" style="stop-color:#b2dafb"/></radialGradient><path style="fill-rule:evenodd;clip-rule:evenodd;fill:url(#SVGID_00000136403213152014208460000018026565695991632300_)" d="M203 141.6s-27 37.6-80.1 70.3c0 0 66.7 45.4 95.1 20.9 32.1-27.7-15-91.2-15-91.2z"/><radialGradient id="SVGID_00000162322548423172512430000000237879114398526349_" cx="162.983" cy="143.237" r="37.666" fx="155.108" fy="146.864" gradientTransform="matrix(1 0 0 -1 0 320)" gradientUnits="userSpaceOnUse"><stop offset="0" style="stop-color:#fff"/><stop offset="1" style="stop-color:#d1b6fb"/></radialGradient><path style="fill-rule:evenodd;clip-rule:evenodd;fill:url(#SVGID_00000162322548423172512430000000237879114398526349_)" d="M123 211.9s7.1-43.4 80.1-70.3c-.1 0-30.1 43.9-80.1 70.3z"/><path class="st5" d="M198.6 143.3s-30 30.7-48.8 40.4c-18.8 9.7 2.1-14 2.1-14s21.5-17.7 46.7-26.4zM199.9 159.5s4.6 12.8 26.7 29.3c0 0-3.5-19.8-19.3-36.6 0 0-7.8-2.3-7.4 7.3z"/><linearGradient id="SVGID_00000091702028742826416110000001607257668975041157_" gradientUnits="userSpaceOnUse" x1="4768.158" y1="1239.795" x2="4779.023" y2="1239.795" gradientTransform="matrix(-.8812 .5526 -.5313 -.8472 5070.732 -1428.996)"><stop offset="0" style="stop-color:#4b1bdd"/><stop offset=".357" style="stop-color:#4713ca"/><stop offset="1" style="stop-color:#3d009f"/></linearGradient><path style="fill-rule:evenodd;clip-rule:evenodd;fill:url(#SVGID_00000091702028742826416110000001607257668975041157_)" d="M202.5 145.8s-11.3 12.3 7 24.7c.1.1 7.1-12.9-7-24.7z"/><linearGradient id="SVGID_00000174567572885083103910000016961319602763943822_" gradientUnits="userSpaceOnUse" x1="4701.535" y1="2110.268" x2="4701.535" y2="2174.648" gradientTransform="scale(-1) rotate(-43.262 -720.392 7092.347)"><stop offset="0" style="stop-color:#fff"/><stop offset=".164" style="stop-color:#f0ecfb"/><stop offset=".495" style="stop-color:#cabbef"/><stop offset=".961" style="stop-color:#8c6dde"/><stop offset="1" style="stop-color:#8766dc"/></linearGradient><path style="opacity:.8;fill-rule:evenodd;clip-rule:evenodd;fill:url(#SVGID_00000174567572885083103910000016961319602763943822_);enable-background:new" d="M129.9 216.3s48.6 14.8 68.8 23.7c0 0-23 4.2-68.8-23.7z"/><path class="st8" d="M219.7 231.4v-.4c-.2 0-19-2.6-25.1-25.9-7.3-28 8.5-63.1 8.6-63.5l-.4-.2c-.2.4-16 35.6-8.6 63.7 6.2 23.7 25.3 26.3 25.5 26.3zM198.6 240.1l.1-.4c-32.6-12.7-68.4-23.6-68.8-23.7l-.1.4c.4.2 36.2 11 68.8 23.7z"/><path class="st2" d="M148.4 195.6s-5.7-2.8-13.1 9.2c0 0 8.9-4.6 13.1-9.2zM185.1 238.6s-13.7-1.9-21.5-6.2c0 .1 10 .9 21.5 6.2z"/><linearGradient id="SVGID_00000091007392017291967790000014852319257917712277_" gradientUnits="userSpaceOnUse" x1="5018.867" y1="1074.261" x2="5036.717" y2="1074.261" gradientTransform="rotate(149.598 2733.308 -18.745)"><stop offset="0" style="stop-color:#c3cffb"/><stop offset=".313" style="stop-color:#bdbcfb"/><stop offset=".816" style="stop-color:#b296fb"/><stop offset=".986" style="stop-color:#b2dafb"/></linearGradient><path style="fill-rule:evenodd;clip-rule:evenodd;fill:url(#SVGID_00000091007392017291967790000014852319257917712277_)" d="M195 171.7s-9.1 36.6 14.7 54.8c0-.1-20.7-16.3-14.7-54.8z"/><path class="st8" d="M133.6 206.4c40.1-23.5 67.1-61.2 67.4-61.6l-.3-.2c-.3.4-32 44.8-77.8 67.2l.2.3c3.6-1.8 7.1-3.7 10.5-5.7z"/><path class="st10" d="M194.6 154.2s-28.7 39.9-65 54.7c0 0 28-12 65-54.7z"/><path class="st2" d="M162.8 186.1s-4.2 8.4-13.9 11c0 0 9.2-6.9 13.9-11z"/></g><g style="animation:head 1.5s infinite alternate forwards"><radialGradient id="SVGID_00000084506753167485918000000016765769262698864001_" cx="112.185" cy="219.086" r="93.08" fx="117.164" fy="199.791" gradientTransform="matrix(1 0 0 -1 0 320)" gradientUnits="userSpaceOnUse"><stop offset="0" style="stop-color:#eee8fe"/><stop offset=".627" style="stop-color:#acacfc"/><stop offset=".73" style="stop-color:#adb2fc"/><stop offset=".871" style="stop-color:#afc4fb"/><stop offset="1" style="stop-color:#b2dafb"/></radialGradient><path style="fill-rule:evenodd;clip-rule:evenodd;fill:url(#SVGID_00000084506753167485918000000016765769262698864001_)" d="M195.4 23.8S73.3 62 21.3 110.4c0 0 51.3 92.5 127.8 61.2 82-33.7 46.3-147.8 46.3-147.8z"/><path class="st12" d="M21.6 108.2s-14.5-22.2-.8-33c15.1-11.9 36 9.2 36 9.2l-35.2 23.8zM140.7 42.6S135.5 10.4 153.6 2c21.6-10.1 38.5 22.6 38.5 22.6l-51.4 18z"/><linearGradient id="SVGID_00000140724737507189517690000009018612945450242995_" gradientUnits="userSpaceOnUse" x1="5153.365" y1="670.421" x2="5153.365" y2="745.283" gradientTransform="scale(-1) rotate(-25.025 636.597 12164.958)"><stop offset="0" style="stop-color:#4a00c2"/><stop offset=".251" style="stop-color:#4000af"/><stop offset=".758" style="stop-color:#28007e"/><stop offset="1" style="stop-color:#1b0065"/></linearGradient><path style="fill-rule:evenodd;clip-rule:evenodd;fill:url(#SVGID_00000140724737507189517690000009018612945450242995_)" d="M158.1 75.9c27.8.1 15.9 64.9-31.5 88.2C76 189 44.2 135.6 44.9 128.4c.7-7.3 79.1-52.6 113.2-52.5z"/><radialGradient id="SVGID_00000173155956069677826600000000577881709577237427_" cx="4331.544" cy="769.805" r="13.402" gradientTransform="matrix(-1.094 .5107 -.423 -.9061 5102.518 -1419.017)" gradientUnits="userSpaceOnUse"><stop offset="0" style="stop-color:#c3cffb"/><stop offset=".384" style="stop-color:#bdbcfb"/><stop offset="1" style="stop-color:#b296fb"/></radialGradient><path style="fill-rule:evenodd;clip-rule:evenodd;fill:url(#SVGID_00000173155956069677826600000000577881709577237427_)" d="M21.3 110.4s1.1-23.7 35.5-26.1c0 0-22.7 14.2-35.5 26.1z"/><radialGradient id="SVGID_00000003073453987809326830000004345779269719496612_" cx="4200.773" cy="772.923" r="17.841" gradientTransform="matrix(-1.094 .5107 -.423 -.9061 5102.518 -1419.017)" gradientUnits="userSpaceOnUse"><stop offset="0" style="stop-color:#c3cffb"/><stop offset=".384" style="stop-color:#bdbcfb"/><stop offset="1" style="stop-color:#b296fb"/></radialGradient><path style="fill-rule:evenodd;clip-rule:evenodd;fill:url(#SVGID_00000003073453987809326830000004345779269719496612_)" d="M195.4 23.8S176.6 9.3 139.3 44l56.1-20.2z"/><linearGradient id="SVGID_00000171686004800400061510000018315811025279829122_" gradientUnits="userSpaceOnUse" x1="5055.167" y1="1223.572" x2="5055.167" y2="1247.541" gradientTransform="rotate(149.598 2733.308 -18.745)"><stop offset="0" style="stop-color:#9877dc"/><stop offset="1" style="stop-color:#8766dc"/></linearGradient><path style="opacity:.8;fill-rule:evenodd;clip-rule:evenodd;fill:url(#SVGID_00000171686004800400061510000018315811025279829122_);enable-background:new" d="M139.2 44s-27.3 39.7-55.1 50.6c-27.9 10.9-39-2.2-39-2.2s14-15.5 94.1-48.4z"/><path class="st8" d="M92.6 90.6c23.5-13.8 46.6-46.2 46.8-46.5l-.3-.2c-.3.4-26.9 37.8-52.1 49.2-25.1 11.4-39.3 2.2-41.8-.9l-.3.2c2.5 3.1 16.9 12.5 42.2 1 1.8-.8 3.7-1.8 5.5-2.8z"/><path class="st2" d="M195.5 56.9s6.1 15.9 1 34.5c.1 0-8.7-15.9-1-34.5zM195.3 96.3s5 6.3.9 11.3c0 .1-2.7-4.3-.9-11.3zM29.6 112.9s8.3 10.2 12.5 21.4c0 0-12.5-8.7-12.5-21.4z"/><path class="st10" d="M77.7 95.8s-16.1 5.2-27.9-.6c-.1 0 13.9 3.7 27.9.6z"/><path class="st2" d="M112 78.3s-22.3 22.2-40.4 21.1c.1-.1 14.4-1.8 40.4-21.1z"/><g style="animation:eye 1.5s infinite alternate forwards"><path class="st17" d="M147.9 137.4c-.3.1-.5.3-.8.4l-1.3-2.8.6-.3.3-.2.3-.2 1.6 2.6-.4.2-.3.3zm.2-3.8c.4-.3.7-.6 1.1-.9l2.1 2.2c-.4.4-.8.8-1.3 1.1l-1.9-2.4zm-4.2 5.4-.8-3c.4-.1.9-.2 1.3-.4l1.1 2.9c-.5.2-1 .4-1.6.5zm6.3-7.3c.3-.4.6-.7.9-1.1l2.5 1.8c-.3.5-.7.9-1 1.3l-2.4-2zm-9.6 7.8-.1-3.1c.5 0 .9-.1 1.4-.1l.4 3c-.6.1-1.2.2-1.7.2zm11.2-10.1c.2-.4.4-.8.6-1.3l2.8 1.3c-.2.5-.5 1-.8 1.5l-2.6-1.5zm-14.6 10 .4-3.1c.5.1.9.1 1.4.1l-.1 3.1c-.6 0-1.1 0-1.7-.1zm15.8-12.6c.2-.4.3-.9.4-1.4l3 .8c-.1.5-.3 1.1-.5 1.6l-2.9-1zm-19.1 11.9.9-2.9c.5.1.9.3 1.4.4l-.7 3c-.5-.2-1-.4-1.6-.5zm19.8-14.6c.1-.5.2-.9.2-1.4l3.1.3c-.1.6-.1 1.1-.2 1.6l-3.1-.5zm-22.9 13.3 1.3-2.8c.4.2.9.4 1.3.6l-1.1 2.9c-.5-.2-1-.4-1.5-.7zm23.2-16.2v-1.4l3.1-.1v1.7l-3.1-.2zm-26.1 14.6 1.7-2.6c.4.3.8.5 1.2.8l-1.5 2.7c-.4-.3-.9-.6-1.4-.9zm26.1-17.5c0-.5-.1-1-.2-1.4l3-.5c.1.5.1 1.1.2 1.6l-3 .3zm-28.7 15.5 2-2.3c.4.3.7.6 1.1.9l-1.9 2.5c-.3-.4-.8-.7-1.2-1.1zm28.2-18.4c-.1-.5-.2-.9-.4-1.4l3-.8c.2.5.3 1.1.4 1.6l-3 .6zM123 131.5l2.3-2.1c.3.4.7.7 1 1.1l-2.2 2.2c-.4-.4-.8-.8-1.1-1.2zm29.7-18.9c-.2-.5-.3-.9-.5-1.4l2.8-1.2.6 1.5-2.9 1.1zM120.9 129l2.5-1.8.9 1.2-2.4 1.9c-.3-.4-.7-.9-1-1.3zm30.7-19.1c-.2-.4-.4-.9-.7-1.3l2.7-1.5c.3.5.5 1 .8 1.5l-2.8 1.3zm-32.1 16.9c-.1-.2-.2-.4-.4-.6v-.1l2.7-1.4.3.6c.1.2.3.5.4.7l-2.6 1.6c-.1-.3-.2-.5-.4-.8zm29.9-20.7 2.5-1.8c.3.4.6.9.9 1.4l-2.6 1.6c-.3-.4-.5-.8-.8-1.2zm-31 18.6c-.2-.5-.5-1-.7-1.5l2.8-1.2c.2.4.4.9.6 1.3l-2.7 1.4zm29.2-20.8 2.3-2.1c.4.4.7.8 1.1 1.3l-2.4 1.9c-.4-.4-.7-.8-1-1.1zm-30.5 17.7c-.2-.5-.3-1-.5-1.6l3-.8c.1.5.3.9.4 1.4l-2.9 1zm28.4-19.8 2-2.3c.4.4.8.7 1.2 1.1l-2.2 2.2c-.3-.3-.6-.7-1-1zm-29.3 16.7c-.1-.5-.2-1.1-.3-1.6l3-.5c.1.5.2 1 .3 1.4l-3 .7zm27-18.4 1.7-2.6c.5.3.9.6 1.3 1l-1.9 2.4c-.3-.3-.7-.6-1.1-.8zm-27.5 15.1c0-.6-.1-1.1-.1-1.6l3.1-.1c0 .5 0 1 .1 1.4l-3.1.3zm25-16.6 1.3-2.8c.5.2 1 .5 1.5.8l-1.5 2.7c-.5-.2-.9-.5-1.3-.7zm-25 13.3c0-.6.1-1.1.1-1.7l3.1.4c-.1.5-.1 1-.1 1.4l-3.1-.1zM138 97.6l.9-2.9c.5.2 1.1.3 1.6.6l-1.1 2.9c-.5-.3-1-.5-1.4-.6zm-21.9 11c.1-.5.2-1.1.4-1.6l3 .8c-.1.5-.2.9-.3 1.4l-3.1-.6zM135.2 97l.4-3.1c.6.1 1.1.2 1.7.3l-.7 3c-.5-.1-.9-.2-1.4-.2zm-18.3 8.4c.2-.5.4-1 .6-1.6l2.8 1.3c-.2.4-.4.9-.5 1.3l-2.9-1zm15.5-8.6-.1-3.1h1.7l-.1 3.1h-1.5zm-14.1 5.5c.3-.5.6-1 .9-1.4l2.5 1.8c-.3.4-.5.8-.8 1.2l-2.6-1.6zm11.3-5.1-.8-3c.6-.1 1.1-.3 1.7-.3l.4 3c-.4.1-.8.2-1.3.3zm-9.3 2.4 1.2-1.2 2.1 2.2-1 1-2.3-2zm6.7-1.4-1.3-2.8c.5-.2 1-.5 1.6-.7l1.1 2.9c-.5.2-1 .4-1.4.6zm-4.2-1c.4-.3.9-.7 1.4-1l1.6 2.6c-.4.2-.8.5-1.1.8l-1.9-2.4zM89.4 164.7l-.8-3c.4-.1.8-.2 1.2-.4l1.3 2.8c-.5.2-1.1.4-1.7.6zm2.4-2.8-1-1.2.2-.1c.3-.2.6-.5.8-.8l2.3 2c-.4.5-.9.9-1.3 1.3l-.2.1-.8-1.3zm-5.9 3.1.2-3.1h1.3l.3 3.1h-1.8zm6.7-6.2.6-1.2 2.9 1.1c-.2.6-.5 1.1-.8 1.6l-2.7-1.5zm-10.1 5.6.8-3c.5.1.9.2 1.4.3l-.5 3c-.6 0-1.2-.1-1.7-.3zm11-8.1c.1-.4.2-.9.2-1.4l3.1.3c-.1.6-.2 1.2-.3 1.7l-3-.6zm-14.2 6.9 1.3-2.8c.4.2.9.4 1.3.6l-1.1 2.9c-.4-.2-.9-.4-1.5-.7zm14.5-9.7c0-.5 0-.9-.1-1.4l3.1-.3c0 .6.1 1.1.1 1.7h-3.1zm-17.4 8.2 1.6-2.6c.4.3.8.5 1.3.7l-1.5 2.7c-.4-.3-.9-.5-1.4-.8zm17.1-11c-.1-.5-.2-.9-.3-1.4l3-.7c.1.6.2 1.1.3 1.6l-3 .5zm-19.8 9.1 1.9-2.4 1.2.9-1.8 2.5c-.4-.4-.8-.7-1.3-1zm19.2-12c-.1-.5-.3-.9-.5-1.4l2.9-1c.2.5.4 1 .5 1.6l-2.9.8zm-21.6 9.9 2.1-2.2c.4.3.7.7 1.1 1l-2 2.3c-.4-.4-.8-.8-1.2-1.1zm20.6-12.6c-.2-.5-.4-.9-.6-1.4l2.8-1.3c.2.5.4 1 .7 1.5l-2.9 1.2zM69 155.3l2.3-2.1c.3.4.7.7 1 1.1l-2.2 2.1c-.4-.3-.7-.7-1.1-1.1zm21.7-12.9c-.2-.4-.5-.9-.7-1.3l2.7-1.5c.3.5.5.9.8 1.4l-2.8 1.4zM67 152.9l-.1-.1 2.5-1.8.9 1.2-2.4 2c-.3-.5-.6-.9-.9-1.3zm21.3-14.4 2.5-1.8c.3.4.6.9.9 1.4l-2.6 1.7c-.2-.4-.5-.9-.8-1.3zM65 150.1l2.6-1.6c.3.4.5.8.8 1.2l-2.5 1.8c-.3-.5-.6-1-.9-1.4zm21.5-14 2.4-2c.3.4.7.8 1 1.2l-1.2 1-1.3.9c-.3-.3-.6-.7-.9-1.1zm-22.3 12.6c-.3-.5-.5-1-.8-1.4l2.7-1.4c.2.4.5.9.7 1.3l-2.6 1.5zm20.3-14.8 2.2-2.1c.4.4.7.8 1.1 1.2l-2.3 2c-.3-.4-.6-.7-1-1.1zm-21.8 11.9c-.2-.5-.4-1-.7-1.5l2.8-1.2c.2.5.4.9.6 1.4l-2.7 1.3zm19.7-13.9 2-2.3c.4.4.8.7 1.2 1.1l-2.1 2.2c-.4-.4-.8-.7-1.1-1zm-20.9 10.9c-.2-.5-.3-1-.5-1.6l3-.9c.1.5.3.9.4 1.4l-2.9 1.1zM80 130l1.8-2.5c.4.3.9.6 1.3 1l-1.9 2.4-1.2-.9zm-19.5 9.6c-.1-.6-.2-1.1-.3-1.6l3-.5c.1.5.2.9.3 1.4l-3 .7zm17-11.1 1.5-2.7c.5.3.9.5 1.4.8l-1.6 2.6c-.4-.2-.8-.5-1.3-.7zM60 136.3c0-.6-.1-1.1-.1-1.7H63c0 .5 0 .9.1 1.4l-3.1.3zm14.9-9 1.1-2.9 1.5.6-1.3 2.8c-.4-.2-.8-.4-1.3-.5zm-14.8 5.6c.1-.6.2-1.2.3-1.7l3 .7c-.1.4-.2.9-.2 1.4l-3.1-.4zm12.1-6.4.6-3c.5.1 1.1.2 1.7.4l-.8 3c-.6-.2-1.1-.3-1.5-.4zm-11.4 3c.2-.6.5-1.1.8-1.6l2.6 1.6-.6 1.2-2.8-1.2zm8.7-3.2-.2-3.1c.6 0 1.2-.1 1.8 0l-.2 3.1h-1.4zm-6.8.1c.4-.4.8-.8 1.3-1.2l1 1.2-.9-1.2 1.8 2.5c-.3.2-.6.5-.9.8l-2.3-2.1zm4.3.6-1.3-2.8c.5-.3 1.1-.5 1.7-.6l.7 3c-.3.1-.7.2-1.1.4z"/></g><path id="glass" d="M152.7 79.5s-53.8 10-106.3 48.9c0 0 7.1 35.6 52.4 42.3 0 0 10.4-4.2 12.3-38 1.9-33.9 41.6-53.2 41.6-53.2z" style="opacity:.2;fill-rule:evenodd;clip-rule:evenodd;fill:#ceffff;enable-background:new"/><path class="st2" d="M110.5 56.4S67.7 83.2 58.6 83.5c0 0 21.7-12.3 51.9-27.1zM96.7 98.7s-10.7 14.2-21 10.8c0-.1 8.9-5.5 21-10.8z"/></g><g style="transform-origin:center center;animation:arm 1.5s infinite alternate forwards"><radialGradient id="SVGID_00000078033322781545081180000014308976049519793280_" cx="197.885" cy="93.473" r="55.485" gradientTransform="matrix(.8166 .5772 .2184 -.309 63.14 97.112)" gradientUnits="userSpaceOnUse"><stop offset="0" style="stop-color:#dee0fd"/><stop offset=".627" style="stop-color:#acacfc"/><stop offset=".73" style="stop-color:#adb2fc"/><stop offset=".871" style="stop-color:#afc4fb"/><stop offset="1" style="stop-color:#b2dafb"/></radialGradient><path style="fill-rule:evenodd;clip-rule:evenodd;fill:url(#SVGID_00000078033322781545081180000014308976049519793280_)" d="M302.3 222.2c12.1-1.4-17.2-41.7-37.4-53.9-18.3-11.1-59.6-21-62.7-15.2-4.7 8.8 87.9 70.5 100.1 69.1z"/><path class="st2" d="m269 205-21.5-13.9S263.4 195 269 205z"/></g></svg>