<?xml version="1.0" encoding="utf-8"?>
<!-- Generator: Adobe Illustrator 28.0.0, SVG Export Plug-In . SVG Version: 6.00 Build 0)  -->
<svg version="1.1" id="_레이어_1" xmlns="http://www.w3.org/2000/svg" xmlns:xlink="http://www.w3.org/1999/xlink" x="0px"
	 y="0px" viewBox="0 0 80 80" style="enable-background:new 0 0 80 80;" xml:space="preserve">
<style type="text/css">
	.st0{fill:none;}
	.st1{fill:#1387C9;}
	.st2{fill:#FFFFFF;}
</style>
<rect class="st0" width="80" height="80"/>
<g>
	<path class="st1" d="M15.1,33.1c0,0,0.1,0.1,0.1,0.2c0-0.1,0.1-0.3,0.1-0.4C15.2,33,15.2,33.1,15.1,33.1z"/>
	<g>
		<path class="st1" d="M54.1,18c0.5,0.3,1,0.6,2,0.7c1,0.4,2,0.7,3.1,1c0.4,0.8,0.5,2,0.7,2.7c0.3,0.9,0.3,1.2,0.8,1.8
			c1.1-0.1,1.1-3.8,2.2-4.3c0.2-0.1,1.3,0,1.6,0c0.6,0,1,0,1.5-0.1c0.9-0.2,1.6-0.4,2.4-0.8c-0.1-0.7-0.8-1.5-1.4-1.9
			c-0.6-0.4-1.2-0.9-1.7-1.5c-0.2-0.2-0.3-0.3-0.4-0.4c0.2-0.4,0.4-0.7,0.5-1.1c0.9-1,1.2-1.5,1.8-2.7c0.6-1.1,0.1-1.8-1.1-1.4
			c-0.6,0.2-0.7,0-1.2,0.4c-0.2,0-0.5,0.1-0.8,0.1c-0.8,0.2-1.6,0.7-2.3,1.1c-0.1,0-0.1,0-0.1,0c-0.4-0.1-0.8-0.5-1.1-0.9
			c-0.7-0.7-1.7-2.5-2.7-2.3c-0.9,0.2-0.7,1.6-0.4,2.4c0.1,0.2,0.2,0.4,0.3,0.7c-0.1,0.7-0.1,1.3,0.1,2.1c-0.4,0.2-0.7,0.4-1.3,0.7
			c-0.4,0.1-1,0.4-1.3,0.5c-0.8,0.2-0.9,0.3-1.5,0.8c-0.2,0.2-0.9,0.7-1,1C53.1,17.5,53.4,17.9,54.1,18z"/>
		<path class="st1" d="M78.5,49.4c-1.3-3.1-3.8-4-5.8-3.7c0,0-0.1,0-0.1,0c-0.1,0-0.1,0-0.2,0c-0.2,0-0.3,0-0.5,0.1
			c-0.5,0.1-1,0.3-1.4,0.6c0,0-0.1,0-0.1,0.1c-0.1,0.1-0.2,0.1-0.4,0.2c-0.4,0.2-0.7,0.5-1.1,0.8c-0.2,0.2-0.4,0.3-0.6,0.5
			c-0.3,0.3-0.6,0.7-0.8,1.1c-0.1,0.2-0.2,0.5-0.3,0.8C67.1,49.9,67.1,50,67,50c0,0.1-0.1,0.2-0.1,0.2c-0.1,0.3-0.3,0.6-0.4,0.8
			c0,0.1-0.1,0.3-0.1,0.4c-0.1,0.3-0.2,0.6-0.3,1c0,0.3,0,0.6,0,0.8c-2.9,1.8-6,1.3-7.8,0.7c0.1-0.1,0.1-0.2,0.2-0.3
			c-0.4-0.4,0.3-1.3,0.4-2.1c0.4,0,0,0.4,0.1,0.7c0.1-0.4,0.4,0.1,0.5-0.7c0,0,0.1,0,0,0.1c0.1-0.2-0.4-0.1-0.1-0.5l0.2,0.1
			l-0.1-0.5c0.7-1.1,0.9-2.3,1.4-3.3l0.6,0c0-0.3,0-0.6,0-0.9c0,0,0,0,0,0.1c0,0,0-0.1,0-0.1c0-0.3,0-0.6,0-0.9l0.1,0.4
			c-0.1-1.2,0.3,0.1,0.4-0.7c-0.2-1,0.4-1.6,0.4-2.1c-0.2-1-0.2,0.4-0.5-0.2c-0.1-0.5,0.1-0.3,0.1-0.7l-0.4-0.2
			c-0.2-0.6,0.3-0.1,0.1-0.4c0.1-0.5,0.2,0.1,0.4,0.2c-0.1-0.1-0.3-0.6-0.2-0.9c0.1,0,0.2,0.7,0.2,0.2c-0.5-1.5-0.2-2-0.7-3.4
			l0.2,0.1c-0.1-0.1-0.2-0.2-0.2-0.4l0.1,0.1c-0.1-0.2-0.7-1.5-1-2.4l0.4,0.4L60.6,35l0.3,0c-0.4-0.2-0.6-1.2-1-1.9l0.2-0.1
			l-0.3-0.4l0.2,0.1c-0.2-0.4-0.8-0.8-0.9-1.4c0.1,0.3,0.4,0.3,0.5,0.2c-0.3-0.4-0.7-0.8-1-1.1c0.1-0.1-0.2-0.6,0.1-0.4l-0.4-0.3
			l0.2,0c-1.1-2.2-3.1-3.1-4.4-5.1l0.1,0c-0.4-0.2-0.9-0.5-1.3-0.7c-0.2-0.2-0.1-0.4-0.4-0.8c0,0.3-0.7-0.5-1.1-0.4
			c-0.2-0.3,0.1-0.2,0.3-0.2c-1-1-2.2-1.1-3.6-1.8c1.3,0.9,1.3,0.8,2.1,1.4c-1.1-0.4-1.2-0.7-2.4-1.1l0.6,0.1c-0.5-0.7-2-0.4-2-0.9
			c-0.8-0.1-1.5,0.2-2.4,0l0.4-0.3l-0.8-0.1l0,0.3c-0.3,0-0.4-0.1-0.4-0.2c-0.6,0.2-1.3,0-2.1,0.2l-0.1-0.1c-0.1,0-0.1,0.1-0.2,0.1
			c-0.1-0.2-0.8-0.2-0.8-0.4c0.2,0,0.8-0.1,0.8,0c0.6-0.2-0.8-0.2-1.2-0.2c0.4,0.1-0.1,0.2-0.4,0.2c0,0,0-0.1,0.1-0.1
			c-0.8-0.1-1,0.6-1.6,0.1l-0.1,0.3l-0.6-0.2c0,0.5-0.9,0.1-0.9,0.6c-0.7,0.1,0.1-0.3-0.2-0.2c-0.7-0.1-1.7,0.5-2,0.4
			c-0.5,0.3-1.1,0.3-1.6,0.5l-0.1-0.2c-0.2,0.1-0.5,0.3-0.7,0.3c0,0,0-0.1,0.1-0.1c-0.9,0.4-1.6,0.5-2.3,0.8c0-0.2,0-0.2,0.4-0.4
			c-0.8,0.1-1.7,0.9-2.7,1.3l0-0.1l-0.5,0.4c0.1-0.1,0-0.2-0.1-0.2c-1,0.4-2,1.1-2.3,1.7c0-0.1-0.5,0-0.2-0.4
			c-0.7,0.8-1.9,1.5-2.7,2.4l0,0l-0.3,0.4l-0.1,0l0.2-0.3c-0.3,0.3-0.6,0.7-0.8,1c-0.1,0-0.3-0.1-0.6,0.1c0.2,0.2-1.2,0.8-1.3,1.4
			c-0.1,0,0.1-0.2-0.1-0.1c-0.9,1.1-1.9,2.8-2.9,4.1c0,0.1,0,0.1,0,0.2c-1.1-1.1-2.2-2.5-2.6-3.8c-0.6-1.7-1.2-3.8-1-5.5
			c0.2-2,1-3.7,2.1-4.7c2.2-1.8,3.5-1.6,5.3-1.7c1.8,0,2.1-1.7,1.1-2.6c-0.7-0.6-1.7-0.8-3.6-0.3c-0.7,0.2-2.8-0.2-0.8-2.1
			c2.2-2.2,2.4-1.8,3.6-2.9c1.7-1.7,0.5-5-3.8-1.9c-1.4,1-2.7,2.3-3.3,2c-0.9-0.5,2.4-5.2,1.3-6.4c-2.6-2.7-4.4,2.3-4.9,4.1
			c-0.8,2.9-1.6,1.8-1.3,0c0.5-3.2-2.7-2.4-3.1,0c-0.4,2.2,0,3.4,0,4c0,0.2-1.2,2.7-1,5.5c0.1,2.3,0.6,2.8,0.9,4.7
			C4.1,23.3,5.2,28,7.1,31c2,3.1,4.2,5.3,5.8,6.6c-0.1,0.3-0.3,0.5-0.4,0.8c0.1,0.1,0.2,0.1,0.2,0.2c-0.2,0.8-0.3,1.6-0.5,2.3
			c0,0.1,0.2,0.1,0.2-0.1c0,0.7,0.3,1.4,0.2,2.2l-0.1-0.2c-0.1,1.1,0.3,1.2,0.7,2.2c-0.1-0.3-0.2-0.8,0-0.8c0.2,0.1,0.3,0.8,0.2,1
			l0.1-0.1c0.1,0.3,0.2,0.7,0.3,1c0,0,0,0,0,0l0,0.1c0.1,0.2,0.1,0.4,0.2,0.5c0.1,0.4,0.2,0.9,0.4,1.1c0,0.1,0,0.1,0,0.2
			c0,0,0,0,0,0c0,0.1,0,0.1,0,0.2c0,0.1,0,0.2,0.1,0.3c0,0.1,0,0.1,0,0.2c0,0,0,0,0,0c0,0,0,0,0,0c0,0,0,0.1,0,0.1
			c0,0.1,0,0.2,0.1,0.3c0,0.1,0,0.2,0.1,0.2c0,0,0,0,0,0.1l-0.2-0.3c0.4,0.9-0.3,0-0.2,0.7c0.4,0.7-0.1,1.4,0.1,1.8
			c0.4,0.8,0.1-0.4,0.5,0c0.2,0.4-0.1,0.3,0,0.6l0.4,0c0.3,0.4-0.3,0.2,0,0.4c0,0.5-0.2-0.1-0.5,0c0.1,0.1,0.4,0.4,0.4,0.6
			c-0.1,0-0.4-0.4-0.2-0.1c0.8,1.1,0.7,1.5,1.5,2.5l-0.2,0c0.1,0.1,0.2,0.1,0.3,0.3l-0.1,0c0.1,0.2,1.1,0.9,1.6,1.5l-0.4-0.2
			c0.2,0.1,0.5,0.2,0.7,0.3L18.1,58c0.1,0,0.2,0,0.3,0.1c-2.1,1.6-3.1,4.8-6.5,2.4c-1.5-1-2.9-2.2-4.8-2.1c-1.1,0.1-3.2,0.7-3.6,2
			c-0.4,1.2,1.2,2.1,2,2.6c1.5,1,2.3,2.6,3.4,3.9c0.8,1,1.9,1.7,2.9,2.5c0.6,0.5,1.1,1.4,1.8,1.9c2.1,1.4,4.3-1,5.4-2.6
			c1.5-2.2,3.3-4.2,4.7-6.5c1,0.4,2.1,0.6,3,1.4l-0.1,0c0.4,0,0.8,0.1,1.2,0.1c0.2,0.1,0.1,0.4,0.4,0.6c-0.1-0.3,0.6,0.2,0.9,0
			c0.2,0.2-0.1,0.2-0.2,0.3c1,0.6,1.9,0.4,3,0.8c-1.1-0.6-1.1-0.6-1.8-0.9c1,0.1,1,0.4,2,0.6l-0.5,0c0.4,0.5,1.6,0.1,1.6,0.6
			c0.6,0,1.2-0.3,1.9-0.2l-0.4,0.4l0.7,0.1l0-0.3c0.2,0,0.3,0.1,0.3,0.1c0.5-0.3,1.1-0.1,1.8-0.3l0.1,0.1c0,0,0.1-0.1,0.1-0.1
			c0.1,0.2,0.6,0.1,0.7,0.4C38.4,66,38,66.2,38,66c-0.5,0.3,0.6,0.1,1,0.1c-0.4-0.1,0.1-0.2,0.3-0.2c0,0,0,0.1-0.1,0.1
			c0.7,0.1,0.8-0.6,1.3-0.2l0.1-0.3l0.5,0.1c0-0.5,0.7-0.1,0.7-0.6c0.6-0.1,0,0.3,0.2,0.2c0.6,0,1.4-0.6,1.6-0.4
			c0.3-0.2,0.6-0.2,0.8-0.3c0.5,1.9,1.2,3.9,2.1,5.7c0.5,0.2,0.7,0.7,0.9,1.2c1.1,0.5,1.1,3.1,1.9,4.1c0.8,1,2,1.9,3.3,1.9
			c1.5,0,1.5-0.9,2.3-1.9c1.6-2.1,4.1-3.5,5.5-5.8c0.8-1.2,3-4.6,0.1-4.6c-2.4,0-4.5,2.3-7.1,1.2c-1.6-0.7-2-2.7-3-4.1
			c0.5-0.3,0.9-0.7,1-1.1c0,0.1,0.5,0,0.2,0.4c0.6-0.7,1.5-1.4,2.1-2.1l0,0l0.2-0.3l0,0l-0.2,0.2c0.3-0.3,0.5-0.6,0.6-0.9
			c0.1,0,0.3,0.1,0.5,0c-0.2-0.2,1-0.6,1-1.2c0.1,0-0.1,0.2,0.1,0.1c0,0,0-0.1,0.1-0.1c8.3,3.7,13.9,1.6,15,1.2c1,0,2.1-0.1,3.1-0.5
			c0.8-0.3,1.7-0.6,2.4-1.1c0.1-0.1,0.2-0.1,0.2-0.2C78.4,56,79.8,52.6,78.5,49.4z M60.1,47.6l0.2,0c0,0.1,0,0.1,0,0.2l0.1-0.1
			c-0.1,0.3,0.2,0.6-0.2,0.9c-0.2-0.1-0.1-0.4-0.1-0.5c-0.1,0.1,0.2,0.6-0.1,0.8C59.9,48.6,60,48,60.1,47.6z M58.8,51.1
			c0-0.1,0.1-0.2,0.1-0.2c0,0.1,0,0.1,0.1,0.2c0.2-0.2,0.1-0.4,0.1-0.6c0.1-0.2,0.1-0.3,0.2-0.5c0-0.1,0.1-0.1,0.1-0.2
			c0.1-0.2,0.2-0.5,0.3-0.7c0,0,0,0,0,0c0,0,0,0,0,0c-0.2,0.9-0.4,1.8-0.9,2.6c0-0.2,0-0.2,0-0.3C58.7,51.1,58.8,51.1,58.8,51.1z
			 M12.7,40.6c0-0.4-0.2-0.7,0.1-1.2c0.2,0,0.1,0.4,0.2,0.6c0.1-0.1-0.3-0.7,0-1c0.2,0.4,0.1,1.2,0.1,1.8c0,0,0,0,0,0
			c0,0.1,0,0.2,0,0.3c-0.1-0.1-0.2-0.3-0.2-0.7L12.7,40.6z M13.1,42.9c0,0.2,0,0.5,0,0.7c-0.4-0.2-0.1-1.2-0.2-1.4
			c0.1,0,0.2,0.1,0.2,0.1c0,0.5,0.1,0.9,0.1,1.4C13.2,43.5,13.1,43.2,13.1,42.9z M19.3,29.3c-0.4,0.2-1.1,0.9-1.4,1.3
			c-0.3,0.1,0-0.5,0.1-0.8c0.4,0.7,0.5-0.6,1-0.8c0,0.1-0.2,0.4-0.2,0.5c0.1-0.1,0.3-0.3,0.5-0.4C19.2,29.2,19.2,29.3,19.3,29.3
			c0.1,0,0.1-0.1,0.2-0.1C19.4,29.3,19.3,29.3,19.3,29.3z M30.3,21.8c-0.2-0.2,0.2-0.5,0.7-0.6c0.5-0.3,0.3,0.2,0.5,0
			C31.4,21.5,30.7,21.6,30.3,21.8z"/>
	</g>
	<path class="st2" d="M44.9,54.6c1.3-0.5,4.5-1.3,3.2-3.3c-0.3-0.5-1.2-0.9-1.7-0.6c-1,0.5-2.2,0.8-3.1,1.4c-0.4,0.2-0.6,0.4-1,0.4
		c-0.7,0.1-1.4,0.3-2.1,0.4c-0.2,0-0.5,0.1-0.7,0.1c-0.6,0.1-1.2,0.2-1.9,0.3c-1.1,0.1-2.1,0.3-3.1,0c-0.4-0.1-0.9-0.1-1.3-0.1
		c-0.4,0-0.9-0.1-1.3-0.2c-0.9-0.2-1.8-0.6-2.7-1c-1.6-0.8-3.2-1.9-4.2-3.4c-0.3-0.5-0.9-0.6-1.4-0.2c-0.4,0.4-0.5,1.1-0.2,1.6
		c0.5,0.8,1.2,1.9,2.1,2.4c0.5,0.3,0.8,0.3,1,0.9c0.1,0,0.2,0,0.3,0c-0.3,0,0.5,0.5,0.4,0.5c0.3,0.2,0.7,0.4,1,0.6
		c0.9,0.5,1.8,0.9,2.8,1.2c0.5,0.1,1,0.3,1.4,0.4c0.5,0.1,1,0.1,1.5,0.2c0.6,0.1,1.1,0,1.7,0.1c0.6,0,1.2,0,1.7,0
		c1.2-0.1,2.4-0.3,3.6-0.6C42.4,55.5,43.7,55.1,44.9,54.6"/>
	<path class="st2" d="M21.5,36.4c-2.4,1.5,0.7,5.4,2.8,3.2C26.5,37.3,23.4,35.2,21.5,36.4"/>
	<path class="st2" d="M49.9,38.1c-3.1,0-2,5.1,0.7,4.5C53.5,41.9,52.5,38.1,49.9,38.1"/>
</g>
</svg>
