<svg version="1.1" id="레이어_1" xmlns="http://www.w3.org/2000/svg" x="0" y="0" width="320" height="252" style="enable-background:new 0 0 320 252" xml:space="preserve"><style>.st4{fill-rule:evenodd;clip-rule:evenodd;fill:#31165e}.st6{fill:#53345f}.st12{opacity:.5;fill-rule:evenodd;clip-rule:evenodd;fill:#31165e;enable-background:new}.st13{fill:#fff}.st26,.st31{fill-rule:evenodd;clip-rule:evenodd;fill:#6f2662}.st31{fill:#fff}</style><radialGradient id="SVGID_1_" cx="114.763" cy="128.452" r="133.767" fx="89.027" fy="123.369" gradientTransform="matrix(-.7664 .6423 -.1836 -.219 235.676 96.85)" gradientUnits="userSpaceOnUse"><stop offset="0" style="stop-color:#00cfff"/><stop offset=".861" style="stop-color:#d2fffd;stop-opacity:0"/></radialGradient><path d="M49.293 251.209 0 184.814c95.191-59.722 145.605-76.315 155.038-63.609 9.434 12.707-21.036 56.164-105.745 130.004z" style="fill:url(#SVGID_1_)"/><linearGradient id="SVGID_00000181048267559093771130000007375531570194655660_" gradientUnits="userSpaceOnUse" x1="1332.602" y1="405.295" x2="1332.602" y2="463.55" gradientTransform="scale(1 -1) rotate(-54.977 197.9 1245.559)"><stop offset="0" style="stop-color:#a23440"/><stop offset="1" style="stop-color:#c53634"/></linearGradient><path style="fill-rule:evenodd;clip-rule:evenodd;fill:url(#SVGID_00000181048267559093771130000007375531570194655660_)" d="m203.305 129.507 10.721 10.544s-21.177 17.732-56.535 20.832l-.804-1.147 34.385-22.725-1.611-2.482 13.844-5.022z"/><linearGradient id="SVGID_00000111189463682427663300000002534197039893328015_" gradientUnits="userSpaceOnUse" x1="1253.596" y1="405.301" x2="1253.596" y2="463.558" gradientTransform="scale(1 -1) rotate(-54.977 197.9 1245.559)"><stop offset="0" style="stop-color:#a23440"/><stop offset="1" style="stop-color:#c53634"/></linearGradient><path style="fill-rule:evenodd;clip-rule:evenodd;fill:url(#SVGID_00000111189463682427663300000002534197039893328015_)" d="m164.489 74.24-6.422-14.053s-23.896 13.851-38.881 46.026l.804 1.147 33.098-24.561 1.783 2.362 9.618-10.921z"/><radialGradient id="SVGID_00000041281853557112932770000004056022239507329409_" cx="1387.726" cy="4834.052" r="52.061" gradientTransform="matrix(.7196 1.027 1.877 -1.3153 -9801.225 4985.82)" gradientUnits="userSpaceOnUse"><stop offset="0" style="stop-color:#f2b8b1"/><stop offset=".765" style="stop-color:#8b6ec5"/><stop offset=".964" style="stop-color:#b493e3"/></radialGradient><path style="fill-rule:evenodd;clip-rule:evenodd;fill:url(#SVGID_00000041281853557112932770000004056022239507329409_)" d="M314.763 10.094c-10.987-15.68-66.005-13.745-99.779 12.883s-74.103 79.005-74.103 79.005l13.875 20.228 14.275 19.948s62.998-20.024 99.557-42.679c36.561-22.654 57.089-73.811 46.175-89.385z"/><path class="st4" d="M140.882 101.982s18.055 21.441 28.151 40.176c0 .001-17.942-20.88-28.151-40.176z"/><radialGradient id="SVGID_00000121242101105962519230000006446643018826129592_" cx="1293.475" cy="-145.355" r="17.561" gradientTransform="matrix(.5739 .8189 .7436 -.5211 -319.867 -1124.511)" gradientUnits="userSpaceOnUse"><stop offset=".022" style="stop-color:#a95e74"/><stop offset=".26" style="stop-color:#9c567a"/><stop offset=".689" style="stop-color:#7c438b"/><stop offset=".994" style="stop-color:#62349a"/></radialGradient><path style="fill-rule:evenodd;clip-rule:evenodd;fill:url(#SVGID_00000121242101105962519230000006446643018826129592_)" d="M284.083.181s22.61 17.284 28.542 44.638c0 0 10.009-23.274 2.138-34.725-7.081-10.301-30.68-9.913-30.68-9.913z"/><path class="st6" d="M312.396 44.867C307.105 19.269 284.167.549 283.937.364l.294-.364c.232.188 23.299 19.01 28.623 44.772l-.458.095z"/><path d="m309.823 5.688 7.637 12.161s.082-8.936-7.637-12.161z" style="fill-rule:evenodd;clip-rule:evenodd;fill:#53345f"/><linearGradient id="SVGID_00000104673024952134636540000006154916713058512275_" gradientUnits="userSpaceOnUse" x1="1292.832" y1="619.804" x2="1292.832" y2="627.077" gradientTransform="scale(1 -1) rotate(-54.977 197.9 1245.559)"><stop offset="0" style="stop-color:#ffff17"/><stop offset="1" style="stop-color:#fd7400"/></linearGradient><path style="fill-rule:evenodd;clip-rule:evenodd;fill:url(#SVGID_00000104673024952134636540000006154916713058512275_)" d="M311.531 6.924s2.79 2.747 4.8 6.489c0 0 4.683-5.207 3.467-7.355-1.217-2.148-8.267.866-8.267.866z"/><path class="st4" d="M290.765 24.956c-11.019-13.381-34.95-11.636-50.121-1.969S225.907 52.4 236.363 66.46c10.455 14.06 28.65 19.022 43.615 6.091 13.529-11.691 23.016-32.746 10.787-47.594v-.001z"/><path d="M287.827 28.413c-9.663-12.134-27.37-9.207-39.214-1.665-11.845 7.542-11.457 23.026-3.244 34.074 8.213 11.049 22.459 14.984 34.135 4.881 10.555-9.134 18.418-24.613 8.323-37.29z" style="fill-rule:evenodd;clip-rule:evenodd;fill:#a4345f"/><linearGradient id="SVGID_00000016782107145717275200000007369763587747317413_" gradientUnits="userSpaceOnUse" x1="1293.194" y1="534.914" x2="1293.194" y2="585.801" gradientTransform="scale(1 -1) rotate(-54.977 197.9 1245.559)"><stop offset="0" style="stop-color:#ffff29"/><stop offset="1" style="stop-color:#fd7e59"/></linearGradient><path style="fill-rule:evenodd;clip-rule:evenodd;fill:url(#SVGID_00000016782107145717275200000007369763587747317413_)" d="m257.804 69.798-.013-.002-.026-.004c-4.682-1.549-8.963-4.759-12.243-9.163-7.815-10.518-8.182-26.7 3.089-33.879 3.793-2.407 8.125-4.209 12.599-5.073 8.826-1.743 18.157.155 24.728 8.097 9.708 11.738 2.123 26.802-7.926 35.498-6.454 5.584-13.725 6.66-20.21 4.525h.002z"/><path transform="rotate(-35.015 215.866 80.67)" class="st6" d="M190.907 80.436h49.898v.468h-49.898z"/><path class="st6" d="m168.368 68.947.294-.364c38.419 30.92 45.045 57.096 45.108 57.356l-.455.109c-.062-.258-6.67-26.294-44.947-57.101zM179.882 56.362l.171-.434c.162.063 16.364 6.602 32.433 27.089l-.368.29c-15.986-20.38-32.075-26.88-32.236-26.944v-.001z"/><path class="st4" d="m169.296 120.265 17.241-12.925 4.602 3.965-19.193 12.74z"/><radialGradient id="SVGID_00000092424219856691525630000017678938719452097979_" cx="1292.765" cy="3950.911" r="12.188" gradientTransform="matrix(.5739 .8189 1.5077 -1.0565 -6545.078 3238.25)" gradientUnits="userSpaceOnUse"><stop offset=".022" style="stop-color:#725eae"/><stop offset=".383" style="stop-color:#6d51a8"/><stop offset=".994" style="stop-color:#62349a"/></radialGradient><path style="fill-rule:evenodd;clip-rule:evenodd;fill:url(#SVGID_00000092424219856691525630000017678938719452097979_)" d="M142.847 105.555s13.909 16.27 24.37 34.436l-8.629 4.505-21.938-33.162 6.198-5.779h-.001z"/><path class="st12" d="M139.716 108.475s7.332 3.657 12.654 11.609 8.217 23.368 8.217 23.368l6.63-3.46s-11.243-19.91-24.37-34.436l-3.132 2.92v-.001z"/><path class="st13" d="M286.564 40.941s-.617 4.883-3.895 11.116l3.49 1.616s3.572-5.624 2.616-10.774l-2.211-1.958zM247.81 33.201l-2.389 5.027-2.906-1.317 2.177-3.941z"/><linearGradient id="SVGID_00000110443416579746774740000009375151153996885432_" gradientUnits="userSpaceOnUse" x1="1291.485" y1="490.014" x2="1291.485" y2="493.085" gradientTransform="scale(1 -1) rotate(-54.977 197.9 1245.559)"><stop offset="0" style="stop-color:#8bc5fd"/><stop offset=".316" style="stop-color:#5d4d84"/></linearGradient><path style="fill-rule:evenodd;clip-rule:evenodd;fill:url(#SVGID_00000110443416579746774740000009375151153996885432_)" d="M208.931 83.985a1.535 1.535 0 1 1-1.764-2.513 1.535 1.535 0 0 1 1.765 2.512l-.001.001z"/><radialGradient id="SVGID_00000173842392340545587520000007603190303336709040_" cx="1291.711" cy="492.148" r="1.209" gradientTransform="scale(1 -1) rotate(-54.977 197.9 1245.559)" gradientUnits="userSpaceOnUse"><stop offset=".022" style="stop-color:#8680ba"/><stop offset=".292" style="stop-color:#8173b5"/><stop offset=".78" style="stop-color:#7353a7"/><stop offset="1" style="stop-color:#6d43a1"/></radialGradient><path style="fill-rule:evenodd;clip-rule:evenodd;fill:url(#SVGID_00000173842392340545587520000007603190303336709040_)" d="M208.743 83.718a1.209 1.209 0 1 1-1.387-1.98 1.209 1.209 0 0 1 1.387 1.98z"/><linearGradient id="SVGID_00000028282747176377425290000014947506964296715955_" gradientUnits="userSpaceOnUse" x1="1291.486" y1="497.588" x2="1291.486" y2="500.659" gradientTransform="scale(1 -1) rotate(-54.977 197.9 1245.559)"><stop offset="0" style="stop-color:#8bc5fd"/><stop offset=".316" style="stop-color:#5d4d84"/></linearGradient><path style="fill-rule:evenodd;clip-rule:evenodd;fill:url(#SVGID_00000028282747176377425290000014947506964296715955_)" d="M215.133 79.639a1.534 1.534 0 1 1-1.762-2.514 1.535 1.535 0 1 1 1.763 2.514h-.001z"/><radialGradient id="SVGID_00000014620115179083445020000009903112960836967058_" cx="1284.811" cy="684.185" r="1.209" gradientTransform="matrix(1 0 0 -1 0 322)" gradientUnits="userSpaceOnUse"><stop offset=".022" style="stop-color:#8680ba"/><stop offset=".292" style="stop-color:#8173b5"/><stop offset=".78" style="stop-color:#7353a7"/><stop offset="1" style="stop-color:#6d43a1"/></radialGradient><path style="fill-rule:evenodd;clip-rule:evenodd;fill:url(#SVGID_00000014620115179083445020000009903112960836967058_)" d="M214.946 79.372a1.209 1.209 0 1 1-1.387-1.98 1.209 1.209 0 0 1 1.387 1.98z"/><path class="st4" d="M242.904 29.313a1.535 1.535 0 1 1-1.761-2.511 1.535 1.535 0 0 1 1.76 2.51l.001.001z"/><radialGradient id="SVGID_00000130645258128785747870000015298288135955080355_" cx="1266.436" cy="551.348" r="1.209" gradientTransform="scale(1 -1) rotate(-54.977 197.9 1245.559)" gradientUnits="userSpaceOnUse"><stop offset="0" style="stop-color:#f2b8b1"/><stop offset="1" style="stop-color:#8b6ec5"/></radialGradient><path style="fill-rule:evenodd;clip-rule:evenodd;fill:url(#SVGID_00000130645258128785747870000015298288135955080355_)" d="M242.717 29.046a1.209 1.209 0 1 1-1.389-1.982 1.209 1.209 0 0 1 1.39 1.983l-.001-.001z"/><path class="st4" d="M262.246 19.048a1.534 1.534 0 1 1-1.762-2.514 1.535 1.535 0 1 1 1.762 2.515v-.001z"/><radialGradient id="SVGID_00000036240711044526963540000001567423551671451026_" cx="1262.215" cy="757.541" r="1.21" gradientTransform="matrix(1 0 0 -1 0 322)" gradientUnits="userSpaceOnUse"><stop offset="0" style="stop-color:#f2b8b1"/><stop offset="1" style="stop-color:#8b6ec5"/></radialGradient><path style="fill-rule:evenodd;clip-rule:evenodd;fill:url(#SVGID_00000036240711044526963540000001567423551671451026_)" d="M262.058 18.781a1.209 1.209 0 1 1-1.387-1.98 1.209 1.209 0 0 1 1.387 1.98z"/><path class="st4" d="M237.096 50.927a1.535 1.535 0 1 1-1.761-2.511 1.535 1.535 0 0 1 1.76 2.51l.001.001z"/><radialGradient id="SVGID_00000074418980864391314250000005870995315412499625_" cx="1273.898" cy="718.65" r="1.209" gradientTransform="matrix(1 0 0 -1 0 322)" gradientUnits="userSpaceOnUse"><stop offset="0" style="stop-color:#f2b8b1"/><stop offset="1" style="stop-color:#8b6ec5"/></radialGradient><path style="fill-rule:evenodd;clip-rule:evenodd;fill:url(#SVGID_00000074418980864391314250000005870995315412499625_)" d="M236.908 50.66a1.209 1.209 0 1 1-1.389-1.98 1.209 1.209 0 0 1 1.39 1.98h-.001z"/><path class="st4" d="M249.228 71.461a1.534 1.534 0 1 1-1.762-2.514 1.535 1.535 0 1 1 1.762 2.515v-.001z"/><radialGradient id="SVGID_00000037662531152162167010000012662654977204882560_" cx="1297.668" cy="716.801" r="1.209" gradientTransform="matrix(1 0 0 -1 0 322)" gradientUnits="userSpaceOnUse"><stop offset="0" style="stop-color:#f2b8b1"/><stop offset="1" style="stop-color:#8b6ec5"/></radialGradient><path style="fill-rule:evenodd;clip-rule:evenodd;fill:url(#SVGID_00000037662531152162167010000012662654977204882560_)" d="M249.041 71.193a1.209 1.209 0 1 1-1.389-1.98 1.209 1.209 0 0 1 1.39 1.98h-.001z"/><path class="st4" d="M270.2 76.422a1.535 1.535 0 1 1-1.761-2.516 1.535 1.535 0 0 1 1.76 2.517l.001-.001z"/><radialGradient id="SVGID_00000112615682726233909900000002098973625047952520_" cx="1313.784" cy="731.127" r="1.209" gradientTransform="matrix(1 0 0 -1 0 322)" gradientUnits="userSpaceOnUse"><stop offset="0" style="stop-color:#f2b8b1"/><stop offset="1" style="stop-color:#8b6ec5"/></radialGradient><path style="fill-rule:evenodd;clip-rule:evenodd;fill:url(#SVGID_00000112615682726233909900000002098973625047952520_)" d="M270.013 76.154a1.209 1.209 0 1 1-1.389-1.98 1.209 1.209 0 0 1 1.39 1.98h-.001z"/><path class="st4" d="M291.067 58.79a1.534 1.534 0 1 1-1.762-2.514 1.535 1.535 0 1 1 1.763 2.514h-.001z"/><radialGradient id="SVGID_00000108302275214921868620000005900687091221372560_" cx="1311.299" cy="758.336" r="1.209" gradientTransform="matrix(1 0 0 -1 0 322)" gradientUnits="userSpaceOnUse"><stop offset="0" style="stop-color:#f2b8b1"/><stop offset="1" style="stop-color:#8b6ec5"/></radialGradient><path style="fill-rule:evenodd;clip-rule:evenodd;fill:url(#SVGID_00000108302275214921868620000005900687091221372560_)" d="M290.88 58.523a1.208 1.208 0 1 1-1.39-1.98 1.208 1.208 0 0 1 1.39 1.981v-.001z"/><path class="st4" d="M295.614 40.832a1.535 1.535 0 1 1-1.761-2.516 1.535 1.535 0 0 1 1.76 2.517l.001-.001z"/><radialGradient id="SVGID_00000157292316831151190200000000472243274436274108_" cx="1299.222" cy="772.366" r="1.209" gradientTransform="matrix(1 0 0 -1 0 322)" gradientUnits="userSpaceOnUse"><stop offset="0" style="stop-color:#f2b8b1"/><stop offset="1" style="stop-color:#8b6ec5"/></radialGradient><path style="fill-rule:evenodd;clip-rule:evenodd;fill:url(#SVGID_00000157292316831151190200000000472243274436274108_)" d="M295.427 40.565a1.208 1.208 0 1 1-1.388-1.979 1.208 1.208 0 0 1 1.389 1.979h-.001z"/><path class="st4" d="M285.724 22.886a1.535 1.535 0 1 1-1.764-2.513 1.535 1.535 0 0 1 1.765 2.512l-.001.001z"/><radialGradient id="SVGID_00000131339791698746903350000008347579082598519206_" cx="1278.823" cy="774.566" r="1.209" gradientTransform="matrix(1 0 0 -1 0 322)" gradientUnits="userSpaceOnUse"><stop offset="0" style="stop-color:#f2b8b1"/><stop offset="1" style="stop-color:#8b6ec5"/></radialGradient><path style="fill-rule:evenodd;clip-rule:evenodd;fill:url(#SVGID_00000131339791698746903350000008347579082598519206_)" d="M285.538 22.619a1.209 1.209 0 1 1-1.387-1.98 1.209 1.209 0 0 1 1.387 1.98z"/><path class="st26" d="m119.99 107.361.648.925 33.125-24.591-.676-.895zM191.073 137.011l-.61-.941-34.211 23.042.437.624z"/><linearGradient id="SVGID_00000000909556134876651610000008085957712695279768_" gradientUnits="userSpaceOnUse" x1="1304.562" y1="405.298" x2="1304.562" y2="470.029" gradientTransform="scale(1 -1) rotate(-54.977 197.9 1245.559)"><stop offset="0" style="stop-color:#a23411"/><stop offset="1" style="stop-color:#c53634"/></linearGradient><path style="fill-rule:evenodd;clip-rule:evenodd;fill:url(#SVGID_00000000909556134876651610000008085957712695279768_)" d="m197.576 105.289 2.321 3.31-55.331 33.835-1.615-2.305z"/><path style="fill-rule:evenodd;clip-rule:evenodd;fill:#fd4c61" d="m197.576 105.289-13.349 5.917-41.276 28.923z"/><path class="st12" d="m198.192 109.641-29.159 32.516-5.171-8.309-8.485 5.794-1.873-2.674z"/><path class="st13" d="M261.869 5.212s3.418-2.881 7.283-2.147l1.229 1.949s-4.388.885-7.855 1.135l-.657-.937z"/><linearGradient id="SVGID_00000157274784585106187500000015760671448508830393_" gradientUnits="userSpaceOnUse" x1="1334.985" y1="564.887" x2="1338.821" y2="564.887" gradientTransform="scale(1 -1) rotate(-54.977 197.9 1245.559)"><stop offset="0" style="stop-color:#ffff17"/><stop offset="1" style="stop-color:#fd7400"/></linearGradient><path style="fill-rule:evenodd;clip-rule:evenodd;fill:url(#SVGID_00000157274784585106187500000015760671448508830393_)" d="M295.845 74.305s5.31 5-4.54 5.545l4.54-5.545z"/><linearGradient id="SVGID_00000052784559441527333080000010438177652642259595_" gradientUnits="userSpaceOnUse" x1="1248.194" y1="565.942" x2="1251.798" y2="565.942" gradientTransform="scale(1 -1) rotate(-54.977 197.9 1245.559)"><stop offset="0" style="stop-color:#ffff17"/><stop offset="1" style="stop-color:#fd7400"/></linearGradient><path style="fill-rule:evenodd;clip-rule:evenodd;fill:url(#SVGID_00000052784559441527333080000010438177652642259595_)" d="M248.895 5.63s-5.405-4.297-6.519 2.232l6.519-2.232z"/><path class="st31" d="M272.867 14.385s.967 4.167 8.369 1.816c0 0-4.531-1.618-8.369-1.816z"/><g style="opacity:.36"><path class="st31" d="M228.698 69.695c-.559-.213-1.487-.717-2.011-.158-.244.261-.37.601-.582.883a4.175 4.175 0 0 1-.642.673c-.325.272-.729.828-.822 1.261-.07.329.277.378.555.371.305-.008.621-.018.882-.181.34-.213.672-.427 1.048-.566.145-.054.323-.037.472-.099.198-.082.375-.224.546-.352.369-.275.885-1.057.555-1.833h-.001zM222.419 71.642c.133-.172.294-.239.482-.201.409.612-.635 1.66-1.265 1.256-.724-.465.116-1.174.646-1.247l.135.194.002-.002zM206.985 65.874c.373.209.766.324.931.729.14.344.133.702.045 1.056-.109.441-.393.793-.67 1.142-.136.172-.239.369-.454.448-.843.31-1.912-.149-2.569-.651-.38-.291-.756-.539-1.063-.909-.207-.25-.437-.493-.667-.725-.194-.196-.428-.336-.529-.605-.072-.194-.081-.511-.072-.715.029-.658.315-1.26.86-1.611.951-.614 2.464-.027 3.368.463.743.402 1.811 1.115.817 1.378h.003zM210.276 67.894c-.327.097-.462.075-.458.391.003.228.16.441.332.568.336.248 1.108.311 1.272-.162.082-.239.18-.737.06-.952-.238-.424-1.154-.526-1.476-.231l.271.387h-.001zM209.704 86.321c-.185.058-.297.135-.455.247-.359.253-.719.504-1.077.758-.675.478-1.42.851-2.101 1.324-.494.343-.922.77-1.355 1.183-.222.212-.449.447-.652.674.06.046.188-.029.262-.043.247-.047.491-.143.738-.171.56-.062 1.138-.136 1.692-.24.102-.02.202-.071.308-.067.133.005.287.043.419.058.237.026.489.031.724-.02.548-.12 1.062-.475 1.502-.815.15-.116.269-.261.423-.374.166-.122.323-.238.474-.379.319-.298.53-.703.711-1.097.213-.46.674-1.138.453-1.672-.108-.261-.416-.17-.624-.075-.263.119-.498.285-.754.414-.337.171-.781.324-.685.297l-.003-.002zM213.235 84.567c.243-.019.654-.101.778.196.123.291-.233.55-.451.661-.516.261-.447-.684-.113-.862l-.212.005h-.002zM213.504 91.229c-.243.042-.466.081-.641.265-.249.262-.209.563-.024.851.285.442.6.66 1.104.437.31-.137.595-.61.642-.94a.699.699 0 0 0-.101-.456c-.166-.278-.462-.259-.754-.245l-.228.088h.002zM206.789 110.354c.753.441 1.504.892 2.14 1.498.558.532.938 1.195 1.434 1.779.697.823 1.561 1.425 2.367 2.134.71.626 1.324 1.272 1.671 2.169.262.677.319 1.549-.033 2.206-.215.403-.528.761-.863 1.069-.162.148-.316.274-.475.419-.102.093-.146.187-.278.27-.171.107-.219.048-.329-.11-.21-.304-.329-.539-.355-.917-.039-.568-.276-1.143-.513-1.655-.235-.508-.433-1.022-.698-1.516-.261-.487-.523-.971-.774-1.463-.216-.423-.421-.852-.636-1.275-.213-.419-.484-.804-.724-1.207-.2-.336-.457-.633-.649-.973-.122-.215-.234-.418-.378-.619a3.124 3.124 0 0 1-.287-.49c-.08-.168-.211-.298-.306-.456-.063-.104-.222-.495-.311-.861h-.003zM212.473 112.5c-.152-.041-.313-.12-.457-.059a.762.762 0 0 0-.191.15c-.241.266.077.752.24.987.45.649 1.169 1.251 1.965 1.396.509.093 1.226 0 1.597-.394.513-.544.399-1.431.135-2.074-.246-.601-.73-1.351-1.424-1.466-.245-.04-.516-.038-.736.089-.169.098-.28.266-.438.381-.211.154-.475.174-.612.425a.898.898 0 0 0-.079.565zM215.136 116.402c.156-.161.185-.163.394-.157.191.006.317.073.39.258.113.289-.073.643-.373.696-.192.034-.411-.104-.535-.25-.148-.174-.127-.429.008-.61l.116.063zM232.651 111.556c-.307-.18-.414-.244-.746-.222-.166.011-.275.039-.369.191-.229.372-.266 1.016-.152 1.427.082.298.323.6.603.734.246.119.599.114.867.144.251.028.5.036.753.038.437.003.879-.063 1.067-.512.166-.398.12-.966-.156-1.307-.224-.276-.441-.384-.746-.538-.288-.145-.515-.298-1.119.045h-.002zM230.285 111.268c.123.207.201.427.237.661-.092.056-.063.198-.19.233-.182.051-.307-.221-.381-.337a.723.723 0 0 1-.102-.509c.012-.062.066-.339.169-.222l.267.174zM206.736 101.739c-.308.035-.647.07-.739.453-.086.356.229.699.507.863.148.087.315.19.475.105.164-.087.31-.228.465-.331.369-.246.884-.063 1.002-.636.048-.235-.038-.605-.214-.776-.329-.316-.841-.232-1.244-.141l-.252.465v-.002zM172.806 81.819a2.762 2.762 0 0 0-1.351-.669l-.153.126c-.353.102-.657.281-.829.616-.523 1.01.18 1.8.731 2.579.589.834 1.243 1.965 2.133.768.406-.546 1.102-1.396 1.089-2.118-.007-.383-.181-.458-.451-.644-.34-.235-.752-.573-1.169-.659v.001zM178.21 92.309c.318-.031.888-.147 1.153.154.216.244.126.445.123.736-.006.636-.122 1.316-.96 1.278-.369-.018-.844-.356-1.01-.708-.146-.311-.134-1.015.258-1.154l.435-.305h.001zM279.386 81.116c-.851.136-.909.134-1.424.764-.388.473-.868.946-.992 1.574-.163.83.419 1.401.712 2.096.23.544.388.838.996 1.027.583.18 1.349.234 1.965.174 2.004-.195 4.079-1.704 5.093-3.391.666-1.107 1.323-2.523.864-3.835-.385-1.101-1.335-2.009-2.499-2.167-1.174-.159-2.332.403-3.117 1.249-.175.215-.352.43-.529.642-.259.234-.539.44-.839.617-.286.238-.441.601-.229 1.248l-.001.002zM275.7 81.104c-.057.945-.038.8-.588 1.32-.241.229-.225.379-.522.498-.361.145-.991-.091-1.19-.437-.159-.276.052-1.013.174-1.257.189-.371.394-.425.788-.489l1.335.362.003.003zM233.048 19.924c-.62.241-1.366.505-1.315 1.34.034.569.711 1.007 1.223 1.167.731.229 2.066.09 2.747-.266.734-.383.882-1.69.527-2.362-.722-1.362-3.179-.638-4.167-.054l.986.173v.002zM226.634 23.12c.099-.175.314-.776.536-.857.104-.037.192.055.289.048.362-.023.708-.005.964.253.537.543.662 1.199.335 1.889-.214.454-.577.712-1.08.622-.553-.099-1.195-.701-1.029-1.317l-.015-.638zM198.252 125.853c-1.185.198-2.135.941-2.973 1.808-.533.553-1.287 1.21-1.099 2.063.442 2 4.607.861 5.876.409 1.045-.371 2.166-1.016 2.963-1.812.488-.488 1.293-1.702 1.197-2.445-.124-.958-1.128-1.434-1.98-1.472-1.966-.089-3.429 1.313-5.202 1.871l1.218-.422zM197.911 124.903c-.14-.142-.693-.809-1.021-.939-.235-.093-.6-.242-.838-.147-.33.131-.476.534-.521.851-.03.208.019.541.215.67.155.101.433.079.612.085.324.009.647-.049.976-.116.15-.031.313-.034.463-.103.229-.105.205-.289.331-.454l-.217.153zM189.177 129.725l.124.695c-.228.107-.413.353-.687.245-.187-.073-.448-.434-.498-.629-.074-.287-.002-.555.24-.711.283-.182.569-.014.792.204l.029.196zM161.349 113.317c-.312.097-.526.201-.59.555-.092.506.149.986.637 1.137.674.208 1.821.153 2.343-.407.329-.353.429-1.164-.078-1.392-.253-.113-.604-.274-.874-.311-.472-.065-.969.129-1.366.366l-.072.051v.001zM302.922 42.778c-.296-.062-.416-.115-.68.004-.298.135-.575.29-.709.609-.264.63-.055 1.604.196 2.223.229.568.561.904 1.135 1.106.644.227 1.257.223 1.868-.089.64-.327.981-.737.985-1.486.003-.6-.063-1.369-.328-1.914-.248-.511-.596-.736-1.132-.878-.478-.127-1.231-.204-1.335.424v.001zM303.955 48.11c.159-.095.312-.252.473-.112.204.176.273.7.224.942-.04.197-.236.52-.426.614-.151.075-.361.024-.515-.029-.265-.091-.44-.293-.456-.556-.011-.183-.066-.616.163-.7l.537-.159zM314.487 22.236c-.282.187-.413.293-.55.601-.2.451-.276.979-.257 1.472.025.635.194 1.345.614 1.846.299.356.98.417 1.374.226.473-.231.98-.831 1.146-1.331.32-.969.239-2.246-.438-3.058-.779-.934-2.28.065-1.888.244h-.001zM314.003 28.956a.917.917 0 0 1 .203-.474c.166.098.361.031.527.147.163.113.255.333.277.518.034.277-.054.531-.273.702-.246.192-.368.132-.621 0-.183-.096-.239-.104-.267-.33a2.393 2.393 0 0 1 .008-.463l.145-.102v.002z"/></g><linearGradient id="SVGID_00000158009981966778005280000002401623512653410998_" gradientUnits="userSpaceOnUse" x1="1267.489" y1="468.434" x2="1267.489" y2="471.983" gradientTransform="scale(1 -1) rotate(-54.977 197.9 1245.559)"><stop offset="0" style="stop-color:#8bc5fd"/><stop offset=".316" style="stop-color:#5d4d84"/></linearGradient><path style="fill-rule:evenodd;clip-rule:evenodd;fill:url(#SVGID_00000158009981966778005280000002401623512653410998_)" d="M177.539 76.376c-.803.563-1.783.547-2.19-.034-.407-.58-.087-1.508.717-2.07.803-.563 1.783-.547 2.19.034.406.582.086 1.509-.717 2.07z"/><path class="st31" d="M177.382 76.153c-.632.443-1.404.431-1.725-.027-.321-.458-.068-1.187.564-1.63.632-.443 1.404-.431 1.725.027.32.458.068 1.188-.564 1.63z"/><linearGradient id="SVGID_00000169515531451117936920000004641585610636609416_" gradientUnits="userSpaceOnUse" x1="1318.591" y1="472.119" x2="1318.591" y2="475.669" gradientTransform="scale(1 -1) rotate(-54.977 197.9 1245.559)"><stop offset="0" style="stop-color:#8bc5fd"/><stop offset=".316" style="stop-color:#5d4d84"/></linearGradient><path style="fill-rule:evenodd;clip-rule:evenodd;fill:url(#SVGID_00000169515531451117936920000004641585610636609416_)" d="M209.96 116.218c-.803.563-1.817.499-2.267-.142-.449-.641-.163-1.616.64-2.179.803-.563 1.817-.499 2.267.142.45.641.163 1.616-.64 2.179z"/><path class="st31" d="M209.788 115.971c-.632.443-1.431.393-1.784-.112s-.128-1.273.504-1.715c.632-.443 1.431-.393 1.784.112s.128 1.273-.504 1.715z"/><linearGradient id="SVGID_00000005958279929970441620000018436683599901631661_" gradientUnits="userSpaceOnUse" x1="1294.28" y1="472.399" x2="1294.28" y2="475.948" gradientTransform="scale(1 -1) rotate(-54.977 197.9 1245.559)"><stop offset="0" style="stop-color:#8bc5fd"/><stop offset=".316" style="stop-color:#5d4d84"/></linearGradient><path style="fill-rule:evenodd;clip-rule:evenodd;fill:url(#SVGID_00000005958279929970441620000018436683599901631661_)" d="M196.442 96.441a1.774 1.774 0 1 1-2.037-2.907 1.774 1.774 0 0 1 2.037 2.908v-.001z"/><path class="st31" d="M196.226 96.132a1.398 1.398 0 1 1-1.604-2.29 1.398 1.398 0 0 1 1.604 2.29z"/></svg>