<svg version="1.1" id="Layer_1" xmlns="http://www.w3.org/2000/svg" x="0" y="0" width="260" height="150" style="enable-background:new 0 0 260 150" xml:space="preserve"><style>@keyframes opacity{0%{opacity:1}to{opacity:0}}@keyframes car{0%{transform:translateX(-10%)}to{transform:ranslateX(10%)}}.st1{fill:#43e8e1}.st2{opacity:.5}</style><linearGradient id="SVGID_1_" gradientUnits="userSpaceOnUse" x1="0" y1="0" x2=".707" y2=".707"><stop offset="0" style="stop-color:#dedfe3"/><stop offset=".178" style="stop-color:#dadbdf"/><stop offset=".361" style="stop-color:#cecfd3"/><stop offset=".546" style="stop-color:#b9bcbf"/><stop offset=".732" style="stop-color:#9ca0a2"/><stop offset=".918" style="stop-color:#787d7e"/><stop offset="1" style="stop-color:#656b6c"/></linearGradient><g style="animation:opacity 1.5s infinite alternate forwards"><linearGradient id="wifi1_00000124863279397422425260000012042946780991361415_" gradientUnits="userSpaceOnUse" x1="350.151" y1="-31.651" x2="413.449" y2="-31.651" gradientTransform="rotate(6.298 -280.938 -1375.44)"><stop offset="0" style="stop-color:#703ed1"/><stop offset=".621" style="stop-color:#5a78e0"/><stop offset="1" style="stop-color:#4c9de9"/></linearGradient><path id="wifi1" style="opacity:.5;fill:url(#wifi1_00000124863279397422425260000012042946780991361415_)" d="M202.1 11.7c-.4 0-.8-.1-1.2-.1l-.4 4.2c.4 0 .8.1 1.2.1 29.9 3.4 52.8 20.2 51 37.5v.1l7.2.8v-.1c2-19.6-23.9-38.7-57.8-42.5z"/><linearGradient id="wifi2_00000114075098251578950500000012264787974105663919_" gradientUnits="userSpaceOnUse" x1="350.196" y1="-27.459" x2="398.882" y2="-27.459" gradientTransform="rotate(6.298 -280.938 -1375.44)"><stop offset="0" style="stop-color:#703ed1"/><stop offset=".621" style="stop-color:#5a78e0"/><stop offset="1" style="stop-color:#4c9de9"/></linearGradient><path id="wifi2" style="opacity:.7;fill:url(#wifi2_00000114075098251578950500000012264787974105663919_)" d="M201.2 20.1c-.4 0-.8-.1-1.2-.1l-.4 4.2c.4 0 .8.1 1.2.1 21.9 2.5 38.7 14.8 37.4 27.5v.1l7.2.8v-.1c1.6-15-18.2-29.6-44.2-32.5z"/><linearGradient id="wifi3_00000004521477106187593620000011932387817373176985_" gradientUnits="userSpaceOnUse" x1="350.242" y1="-23.267" x2="384.315" y2="-23.267" gradientTransform="rotate(6.298 -280.938 -1375.44)"><stop offset="0" style="stop-color:#703ed1"/><stop offset=".621" style="stop-color:#5a78e0"/><stop offset="1" style="stop-color:#4c9de9"/></linearGradient><path id="wifi3" style="fill:url(#wifi3_00000004521477106187593620000011932387817373176985_)" d="M200.3 28.4c-.4 0-.8 0-1.2-.1l-.4 4.2c.4 0 .8 0 1.2.1 14 1.6 24.6 9.4 23.8 17.5v.1l7.2.8v-.1c1.1-10.4-12.6-20.4-30.6-22.5z"/></g><g id="circle"><path class="st1" d="M121.7 127.4c-24-2.6-46-10.6-62-22.3-16.1-11.9-24.2-26.2-22.6-40.4 1.6-14 12.4-26.2 30.4-34.1 17.9-7.8 40.8-10.7 64.6-8.1 24 2.6 46 10.6 62 22.3 16.2 11.9 24.2 26.2 22.6 40.4-1.6 14-12.4 26.2-30.4 34.1-17.9 7.8-40.8 10.7-64.6 8.1zm10.2-102.6c-23.4-2.6-45.9.2-63.4 7.9-17.3 7.6-27.6 19-29.1 32.2-1.5 13.3 6.2 26.9 21.7 38.2 15.6 11.5 37.3 19.3 60.9 21.9 23.4 2.6 45.9-.2 63.4-7.9 17.3-7.6 27.6-19 29.1-32.2 1.5-13.3-6.2-26.9-21.7-38.3-15.7-11.4-37.3-19.2-60.9-21.8z" style="animation:opacity 2s infinite alternate forwards;opacity:.7"/><g class="st2" style="animation:opacity 2s .5s infinite alternate forwards"><path class="st1" d="M119.6 148.6c-33.9-3.7-65-14.9-87.6-31.5C9.4 100.4-1.9 80.3.3 60.5 2.4 40.9 17.6 23.9 43 12.8 68.2 1.7 100.6-2.4 134.3 1.3c33.9 3.7 65 14.9 87.6 31.5 22.7 16.7 34 36.8 31.8 56.6-2.2 19.6-17.3 36.6-42.7 47.7-25.4 11.1-57.8 15.2-91.4 11.5zM134.1 3.1c-33.3-3.7-65.4.3-90.4 11.3C18.9 25.2 4.1 41.7 2 60.7c-2.1 19.2 8.9 38.7 31.1 55 22.3 16.4 53.1 27.4 86.7 31.2 33.3 3.7 65.4-.3 90.4-11.3 24.8-10.9 39.6-27.3 41.7-46.3 2.1-19.2-8.9-38.7-31.1-55-22.3-16.5-53.1-27.5-86.7-31.2z"/></g></g><g style="transform-origin:center center;animation:car 5s infinite alternate forwards"><linearGradient id="SVGID_00000173839761676713416240000005640807383152795525_" gradientUnits="userSpaceOnUse" x1="267.637" y1="40.729" x2="284.926" y2="40.729" gradientTransform="rotate(6.298 -280.938 -1375.44)"><stop offset="0" style="stop-color:#25054d"/><stop offset="1" style="stop-color:#1b2b69"/></linearGradient><path style="fill:url(#SVGID_00000173839761676713416240000005640807383152795525_)" d="m124.5 101-15.4-9.6 17.8-4z"/><linearGradient id="SVGID_00000005959506175715437140000010842189835538233492_" gradientUnits="userSpaceOnUse" x1="344.921" y1="-3.013" x2="362.211" y2="-3.013" gradientTransform="rotate(6.298 -280.938 -1375.44)"><stop offset="0" style="stop-color:#25054d"/><stop offset="1" style="stop-color:#1b2b69"/></linearGradient><path style="fill:url(#SVGID_00000005959506175715437140000010842189835538233492_)" d="m206.1 66-15.4-9.6 17.8-4z"/><path d="m208 74.9-93.6 40.5c-16 6.9-34.4 4.8-48.5-5.5L46.7 95.8c-2-1.4-1.6-4.4.6-5.4l117.2-51.7c1-.5 2.2-.3 3.1.4l41 30.4c1.9 1.4 1.6 4.4-.6 5.4z" style="opacity:.2;fill:#16032e"/><linearGradient id="SVGID_00000042000579174628375550000016282428890677201342_" gradientUnits="userSpaceOnUse" x1="7359.11" y1="17.276" x2="7343.01" y2="-4.297" gradientTransform="scale(-1 1) rotate(-6.298 4130.09 68578.296)"><stop offset="0" style="stop-color:#010002"/><stop offset=".025" style="stop-color:#030106"/><stop offset=".192" style="stop-color:#0f0419"/><stop offset=".362" style="stop-color:#170524"/><stop offset=".54" style="stop-color:#190628"/><stop offset=".703" style="stop-color:#0b0312"/><stop offset=".86" style="stop-color:#030105"/><stop offset="1" style="stop-color:#000"/></linearGradient><path style="fill:url(#SVGID_00000042000579174628375550000016282428890677201342_)" d="M180 70.9c-.3 2.8.4 4.9 1.9 6.1 0 0 4.7 3.4 4.7 3.5 1.5 1.1.7-1.1 3.4-2.3 5.4-2.4 10.2-8.9 10.9-14.7.3-2.9 3-2.6 1.4-3.7 0 0-5-3.5-5-3.6-1.5-1.1-3.8-1.2-6.4 0-5.4 2.3-10.2 8.9-10.9 14.7z"/><linearGradient id="SVGID_00000107566485159257782430000005217481793620731572_" gradientUnits="userSpaceOnUse" x1="7337.568" y1="9.317" x2="7355.918" y2="9.317" gradientTransform="scale(-1 1) rotate(-6.298 4130.09 68578.296)"><stop offset="0" style="stop-color:#100221"/><stop offset="1" style="stop-color:#10054d"/></linearGradient><path style="fill:url(#SVGID_00000107566485159257782430000005217481793620731572_)" d="M185 74.5c-.6 5.8 3.2 8.6 8.5 6.2 5.4-2.4 10.2-8.9 10.9-14.7.6-5.8-3.2-8.6-8.5-6.2-5.4 2.3-10.3 8.9-10.9 14.7z"/><radialGradient id="SVGID_00000076588013596056313310000013200472220398913155_" cx="7387.467" cy="-25.515" r="10.014" gradientTransform="matrix(-.9838 -.1086 -.1086 .9838 7458.059 896.993)" gradientUnits="userSpaceOnUse"><stop offset="0" style="stop-color:#fff"/><stop offset="1" style="stop-color:#000"/></radialGradient><path style="fill:url(#SVGID_00000076588013596056313310000013200472220398913155_)" d="M195.4 59.5c2.6-1.1 4.8-1.1 6.3-.1-1.5-.6-3.4-.5-5.6.5-5.4 2.4-10.2 8.9-10.9 14.7-.3 3 .5 5.2 2.2 6.3-2.2-.9-3.4-3.2-3-6.7.8-5.8 5.7-12.4 11-14.7z"/><linearGradient id="SVGID_00000054950789880192960060000013634099523592890506_" gradientUnits="userSpaceOnUse" x1="7339.982" y1="9.468" x2="7354.113" y2="9.468" gradientTransform="scale(-1 1) rotate(-6.298 4130.09 68578.296)"><stop offset="0" style="stop-color:#bcbec0"/><stop offset="1" style="stop-color:#e6e7e8"/></linearGradient><path style="fill:url(#SVGID_00000054950789880192960060000013634099523592890506_)" d="M186.9 73.6c-.5 4.5 2.5 6.6 6.6 4.8 4.1-1.8 7.9-6.9 8.4-11.3.5-4.5-2.5-6.6-6.6-4.8s-7.9 6.9-8.4 11.3zm4.9-2.3v.2c0 .2-.2.5-.4.7l-2.5 2.5c-.4.4-.8.4-.9 0-.1-.5-.1-1.1 0-1.7.1-.6.2-1.3.4-1.9.2-.5.6-.9.9-.8l2.2.4c.3.2.4.4.3.6zm-1.4-3.8c.9-1.2 1.9-2.2 3-3 .4-.3.8-.1.7.3l-.3 2.9c0 .3-.2.5-.4.7l-.2.2c-.2.2-.5.3-.6.3l-2.2-.4c-.3-.1-.3-.5 0-1zm6.3-4.4c1.1-.2 2 0 2.7.5.2.2.1.7-.2 1.1l-2.5 2.5c-.2.2-.5.3-.6.3h-.2c-.2 0-.3-.2-.3-.5l.3-2.9c0-.5.4-1 .8-1zm3.9 2.8c.1.5.1 1.1 0 1.7s-.2 1.2-.4 1.9c-.2.5-.6.9-.9.8l-2.2-.4c-.2 0-.3-.2-.2-.5v-.2c0-.2.2-.5.4-.7l2.5-2.5c.4-.5.8-.5.8-.1zm-2.3 7.3c-.9 1.2-1.9 2.2-3 3-.4.3-.8.1-.7-.3l.3-2.9c0-.3.2-.5.4-.7l.2-.2c.2-.2.5-.3.6-.3l2.2.4c.3 0 .3.5 0 1zm-6.3 4.4c-1.1.2-2 0-2.7-.5-.2-.2-.1-.7.2-1.1l2.5-2.5c.2-.2.5-.3.6-.3h.2c.2 0 .3.2.3.5l-.3 2.9c0 .5-.4.9-.8 1z"/><linearGradient id="SVGID_00000144322011965695441490000011401667644695249822_" gradientUnits="userSpaceOnUse" x1="7339.542" y1="9.645" x2="7353.673" y2="9.645" gradientTransform="scale(-1 1) rotate(-6.298 4130.09 68578.296)"><stop offset="0" style="stop-color:#bcbec0"/><stop offset="1" style="stop-color:#e6e7e8"/></linearGradient><path style="fill:url(#SVGID_00000144322011965695441490000011401667644695249822_)" d="M187.3 73.8c-.5 4.5 2.5 6.6 6.6 4.8 4.1-1.8 7.9-6.9 8.4-11.3.5-4.5-2.5-6.6-6.6-4.8-4.1 1.8-7.9 6.9-8.4 11.3zm5-2.3v.2c0 .2-.2.5-.4.7l-2.5 2.5c-.4.4-.8.4-.9 0-.1-.5-.1-1.1 0-1.7s.2-1.2.4-1.9c.2-.5.6-.9.9-.8l2.2.4c.2.2.3.4.3.6zm-1.4-3.8c.9-1.2 1.9-2.2 3-3 .4-.3.8-.1.7.3l-.3 2.9c0 .3-.2.5-.4.7l-.2.2c-.2.2-.5.3-.6.3l-2.2-.4c-.4 0-.4-.5 0-1zm6.2-4.4c1.1-.2 2 0 2.7.5.2.2.1.7-.2 1.1l-2.5 2.5c-.2.2-.5.3-.6.3h-.2c-.2 0-.3-.2-.3-.5l.3-2.9c0-.5.5-.9.8-1zm4 2.8c.1.5.1 1.1 0 1.7-.1.6-.2 1.2-.4 1.9-.2.5-.6.9-.9.8l-2.2-.4c-.2 0-.3-.2-.2-.5v-.2c0-.2.2-.5.4-.7l2.5-2.5c.3-.5.7-.5.8-.1zm-2.4 7.3c-.9 1.2-1.9 2.2-3 3-.4.3-.8.1-.7-.3l.3-2.9c0-.3.2-.5.4-.7l.2-.2c.2-.2.5-.3.6-.3l2.2.4c.3.1.3.5 0 1zm-6.2 4.4c-1.1.2-2 0-2.7-.5-.2-.2-.1-.7.2-1.1l2.5-2.5c.2-.2.5-.3.6-.3h.2c.2 0 .3.2.3.5l-.3 2.9c0 .5-.5 1-.8 1z"/><linearGradient id="SVGID_00000094577663072235306180000000078047008521225097_" gradientUnits="userSpaceOnUse" x1="7436.192" y1="60.58" x2="7420.093" y2="39.007" gradientTransform="scale(-1 1) rotate(-6.298 4130.09 68578.296)"><stop offset="0" style="stop-color:#010002"/><stop offset=".025" style="stop-color:#030106"/><stop offset=".192" style="stop-color:#0f0419"/><stop offset=".362" style="stop-color:#170524"/><stop offset=".54" style="stop-color:#190628"/><stop offset=".703" style="stop-color:#0b0312"/><stop offset=".86" style="stop-color:#030105"/><stop offset="1" style="stop-color:#000"/></linearGradient><path style="fill:url(#SVGID_00000094577663072235306180000000078047008521225097_)" d="M98.7 105.5c-.3 2.8.4 4.9 1.9 6.1 0 0 4.7 3.4 4.7 3.5 1.5 1.1.7-1.1 3.4-2.3 5.4-2.4 10.2-8.9 10.9-14.7.3-2.9 3-2.6 1.4-3.7 0 0-5-3.5-5-3.6-1.5-1.1-3.8-1.2-6.4 0-5.4 2.3-10.3 8.9-10.9 14.7z"/><linearGradient id="SVGID_00000031204265026300514490000009230732862694431160_" gradientUnits="userSpaceOnUse" x1="7414.65" y1="52.621" x2="7433" y2="52.621" gradientTransform="scale(-1 1) rotate(-6.298 4130.09 68578.296)"><stop offset="0" style="stop-color:#100221"/><stop offset="1" style="stop-color:#10054d"/></linearGradient><path style="fill:url(#SVGID_00000031204265026300514490000009230732862694431160_)" d="M103.6 109.1c-.6 5.8 3.2 8.6 8.5 6.2s10.2-8.9 10.9-14.7c.6-5.8-3.2-8.6-8.5-6.2-5.4 2.3-10.2 8.9-10.9 14.7z"/><radialGradient id="SVGID_00000138561781089297790350000004649902039817100439_" cx="7465.344" cy="18.235" r="10.014" gradientTransform="matrix(-.9838 -.1086 -.1086 .9838 7458.059 896.993)" gradientUnits="userSpaceOnUse"><stop offset="0" style="stop-color:#fff"/><stop offset="1" style="stop-color:#000"/></radialGradient><path style="fill:url(#SVGID_00000138561781089297790350000004649902039817100439_)" d="M114.1 94.1c2.6-1.1 4.8-1.1 6.3-.1-1.5-.6-3.4-.5-5.6.5-5.4 2.4-10.2 8.9-10.9 14.7-.3 3 .5 5.2 2.2 6.3-2.2-.9-3.4-3.2-3-6.7.7-5.8 5.6-12.4 11-14.7z"/><linearGradient id="SVGID_00000044882230637928611120000005480459682772528815_" gradientUnits="userSpaceOnUse" x1="7417.064" y1="52.772" x2="7431.195" y2="52.772" gradientTransform="scale(-1 1) rotate(-6.298 4130.09 68578.296)"><stop offset="0" style="stop-color:#bcbec0"/><stop offset="1" style="stop-color:#e6e7e8"/></linearGradient><path style="fill:url(#SVGID_00000044882230637928611120000005480459682772528815_)" d="M105.5 108.2c-.5 4.5 2.5 6.6 6.6 4.8 4.1-1.8 7.9-6.9 8.4-11.3.5-4.5-2.5-6.6-6.6-4.8-4.1 1.8-7.9 6.9-8.4 11.3zm5-2.3v.2c0 .2-.2.5-.4.7l-2.5 2.5c-.4.4-.8.4-.9 0-.1-.5-.1-1.1 0-1.7.1-.6.2-1.2.4-1.9.2-.5.6-.9.9-.8l2.2.4c.2.2.3.4.3.6zm-1.4-3.8c.9-1.2 1.9-2.2 3-3 .4-.3.8-.1.7.3l-.3 2.9c0 .3-.2.5-.4.7l-.2.2c-.2.2-.5.3-.6.3l-2.2-.4c-.3-.1-.3-.6 0-1zm6.2-4.4c1.1-.2 2 0 2.7.5.2.2.1.7-.2 1.1l-2.5 2.5c-.2.2-.5.3-.6.3h-.2c-.2 0-.3-.2-.3-.5l.3-2.9c0-.5.5-1 .8-1zm4 2.8c.1.5.1 1.1 0 1.7-.1.6-.2 1.3-.4 1.9-.2.5-.6.9-.9.8l-2.2-.4c-.2 0-.3-.2-.2-.5v-.2c0-.2.2-.5.4-.7l2.5-2.5c.3-.5.7-.5.8-.1zm-2.4 7.2c-.9 1.2-1.9 2.2-3 3-.4.3-.8.1-.7-.3l.3-2.9c0-.3.2-.5.4-.7l.2-.2c.2-.2.5-.3.6-.3l2.2.4c.3.1.4.6 0 1zm-6.2 4.5c-1.1.2-2 0-2.7-.5-.2-.2-.1-.7.2-1.1l2.5-2.5c.2-.2.5-.3.6-.3h.2c.2 0 .3.2.3.5l-.3 2.9c0 .4-.5.9-.8 1z"/><linearGradient id="SVGID_00000133513166178719016240000015716447012539723689_" gradientUnits="userSpaceOnUse" x1="7416.623" y1="52.948" x2="7430.755" y2="52.948" gradientTransform="scale(-1 1) rotate(-6.298 4130.09 68578.296)"><stop offset="0" style="stop-color:#bcbec0"/><stop offset="1" style="stop-color:#e6e7e8"/></linearGradient><path style="fill:url(#SVGID_00000133513166178719016240000015716447012539723689_)" d="M106 108.4c-.5 4.5 2.5 6.6 6.6 4.8 4.1-1.8 7.9-6.9 8.4-11.3.5-4.5-2.5-6.6-6.6-4.8-4.2 1.8-8 6.9-8.4 11.3zm4.9-2.3v.2c0 .2-.2.5-.4.7l-2.5 2.5c-.4.4-.8.4-.9 0-.1-.5-.1-1.1 0-1.7.1-.6.2-1.3.4-1.9.2-.5.6-.9.9-.8l2.2.4c.2.2.3.4.3.6zm-1.4-3.8c.9-1.2 1.9-2.2 3-3 .4-.3.8-.1.7.3l-.3 2.9c0 .3-.2.5-.4.7l-.2.2c-.2.2-.5.3-.6.3l-2.2-.4c-.3-.1-.3-.5 0-1zm6.3-4.4c1.1-.2 2 0 2.7.5.2.2.1.7-.2 1.1l-2.5 2.5c-.2.2-.5.3-.6.3h-.2c-.2 0-.3-.2-.3-.5l.3-2.9c0-.5.4-1 .8-1zm3.9 2.8c.1.5.1 1.1 0 1.7-.1.6-.2 1.2-.4 1.9-.2.5-.6.9-.9.8l-2.2-.4c-.2 0-.3-.2-.2-.5v-.2c0-.2.2-.5.4-.7l2.5-2.5c.3-.5.7-.5.8-.1zm-2.3 7.3c-.9 1.2-1.9 2.2-3 3-.4.3-.8.1-.7-.3l.3-2.9c0-.3.2-.5.4-.7l.2-.2c.2-.2.5-.3.6-.3l2.2.4c.3.1.3.5 0 1zm-6.3 4.4c-1.1.2-2 0-2.7-.5-.2-.2-.1-.7.2-1.1l2.5-2.5c.2-.2.5-.3.6-.3h.2c.2 0 .3.2.3.5l-.3 2.9c0 .5-.4 1-.8 1z"/><radialGradient id="SVGID_00000085970624416334972920000006674124714262610870_" cx="284.765" cy="-9.085" r="102.503" gradientTransform="rotate(6.298 -280.938 -1375.44)" gradientUnits="userSpaceOnUse"><stop offset="0" style="stop-color:#2af6ff"/><stop offset=".651" style="stop-color:#1376bd"/><stop offset=".758" style="stop-color:#1c67af"/><stop offset=".965" style="stop-color:#323e8b"/><stop offset=".995" style="stop-color:#363885"/></radialGradient><path style="fill:url(#SVGID_00000085970624416334972920000006674124714262610870_)" d="M113.9 92.9c1.8-.8 3.5-1.1 5-.9 3.6.4 5.8 3.3 5.6 9l58.7-23.3c.1-2.1.2-2.7.2-3.4.7-6.4 5.9-13.4 11.8-16 1.8-.8 3.5-1.1 5-.9 4 .4 6.2 3.8 5.7 8.6 2.3-2.3 5.8-6.4 6.2-10 .8-7.6-5.3-19.5-21.5-26.1-15-6.1-21.4-7-32.2-5.9-10.7 1.1-11.8 2.5-16.8 2.5s-6.7-5.6-32.6 5.6C83.1 43.4 71.1 55.3 65.2 58.8c-6 3.5-9.6 4.8-11.8 7.5-2.2 2.7-5.8 17.1-3.5 21.7 2.3 4.6 28.9 21.6 36.1 23.1 6.6 1.4 14.9-2.1 16.2-2.7.9-6.2 5.9-13 11.7-15.5z"/><linearGradient id="SVGID_00000109738085235121886250000006248686612728657580_" gradientUnits="userSpaceOnUse" x1="323.153" y1="-10.672" x2="345.432" y2="-54.488" gradientTransform="rotate(6.298 -280.938 -1375.44)"><stop offset="0" style="stop-color:#138bbd"/><stop offset=".634" style="stop-color:#31c5d3"/><stop offset="1" style="stop-color:#43e8e1"/></linearGradient><path style="opacity:.5;fill:url(#SVGID_00000109738085235121886250000006248686612728657580_)" d="M205.5 39.9c-3.5-3.7-8.3-7.3-14.9-9.9-9.6-3.9-15.7-5.7-21.8-6.2-5.2.7-11.2 1.9-16.3 3.6-7.2 2.4 28.1 20.7 28.1 20.7 6.3 1.1 21.2-4.4 24.9-8.2z"/><linearGradient id="SVGID_00000121237433123224449300000005191813613460728487_" gradientUnits="userSpaceOnUse" x1="247.847" y1="-7.832" x2="316.046" y2="-7.832" gradientTransform="rotate(6.298 -280.938 -1375.44)"><stop offset="0" style="stop-color:#138bbd"/><stop offset=".634" style="stop-color:#31c5d3"/><stop offset="1" style="stop-color:#43e8e1"/></linearGradient><path style="opacity:.5;fill:url(#SVGID_00000121237433123224449300000005191813613460728487_)" d="M111.7 64.6s10.5-10.7 23.7-16.3c15.6-6.6 23.2-6.4 23.2-6.4l-10.4-10.6-14.2-5.9s-7.7.3-18.6 4.7S81 48.6 81 48.6l30.7 16z"/><linearGradient id="SVGID_00000018222337056927564010000017057702233624826016_" gradientUnits="userSpaceOnUse" x1="222.553" y1="13.467" x2="267.883" y2="13.467" gradientTransform="rotate(6.298 -280.938 -1375.44)"><stop offset="0" style="stop-color:#010002"/><stop offset=".025" style="stop-color:#030106"/><stop offset=".192" style="stop-color:#0f0419"/><stop offset=".362" style="stop-color:#170524"/><stop offset=".54" style="stop-color:#190628"/><stop offset=".703" style="stop-color:#0b0312"/><stop offset=".86" style="stop-color:#030105"/><stop offset="1" style="stop-color:#000"/></linearGradient><path style="fill:url(#SVGID_00000018222337056927564010000017057702233624826016_)" d="M83.7 47.3c-4.3.2-15.8 9-16.6 13.5-.8 4.5 16.8 18.2 28.5 17.4s17.2-12.2 16.7-14.7c-.4-2.5-19.8-16.6-28.6-16.2z"/><linearGradient id="SVGID_00000116921551578208904550000009889462508586891707_" gradientUnits="userSpaceOnUse" x1="223.318" y1="13.467" x2="267.136" y2="13.467" gradientTransform="rotate(6.298 -280.938 -1375.44)"><stop offset="0" style="stop-color:#25054d"/><stop offset=".692" style="stop-color:#1b2b69"/><stop offset="1" style="stop-color:#3746a3"/></linearGradient><path style="fill:url(#SVGID_00000116921551578208904550000009889462508586891707_)" d="M92.8 77.2c-9.1-1-20.2-8.8-23.8-13.7-1.2-1.7-1.2-2.4-1.2-2.5.8-4 12-12.6 15.8-12.8.4 0 .9 0 1.4.1 9.1 1 25.7 13.3 26.5 15.5.1.6-.7 3.3-3.1 6.5-1.9 2.4-6.1 6.6-12.9 7.1-.8-.1-1.7-.1-2.7-.2z"/><linearGradient id="SVGID_00000171708701487895101140000016764427136593682866_" gradientUnits="userSpaceOnUse" x1="283.543" y1="-19.982" x2="335.509" y2="-19.982" gradientTransform="rotate(6.298 -280.938 -1375.44)"><stop offset="0" style="stop-color:#010002"/><stop offset=".025" style="stop-color:#030106"/><stop offset=".192" style="stop-color:#0f0419"/><stop offset=".362" style="stop-color:#170524"/><stop offset=".54" style="stop-color:#190628"/><stop offset=".703" style="stop-color:#0b0312"/><stop offset=".86" style="stop-color:#030105"/><stop offset="1" style="stop-color:#000"/></linearGradient><path style="fill:url(#SVGID_00000171708701487895101140000016764427136593682866_)" d="M132.4 25.1s14.4 1.2 23 3c8.7 1.8 17.8 6.3 22 11.5 3.6 4.4 6.7 9.4 3.2 8.5-3.6-.9-20.8-5.8-22.1-6.3-1.3-.5-5.3-4.7-12-9.6-6.3-4.6-14.1-7.1-14.1-7.1z"/><linearGradient id="SVGID_00000167393183106830854590000006701343739938032013_" gradientUnits="userSpaceOnUse" x1="348.184" y1="-6.972" x2="289.608" y2="-30.366" gradientTransform="rotate(6.298 -280.938 -1375.44)"><stop offset="0" style="stop-color:#25054d"/><stop offset=".692" style="stop-color:#1b2b69"/><stop offset="1" style="stop-color:#3746a3"/></linearGradient><path style="fill:url(#SVGID_00000167393183106830854590000006701343739938032013_)" d="M179.5 46.8c-.1 0-.2 0-.4-.1-3.5-.9-19.5-5.4-20.8-5.9-.5-.2-1.8-1.3-3.2-2.6-2.1-1.8-4.9-4.2-8.6-6.9-3.2-2.3-6.7-4.1-9.4-5.3.8.1 1.7.2 2.6.3 4.4.5 9.4.9 13.9 1.9 8.9 1.9 17.6 6.4 21.6 11.3 3.5 4.3 4.7 6.7 4.6 7.4-.1-.1-.2-.1-.3-.1z"/><g class="st2"><linearGradient id="SVGID_00000110452691429735022370000005589650832842157242_" gradientUnits="userSpaceOnUse" x1="294.555" y1="14.254" x2="308.364" y2="14.254" gradientTransform="rotate(6.298 -280.938 -1375.44)"><stop offset=".035" style="stop-color:#138bbd"/><stop offset=".226" style="stop-color:#169ac7"/><stop offset=".595" style="stop-color:#1fc3df"/><stop offset="1" style="stop-color:#2af6ff"/></linearGradient><path style="fill:url(#SVGID_00000110452691429735022370000005589650832842157242_)" d="m150.4 88.2-.6-.1c0-.1 1.4-8.3-1-19.1-1.5-6.6-8.2-17.2-8.3-17.4l.5-.3c.1.1 6.9 10.8 8.4 17.5 2.4 11.1 1 19.3 1 19.4z"/></g><linearGradient id="SVGID_00000131339468537327571210000004072350803061954482_" gradientUnits="userSpaceOnUse" x1="233.998" y1="45.744" x2="256.215" y2="45.744" gradientTransform="rotate(6.298 -280.938 -1375.44)"><stop offset="0" style="stop-color:#138bbd"/><stop offset=".634" style="stop-color:#31c5d3"/><stop offset="1" style="stop-color:#43e8e1"/></linearGradient><path style="opacity:.5;fill:url(#SVGID_00000131339468537327571210000004072350803061954482_)" d="m75.3 90.7.2 1.4s6.7 4.2 11.7 5.8c5 1.6 10-3 10-3.8.1-.6-2.7.1-7.7-1.2-2.9-.8-11.2-.7-14.2-2.2z"/><radialGradient id="SVGID_00000155855958068315391930000009185332409043912579_" cx="248.786" cy="44.585" r="4.674" gradientTransform="rotate(6.298 -280.938 -1375.44)" gradientUnits="userSpaceOnUse"><stop offset="0" style="stop-color:#ff63ce"/><stop offset="1" style="stop-color:#9f19ab"/></radialGradient><path style="fill:url(#SVGID_00000155855958068315391930000009185332409043912579_)" d="m77.2 88.5-2 2.2s1.8 1.1 4.3 2.4c2.5 1.3 5.5 2.8 8.1 3.6 5 1.6 9.7-1.9 9.8-2.7.1-.6-2.4-1-7.5-2.3-2.5-.6-6.8-2.4-9.9-3.8-1-.5-2.1-.2-2.8.6z"/><radialGradient id="SVGID_00000003786437052299872960000017233682785098113173_" cx="248.721" cy="44.558" r="5.201" gradientTransform="rotate(6.298 -280.938 -1375.44)" gradientUnits="userSpaceOnUse"><stop offset="0" style="stop-color:#ff63ce"/><stop offset="1" style="stop-color:#9f19ab"/></radialGradient><path style="fill:url(#SVGID_00000003786437052299872960000017233682785098113173_)" d="M77.3 88.5c.7-.7 1.8-.9 2.8-.4 1.3.6 2.8 1.2 4.2 1.8 2 .8 4 1.5 5.5 1.9.4.1.7.2 1.1.3 1.8.4 3.2.8 4.2 1 1.3.3 2 .6 2 .9-.2.7-3.4 3.1-7.3 2.9-.7 0-1.4-.2-2.1-.4-2.4-.8-5.4-2.2-7.8-3.5-2.4-1.2-4.2-2.3-4.3-2.4l.5-.7 1.2-1.4z"/><radialGradient id="SVGID_00000059299214070976101280000006194419834231160724_" cx="248.655" cy="44.531" r="5.697" gradientTransform="rotate(6.298 -280.938 -1375.44)" gradientUnits="userSpaceOnUse"><stop offset="0" style="stop-color:#ff63ce"/><stop offset="1" style="stop-color:#9f19ab"/></radialGradient><path style="fill:url(#SVGID_00000059299214070976101280000006194419834231160724_)" d="M77.5 88.5c.7-.6 1.8-.7 2.7-.3 1.3.6 2.7 1.2 4.1 1.8 2 .8 3.9 1.5 5.4 1.9.4.1.7.2 1.1.3 1.7.4 3.1.7 4.1 1 1.3.3 1.9.6 2 .9-.3.7-3.4 3-7.1 2.8-.7 0-1.4-.2-2.1-.4-2.4-.8-5.3-2.1-7.6-3.4-2.3-1.2-4-2.2-4.2-2.3-.1 0 .4-.6.4-.7l1.2-1.6z"/><radialGradient id="SVGID_00000047763904863304329590000014617125679632262791_" cx="248.588" cy="44.504" r="6.161" gradientTransform="rotate(6.298 -280.938 -1375.44)" gradientUnits="userSpaceOnUse"><stop offset="0" style="stop-color:#ff63ce"/><stop offset="1" style="stop-color:#9f19ab"/></radialGradient><path style="fill:url(#SVGID_00000047763904863304329590000014617125679632262791_)" d="M77.6 88.6c.7-.5 1.7-.6 2.7-.1 1.2.6 2.7 1.2 4.1 1.7 1.9.8 3.8 1.5 5.2 1.8.4.1.7.2 1 .3 1.7.4 3 .7 4 1 1.2.3 1.9.5 2 .8-.4.7-3.3 2.8-6.9 2.6-.7 0-1.3-.2-2-.4-2.3-.7-5.1-2.1-7.4-3.3-2.2-1.1-3.9-2.2-4.2-2.3-.1 0 .3-.6.3-.6l1.2-1.5z"/><radialGradient id="SVGID_00000159459870024538085460000016562169888527454388_" cx="248.519" cy="44.475" r="6.595" gradientTransform="rotate(6.298 -280.938 -1375.44)" gradientUnits="userSpaceOnUse"><stop offset="0" style="stop-color:#ff63ce"/><stop offset="1" style="stop-color:#9f19ab"/></radialGradient><path style="fill:url(#SVGID_00000159459870024538085460000016562169888527454388_)" d="M77.7 88.6c.7-.4 1.7-.4 2.6 0 1.2.6 2.6 1.2 4 1.7 1.9.8 3.7 1.4 5.1 1.8.4.1.7.2 1 .3 1.6.4 2.9.7 4 1 1.1.3 1.8.5 2 .8-.5.7-3.3 2.6-6.7 2.4-.6 0-1.3-.2-1.9-.4-2.2-.7-4.9-2-7.2-3.2-2.1-1.1-3.8-2.1-4.2-2.3-.1-.1.2-.6.1-.6l1.2-1.5z"/><radialGradient id="SVGID_00000117636840981202574090000015760532920713967030_" cx="248.44" cy="44.444" r="7.006" gradientTransform="rotate(6.298 -280.938 -1375.44)" gradientUnits="userSpaceOnUse"><stop offset="0" style="stop-color:#ff63ce"/><stop offset="1" style="stop-color:#9f19ab"/></radialGradient><path style="fill:url(#SVGID_00000117636840981202574090000015760532920713967030_)" d="M77.9 88.7c.7-.3 1.7-.3 2.5.1 1.2.6 2.6 1.1 3.9 1.7 1.8.7 3.7 1.4 5 1.7.3.1.7.2 1 .3 1.6.4 2.9.7 3.9.9 1.1.3 1.7.5 1.9.7-.6.7-3.3 2.5-6.5 2.2-.6 0-1.2-.2-1.8-.4-2.2-.7-4.8-1.9-7-3-2-1-3.7-2-4.2-2.3-.1-.1.1-.5 0-.6l1.3-1.3z"/><radialGradient id="SVGID_00000067210850767860350070000010589157649716473260_" cx="248.334" cy="44.41" r="7.417" gradientTransform="rotate(6.298 -280.938 -1375.44)" gradientUnits="userSpaceOnUse"><stop offset="0" style="stop-color:#ff63ce"/><stop offset="1" style="stop-color:#9f19ab"/></radialGradient><path style="fill:url(#SVGID_00000067210850767860350070000010589157649716473260_)" d="M78 88.7c.7-.2 1.6-.1 2.5.3 1.2.5 2.5 1.1 3.8 1.6 1.8.7 3.6 1.3 4.9 1.7.3.1.7.2 1 .2 1.5.4 2.8.7 3.8.9 1 .2 1.6.4 1.9.7-.7.7-3.3 2.3-6.3 2.1-.6 0-1.2-.2-1.8-.3-2.1-.7-4.6-1.8-6.7-2.9-1.9-1-3.6-1.9-4.2-2.3-.2-.1 0-.5-.1-.6l1.2-1.4z"/><radialGradient id="SVGID_00000054943968587546454610000011836085418807005835_" cx="248.228" cy="44.372" r="7.804" gradientTransform="rotate(6.298 -280.938 -1375.44)" gradientUnits="userSpaceOnUse"><stop offset="0" style="stop-color:#ff63ce"/><stop offset="1" style="stop-color:#9f19ab"/></radialGradient><path style="fill:url(#SVGID_00000054943968587546454610000011836085418807005835_)" d="M78.2 88.8c.7-.1 1.6 0 2.4.4 1.2.5 2.5 1.1 3.7 1.6 1.8.7 3.5 1.3 4.8 1.7.3.1.6.2.9.2 1.5.4 2.7.7 3.7.9.9.2 1.6.4 1.9.6-.8.7-3.2 2.1-6.1 1.9-.6 0-1.1-.2-1.7-.3-2-.6-4.4-1.8-6.5-2.8-1.9-.9-3.4-1.8-4.2-2.2-.2-.1-.1-.5-.3-.5l1.4-1.5z"/><radialGradient id="SVGID_00000137840935052095670210000016641359871699104136_" cx="248.121" cy="44.323" r="8.17" gradientTransform="rotate(6.298 -280.938 -1375.44)" gradientUnits="userSpaceOnUse"><stop offset="0" style="stop-color:#ff63ce"/><stop offset="1" style="stop-color:#9f19ab"/></radialGradient><path style="fill:url(#SVGID_00000137840935052095670210000016641359871699104136_)" d="M78.3 88.8c.7 0 1.5.2 2.4.6 1.1.5 2.4 1 3.6 1.5 1.7.7 3.4 1.3 4.7 1.6.3.1.6.2.9.2 1.4.4 2.6.6 3.6.9.8.2 1.5.4 1.9.6-.9.7-3.2 1.9-5.9 1.7-.5 0-1.1-.2-1.6-.3-1.9-.6-4.3-1.6-6.3-2.7-1.8-.9-3.3-1.8-4.1-2.2-.2-.1-.2-.4-.4-.5l1.2-1.4z"/><radialGradient id="SVGID_00000067922696627819737120000010458480519736370615_" cx="248.015" cy="44.251" r="8.521" gradientTransform="rotate(6.298 -280.938 -1375.44)" gradientUnits="userSpaceOnUse"><stop offset="0" style="stop-color:#ff63ce"/><stop offset="1" style="stop-color:#9f19ab"/></radialGradient><path style="fill:url(#SVGID_00000067922696627819737120000010458480519736370615_)" d="M78.5 88.8c.7.1 1.5.4 2.3.7 1.1.5 2.4 1 3.6 1.5 1.7.7 3.3 1.2 4.6 1.6.3.1.6.2.9.2 1.4.3 2.5.6 3.5.8.8.2 1.4.4 1.9.5-1 .7-3.2 1.8-5.7 1.5-.5 0-1-.2-1.5-.3-1.9-.6-4.1-1.6-6.1-2.6-1.7-.8-3.2-1.7-4.1-2.2-.2-.1-.3-.4-.5-.5l1.1-1.2z"/><radialGradient id="SVGID_00000114762858622040491860000011190029311846073531_" cx="247.909" cy="44.175" r="8.851" gradientTransform="rotate(6.298 -280.938 -1375.44)" gradientUnits="userSpaceOnUse"><stop offset="0" style="stop-color:#ff63ce"/><stop offset="1" style="stop-color:#9f19ab"/></radialGradient><path style="fill:url(#SVGID_00000114762858622040491860000011190029311846073531_)" d="M78.6 88.9c.7.2 1.5.5 2.3.9 1.1.5 2.3 1 3.5 1.5 1.6.6 3.2 1.2 4.5 1.6.3.1.6.2.9.2 1.3.3 2.5.6 3.4.8.7.2 1.3.3 1.8.5-1.1.7-3.1 1.6-5.5 1.4l-1.5-.3c-1.8-.6-3.9-1.5-5.9-2.5-1.6-.8-3.1-1.6-4.1-2.2-.3-.1-.4-.3-.6-.5l1.2-1.4z"/><radialGradient id="SVGID_00000181793524141432271500000011305967330899905173_" cx="247.803" cy="44.098" r="9.157" gradientTransform="rotate(6.298 -280.938 -1375.44)" gradientUnits="userSpaceOnUse"><stop offset="0" style="stop-color:#ff63ce"/><stop offset="1" style="stop-color:#9f19ab"/></radialGradient><path style="fill:url(#SVGID_00000181793524141432271500000011305967330899905173_)" d="M89.4 95.5c-.5-.1-.9-.2-1.4-.3-1.7-.5-3.8-1.4-5.6-2.4s-3.7-1.9-4.8-2.6l1.2-1.4c1.6.8 3.6 1.7 5.6 2.4s3.8 1.4 5.2 1.8c1.3.3 2.4.6 3.3.8.6.2 1.3.3 1.8.4-1.2.8-3.1 1.6-5.3 1.3z"/><linearGradient id="SVGID_00000168099833167205998900000002587719372548424320_" gradientUnits="userSpaceOnUse" x1="207.683" y1="27.789" x2="214.844" y2="27.789" gradientTransform="rotate(6.298 -280.938 -1375.44)"><stop offset="0" style="stop-color:#138bbd"/><stop offset=".634" style="stop-color:#31c5d3"/><stop offset="1" style="stop-color:#43e8e1"/></linearGradient><path style="opacity:.5;fill:url(#SVGID_00000168099833167205998900000002587719372548424320_)" d="m50.7 74 5.8 3.8 1.1-.5-5.1-8.4c-.6 1.3-1.3 3-1.8 5.1z"/><g><radialGradient id="SVGID_00000121278004185470466320000001182579284900728987_" cx="206.804" cy="25.009" r="4.929" gradientTransform="rotate(6.298 -280.938 -1375.44)" gradientUnits="userSpaceOnUse"><stop offset="0" style="stop-color:#ff63ce"/><stop offset="1" style="stop-color:#9f19ab"/></radialGradient><path style="fill:url(#SVGID_00000121278004185470466320000001182579284900728987_)" d="m50.8 72.8 6.7 4.6v-4.1c0-.7-.3-1.4-.8-1.9l-4.1-3.7c-.6 1.3-1.2 3-1.8 5.1z"/><radialGradient id="SVGID_00000001637402508975602480000001322440184518433417_" cx="206.967" cy="25.024" r="4.882" gradientTransform="rotate(6.298 -280.938 -1375.44)" gradientUnits="userSpaceOnUse"><stop offset="0" style="stop-color:#ff63ce"/><stop offset="1" style="stop-color:#9f19ab"/></radialGradient><path style="fill:url(#SVGID_00000001637402508975602480000001322440184518433417_)" d="m52.5 67.9 4 3.6c.5.4.9 1.1.9 1.8v3.9l-6.5-4.5c.5-2 1.1-3.6 1.6-4.8z"/><radialGradient id="SVGID_00000103253960150116873680000004288391483527812248_" cx="207.125" cy="25.042" r="4.822" gradientTransform="rotate(6.298 -280.938 -1375.44)" gradientUnits="userSpaceOnUse"><stop offset="0" style="stop-color:#ff63ce"/><stop offset="1" style="stop-color:#9f19ab"/></radialGradient><path style="fill:url(#SVGID_00000103253960150116873680000004288391483527812248_)" d="m52.5 68 3.9 3.4c.4.4.9 1.1.9 1.7v3.7L51 72.5c.5-1.8 1-3.3 1.5-4.5z"/><radialGradient id="SVGID_00000183958424647731859340000005972436026234491563_" cx="207.279" cy="25.064" r="4.752" gradientTransform="rotate(6.298 -280.938 -1375.44)" gradientUnits="userSpaceOnUse"><stop offset="0" style="stop-color:#ff63ce"/><stop offset="1" style="stop-color:#9f19ab"/></radialGradient><path style="fill:url(#SVGID_00000183958424647731859340000005972436026234491563_)" d="m52.5 68.2 3.8 3.3c.4.3.9 1.1.9 1.6v3.4L51 72.4c.5-1.7 1-3.1 1.5-4.2z"/><radialGradient id="SVGID_00000128456329141004813550000014103122251197263233_" cx="207.428" cy="25.089" r="4.67" gradientTransform="rotate(6.298 -280.938 -1375.44)" gradientUnits="userSpaceOnUse"><stop offset="0" style="stop-color:#ff63ce"/><stop offset="1" style="stop-color:#9f19ab"/></radialGradient><path style="fill:url(#SVGID_00000128456329141004813550000014103122251197263233_)" d="m52.5 68.4 3.6 3.2c.3.3.9 1.1.9 1.5v3.2l-5.9-4c.4-1.5.9-2.9 1.4-3.9z"/><radialGradient id="SVGID_00000158000276340707389490000002244497925576628159_" cx="207.572" cy="25.118" r="4.576" gradientTransform="rotate(6.298 -280.938 -1375.44)" gradientUnits="userSpaceOnUse"><stop offset="0" style="stop-color:#ff63ce"/><stop offset="1" style="stop-color:#9f19ab"/></radialGradient><path style="fill:url(#SVGID_00000158000276340707389490000002244497925576628159_)" d="m52.4 68.5 3.5 3.1c.3.3.9 1 .9 1.4v3l-5.6-3.9c.4-1.3.8-2.6 1.2-3.6z"/><radialGradient id="SVGID_00000097472379836130717260000002269952515580487583_" cx="207.712" cy="25.15" r="4.471" gradientTransform="rotate(6.298 -280.938 -1375.44)" gradientUnits="userSpaceOnUse"><stop offset="0" style="stop-color:#ff63ce"/><stop offset="1" style="stop-color:#9f19ab"/></radialGradient><path style="fill:url(#SVGID_00000097472379836130717260000002269952515580487583_)" d="m52.4 68.7 3.4 3c.2.2 1 1 .9 1.3v2.8L51.3 72c.3-1.2.7-2.4 1.1-3.3z"/><radialGradient id="SVGID_00000091012417100056089960000002423622789128235395_" cx="207.846" cy="25.185" r="4.356" gradientTransform="rotate(6.298 -280.938 -1375.44)" gradientUnits="userSpaceOnUse"><stop offset="0" style="stop-color:#ff63ce"/><stop offset="1" style="stop-color:#9f19ab"/></radialGradient><path style="fill:url(#SVGID_00000091012417100056089960000002423622789128235395_)" d="m52.4 68.9 3.3 2.8c.2.2 1 1 1 1.3v2.6L51.5 72c.2-1.2.5-2.3.9-3.1z"/><radialGradient id="SVGID_00000054949470227676297670000018034720682297844120_" cx="207.977" cy="25.224" r="4.229" gradientTransform="rotate(6.298 -280.938 -1375.44)" gradientUnits="userSpaceOnUse"><stop offset="0" style="stop-color:#ff63ce"/><stop offset="1" style="stop-color:#9f19ab"/></radialGradient><path style="fill:url(#SVGID_00000054949470227676297670000018034720682297844120_)" d="m52.4 69 3.1 2.7c.1.1 1 1 1 1.2v2.4l-5-3.5c.2-1 .5-2 .9-2.8z"/><radialGradient id="SVGID_00000114073618851169712490000005947130980237332404_" cx="208.102" cy="25.267" r="4.091" gradientTransform="rotate(6.298 -280.938 -1375.44)" gradientUnits="userSpaceOnUse"><stop offset="0" style="stop-color:#ff63ce"/><stop offset="1" style="stop-color:#9f19ab"/></radialGradient><path style="fill:url(#SVGID_00000114073618851169712490000005947130980237332404_)" d="m52.3 69.2 3 2.6c.1.1 1 .9 1 1.1v2.2l-4.8-3.4c.3-.9.6-1.8.8-2.5z"/><radialGradient id="SVGID_00000156547522403996946930000006653253390196235955_" cx="208.223" cy="25.312" r="3.943" gradientTransform="rotate(6.298 -280.938 -1375.44)" gradientUnits="userSpaceOnUse"><stop offset="0" style="stop-color:#ff63ce"/><stop offset="1" style="stop-color:#9f19ab"/></radialGradient><path style="fill:url(#SVGID_00000156547522403996946930000006653253390196235955_)" d="m52.3 69.4 2.9 2.5s1 .9 1 1v2l-4.6-3.2c.2-.9.5-1.7.7-2.3z"/><radialGradient id="SVGID_00000074403440450419205290000003626024691128082081_" cx="208.34" cy="25.362" r="3.784" gradientTransform="rotate(6.298 -280.938 -1375.44)" gradientUnits="userSpaceOnUse"><stop offset="0" style="stop-color:#ff63ce"/><stop offset="1" style="stop-color:#9f19ab"/></radialGradient><path style="fill:url(#SVGID_00000074403440450419205290000003626024691128082081_)" d="M51.7 71.5c.2-.7.4-1.3.6-1.9l3.8 3.3v1.8l-4.4-3.2z"/></g><linearGradient id="SVGID_00000103242497473837920550000017061832247448848821_" gradientUnits="userSpaceOnUse" x1="270.056" y1="-13.43" x2="265.228" y2="43.758" gradientTransform="rotate(6.298 -280.938 -1375.44)"><stop offset="0" style="stop-color:#138bbd"/><stop offset=".634" style="stop-color:#31c5d3"/><stop offset="1" style="stop-color:#43e8e1"/></linearGradient><path style="opacity:.5;fill:url(#SVGID_00000103242497473837920550000017061832247448848821_)" d="M68.7 80.2c6.4 4.9 17 9.4 24.4 10.5s78.5-30.5 78.5-30.5-53.4 20.8-65.2 24.2c-11.9 3.4-24.3-.1-33.7-6.6-7.9-5.5-14.1-12.2-15.9-14.3-1.4.8-2.5 1.7-3.4 2.8 0 0 0 .1-.1.1 2.3 2.3 8.2 8.2 15.4 13.8z"/><linearGradient id="SVGID_00000023977220390356164290000000234823344596983681_" gradientUnits="userSpaceOnUse" x1="222.698" y1="47.183" x2="225.761" y2="35.95" gradientTransform="rotate(6.298 -280.938 -1375.44)"><stop offset="0" style="stop-color:#fff"/><stop offset="1" style="stop-color:#8b949e"/></linearGradient><path style="fill:url(#SVGID_00000023977220390356164290000000234823344596983681_)" d="m63.2 79.5-.8 6.7 8 5.7.7-6.3z"/><linearGradient id="SVGID_00000086672335123401362340000007628861860477488829_" gradientUnits="userSpaceOnUse" x1="222.484" y1="46.811" x2="225.547" y2="35.579" gradientTransform="rotate(6.298 -280.938 -1375.44)"><stop offset="0" style="stop-color:#fff"/><stop offset="1" style="stop-color:#8b949e"/></linearGradient><path style="fill:url(#SVGID_00000086672335123401362340000007628861860477488829_)" d="m63 79.1-.7 6.7 8 5.7.7-6.3z"/><linearGradient id="SVGID_00000169520847126604184800000001998094415572643499_" gradientUnits="userSpaceOnUse" x1="215.625" y1="34.584" x2="233.186" y2="34.584" gradientTransform="rotate(6.298 -280.938 -1375.44)"><stop offset="0" style="stop-color:#138bbd"/><stop offset=".634" style="stop-color:#31c5d3"/><stop offset="1" style="stop-color:#43e8e1"/></linearGradient><path style="fill:url(#SVGID_00000169520847126604184800000001998094415572643499_)" d="m58.5 75.3 1.5 1.5c4.3 4.4 9.3 8 14.8 10.8L58.5 75.3z"/><g><linearGradient id="SVGID_00000011747777604897896270000003165425547254933951_" gradientUnits="userSpaceOnUse" x1="211.771" y1="39.508" x2="239.396" y2="39.508" gradientTransform="rotate(6.298 -280.938 -1375.44)"><stop offset=".035" style="stop-color:#138bbd"/><stop offset=".226" style="stop-color:#169ac7"/><stop offset=".595" style="stop-color:#1fc3df"/><stop offset="1" style="stop-color:#2af6ff"/></linearGradient><path style="fill:url(#SVGID_00000011747777604897896270000003165425547254933951_)" d="M74.2 96.7c-1-.1-2-.5-2.9-1.1l-13.8-9.5c-1.6-1.1-2.6-3-2.7-4.9l-.2-5.3h.6l.2 5.3c.1 1.8 1 3.5 2.5 4.5l13.8 9.5c2.3 1.6 5.4 1.3 7.3-.7l1-1.1.4.4-1 1.1c-1.4 1.4-3.3 2-5.2 1.8z"/></g><linearGradient id="SVGID_00000133520347962742090710000004467082958016662181_" gradientUnits="userSpaceOnUse" x1="209.759" y1="51.443" x2="242.885" y2="51.443" gradientTransform="rotate(6.298 -280.938 -1375.44)"><stop offset="0" style="stop-color:#100221"/><stop offset="1" style="stop-color:#10054d"/></linearGradient><path style="fill:url(#SVGID_00000133520347962742090710000004467082958016662181_)" d="M51 89.7c4.9 5.1 22.1 16.2 31.1 20.2l-1.2-3.2c-.5-1.5-1.6-2.7-2.9-3.5l-2.5-1.4c-5.9-3.4-11.6-7.2-17-11.4l-3.4-2.6c-.9-.7-2.2-.5-2.9.4L51 89.7z"/><g class="st2"><linearGradient id="SVGID_00000151516459846072042160000008827665225669334937_" gradientUnits="userSpaceOnUse" x1="272.884" y1="19.942" x2="336.424" y2="19.942" gradientTransform="rotate(6.298 -280.938 -1375.44)"><stop offset=".035" style="stop-color:#138bbd"/><stop offset=".226" style="stop-color:#169ac7"/><stop offset=".595" style="stop-color:#1fc3df"/><stop offset="1" style="stop-color:#2af6ff"/></linearGradient><path style="fill:url(#SVGID_00000151516459846072042160000008827665225669334937_)" d="m129.8 97.2-.1-.4c0-.1-1.5-8.8-4.5-16.4-2-5.3-8.4-10.8-8.5-10.9l.4-.4c.3.2 6.5 5.7 8.6 11.1 2.6 6.8 4.1 14.5 4.4 16.2l46.3-19.6c.4-.8 3.1-6 3.8-9.9.8-4.1-.1-10.9-.1-10.9l.6-.1c0 .3.9 6.9.1 11.1-.8 4.2-3.8 9.9-3.9 10.1v.1h-.1l-47 20z"/></g><linearGradient id="SVGID_00000052085413551955797890000002121035922638958769_" gradientUnits="userSpaceOnUse" x1="271.751" y1="3.878" x2="335.244" y2="3.878" gradientTransform="rotate(6.298 -280.938 -1375.44)"><stop offset="0" style="stop-color:#25054d"/><stop offset="1" style="stop-color:#1b2b69"/></linearGradient><path style="fill:url(#SVGID_00000052085413551955797890000002121035922638958769_)" d="M121.3 71.2c-2.5-.3-4.1-1-4.9-2.3-.6-1-.7-2.1-.2-3.5 1.8-5.2 25.5-21.2 44.1-19.1.3 0 .7.1 1 .1 13.8 2.1 19.6 9.4 19.6 9.4s-28 12.5-44.4 14.5c-7.5 1-12.1 1.3-15.2.9z"/><linearGradient id="SVGID_00000093898758098201857260000000521042835464780447_" gradientUnits="userSpaceOnUse" x1="273.237" y1="3.878" x2="334.548" y2="3.878" gradientTransform="rotate(6.298 -280.938 -1375.44)"><stop offset="0" style="stop-color:#010002"/><stop offset=".025" style="stop-color:#030106"/><stop offset=".192" style="stop-color:#0f0419"/><stop offset=".362" style="stop-color:#170524"/><stop offset=".54" style="stop-color:#190628"/><stop offset=".703" style="stop-color:#0b0312"/><stop offset=".86" style="stop-color:#030105"/><stop offset="1" style="stop-color:#000"/></linearGradient><path style="fill:url(#SVGID_00000093898758098201857260000000521042835464780447_)" d="M180.4 55.5s-5.7-5.5-19.2-7.5c-18-2.7-42 13.6-43.6 18-1.5 4.4 5.1 4.6 18.8 2.9 16.4-1.9 44-13.4 44-13.4z"/><linearGradient id="SVGID_00000066504934549736838930000013798513672275177891_" gradientUnits="userSpaceOnUse" x1="299.875" y1="7.925" x2="311.113" y2="30.748" gradientTransform="rotate(6.298 -280.938 -1375.44)"><stop offset="0" style="stop-color:#138bbd"/><stop offset=".634" style="stop-color:#31c5d3"/><stop offset="1" style="stop-color:#43e8e1"/></linearGradient><path style="opacity:.5;fill:url(#SVGID_00000066504934549736838930000013798513672275177891_)" d="M130.3 96.7 176 77.2s-32.8 11-37.5 13.1c-4.6 2.1-8.2 6.4-8.2 6.4z"/><g><linearGradient id="SVGID_00000177455952314182326840000001557582139862755970_" gradientUnits="userSpaceOnUse" x1="318.632" y1="18.331" x2="313.433" y2="-12.117" gradientTransform="rotate(6.298 -280.938 -1375.44)"><stop offset="0" style="stop-color:#25054d"/><stop offset=".692" style="stop-color:#1b2b69"/><stop offset="1" style="stop-color:#3746a3"/></linearGradient><path style="fill:url(#SVGID_00000177455952314182326840000001557582139862755970_)" d="M149.7 62.7c.3.7.6 1.4.8 2 11.4-3.2 23.3-7.8 27.7-9.6-2.4-1.7-7.9-4.7-17.1-6.1-.3 0-.6-.1-.9-.1-5.4-.6-11.3.5-16.8 2.3 1.3 2 3.9 5.8 6.3 11.5z"/><linearGradient id="SVGID_00000016797292381199150090000002282477129071667609_" gradientUnits="userSpaceOnUse" x1="292.198" y1="22.844" x2="286.999" y2="-7.604" gradientTransform="rotate(6.298 -280.938 -1375.44)"><stop offset="0" style="stop-color:#25054d"/><stop offset=".692" style="stop-color:#1b2b69"/><stop offset="1" style="stop-color:#3746a3"/></linearGradient><path style="fill:url(#SVGID_00000016797292381199150090000002282477129071667609_)" d="M145 60.7c-1.5-3.9-2.9-7-3.8-8.6-7.4 2.8-14.1 6.8-18.2 10 .2 1.9.6 4.3 1.6 6.7 2.8 0 6.6-.3 11.8-.9 2.9-.3 6.3-1 9.7-1.9-.2-1.8-.5-3.6-1.1-5.3z"/></g><linearGradient id="SVGID_00000041275286311751344750000005896185729143481791_" gradientUnits="userSpaceOnUse" x1="335.244" y1="-11.353" x2="360.437" y2="-11.353" gradientTransform="rotate(6.298 -280.938 -1375.44)"><stop offset="0" style="stop-color:#138bbd"/><stop offset=".634" style="stop-color:#31c5d3"/><stop offset="1" style="stop-color:#43e8e1"/></linearGradient><path style="opacity:.5;fill:url(#SVGID_00000041275286311751344750000005896185729143481791_)" d="M181 55.9s19.3-5.1 22.6-6.4c3.3-1.3 3.7-1.3 4.2-6.6 0 0 0 3-6 5.6-6 2.6-20.8 7.4-20.8 7.4z"/><linearGradient id="SVGID_00000124143249071250687410000005893526081663443357_" gradientUnits="userSpaceOnUse" x1="368.413" y1="-12.917" x2="360.032" y2="-15.503" gradientTransform="rotate(6.298 -280.938 -1375.44)"><stop offset="0" style="stop-color:#fff"/><stop offset="1" style="stop-color:#8b949e"/></linearGradient><path style="fill:url(#SVGID_00000124143249071250687410000005893526081663443357_)" d="M203.3 49.3s8.4 4.4 8.1.7c-.3-3.7-3.6-7.3-3.6-7.3s.1 5.9-4.5 6.6z"/><linearGradient id="SVGID_00000079447142905907906910000008134094628661601689_" gradientUnits="userSpaceOnUse" x1="357.258" y1="-15.944" x2="378.172" y2="-11.156" gradientTransform="rotate(6.298 -280.938 -1375.44)"><stop offset="0" style="stop-color:#fff"/><stop offset="1" style="stop-color:#8b949e"/></linearGradient><path style="fill:url(#SVGID_00000079447142905907906910000008134094628661601689_)" d="M205 49.4s5.9 2.7 5.6-.4c-.2-3.1-2.4-4.9-2.4-4.9s1.2 5.3-3.2 5.3z"/><linearGradient id="SVGID_00000181788027753066185930000011684635122443232944_" gradientUnits="userSpaceOnUse" x1="355.46" y1="-16.706" x2="376.969" y2="-11.782" gradientTransform="rotate(6.298 -280.938 -1375.44)"><stop offset="0" style="stop-color:#fff"/><stop offset="1" style="stop-color:#8b949e"/></linearGradient><path style="fill:url(#SVGID_00000181788027753066185930000011684635122443232944_)" d="M203.1 49.1s2.8 1.1 5.1 1.8c.5-1.1.9-2.3 1-3 .1-1.9-1.4-5.3-1.4-5.3s.5 6.6-4.7 6.5z"/><g><linearGradient id="SVGID_00000083084915558752725930000002764545721796161923_" gradientUnits="userSpaceOnUse" x1="234.376" y1="27.029" x2="251.085" y2="-23.099" gradientTransform="rotate(6.298 -280.938 -1375.44)"><stop offset="0" style="stop-color:#000"/><stop offset=".697" style="stop-color:#1b2b69"/><stop offset="1" style="stop-color:#3746a3"/></linearGradient><path style="fill:url(#SVGID_00000083084915558752725930000002764545721796161923_)" d="M83.7 48.2c-1.5.1-4 1.3-6.6 3.1-1.8 5.9-3.1 11.5-3.6 16.7 3.9 3.2 9.4 6.5 14.7 8.2-.6-7.1-1.4-17.9-1.2-27.6-.7-.2-1.3-.3-1.9-.3-.5-.1-1-.1-1.4-.1z"/><linearGradient id="SVGID_00000020374980422503223400000014087691258592049588_" gradientUnits="userSpaceOnUse" x1="243.338" y1="30.017" x2="260.047" y2="-20.111" gradientTransform="rotate(6.298 -280.938 -1375.44)"><stop offset="0" style="stop-color:#000"/><stop offset=".697" style="stop-color:#1b2b69"/><stop offset="1" style="stop-color:#3746a3"/></linearGradient><path style="fill:url(#SVGID_00000020374980422503223400000014087691258592049588_)" d="M100.1 76.4c-2.4-6.5-5.9-16.6-8.2-26-1.6-.7-3.2-1.3-4.7-1.7.8 10.5 3 20.7 5.2 28.5.2 0 .3 0 .5.1 1 .1 1.9.1 2.8.1 1.5-.2 3-.6 4.4-1z"/></g><g><linearGradient id="SVGID_00000021817478275571295490000006251112912267693751_" gradientUnits="userSpaceOnUse" x1="350.983" y1="9.283" x2="339.596" y2="-2.599" gradientTransform="rotate(6.298 -280.938 -1375.44)"><stop offset="0" style="stop-color:#000"/><stop offset=".697" style="stop-color:#1b2b69"/><stop offset="1" style="stop-color:#3746a3"/></linearGradient><path style="fill:url(#SVGID_00000021817478275571295490000006251112912267693751_)" d="M200.4 56c-1.8-.2-3.7.1-5.8 1-6.3 2.8-11.9 10.3-12.6 17.1-.2 1.5-.1 2.8.2 3.9l1-.4c.1-2.1.2-2.7.2-3.4.7-6.4 5.9-13.4 11.8-16 1.8-.8 3.5-1.1 5-.9 4 .4 6.2 3.8 5.7 8.6.5-.5 1-1 1.5-1.6-.1-5.1-3.4-7.9-7-8.3z"/><linearGradient id="SVGID_00000061462409516850609320000008431825760506706326_" gradientUnits="userSpaceOnUse" x1="273.759" y1="52.004" x2="266.457" y2="38.265" gradientTransform="rotate(6.298 -280.938 -1375.44)"><stop offset="0" style="stop-color:#000"/><stop offset=".697" style="stop-color:#1b2b69"/><stop offset="1" style="stop-color:#3746a3"/></linearGradient><path style="fill:url(#SVGID_00000061462409516850609320000008431825760506706326_)" d="M119 90.6c-1.8-.2-3.7.1-5.8 1-6.3 2.8-11.9 10.3-12.6 17.1v.3c.7-.3 1.2-.5 1.5-.6.9-6.2 6-12.9 11.7-15.5 1.8-.8 3.5-1.1 5-.9 3.6.4 5.8 3.3 5.6 9l1.5-.6c.6-6.2-3-9.4-6.9-9.8z"/></g><linearGradient id="SVGID_00000085965365678712021780000007945714367626943667_" gradientUnits="userSpaceOnUse" x1="328.752" y1="-5.14" x2="335.436" y2="4.236" gradientTransform="rotate(6.298 -280.938 -1375.44)"><stop offset="0" style="stop-color:#696969"/><stop offset=".242" style="stop-color:#9c9c9c"/><stop offset=".48" style="stop-color:#c7c7c7"/><stop offset=".692" style="stop-color:#e6e6e6"/><stop offset=".873" style="stop-color:#f8f8f8"/><stop offset="1" style="stop-color:#fff"/></linearGradient><path style="fill:url(#SVGID_00000085965365678712021780000007945714367626943667_)" d="M181 55.9s-2.2 3.2-2.3 5.9c-.1 2.7-1.6 3-2.7 2.5s.6-10.1 5-8.4z"/><radialGradient id="SVGID_00000062150437721478299540000002676038503174689201_" cx="328.901" cy="-3.142" r="9.106" gradientTransform="rotate(6.298 -280.938 -1375.44)" gradientUnits="userSpaceOnUse"><stop offset="0" style="stop-color:#2af6ff"/><stop offset=".651" style="stop-color:#1376bd"/><stop offset=".758" style="stop-color:#1c67af"/><stop offset=".965" style="stop-color:#323e8b"/><stop offset=".995" style="stop-color:#363885"/></radialGradient><path style="fill:url(#SVGID_00000062150437721478299540000002676038503174689201_)" d="M181.2 55.9s-3.4-2.6-5.3-2.8c-1.9-.2-2.4 7.6-.4 8 2 .4 1.8-3.3 2.9-4 1.2-.8 2.8-1.2 2.8-1.2z"/><linearGradient id="SVGID_00000076603463598213668120000014479595856713493937_" gradientUnits="userSpaceOnUse" x1="331.323" y1="-1.509" x2="328.491" y2="-4.061" gradientTransform="rotate(6.298 -280.938 -1375.44)"><stop offset="0" style="stop-color:#000"/><stop offset=".697" style="stop-color:#1b2b69"/><stop offset="1" style="stop-color:#3746a3"/></linearGradient><path style="fill:url(#SVGID_00000076603463598213668120000014479595856713493937_)" d="M176.9 56.2c-.2 1.5-.8 2.6-1.5 2.6-.6-.1-1-1.3-.9-2.8.2-1.5.8-2.6 1.5-2.6s1.1 1.3.9 2.8z"/><linearGradient id="SVGID_00000067953478982912972930000015565029146213419142_" gradientUnits="userSpaceOnUse" x1="294.661" y1="-38.442" x2="305.058" y2="25.425" gradientTransform="rotate(6.298 -280.938 -1375.44)"><stop offset="0" style="stop-color:#000"/><stop offset=".697" style="stop-color:#1b2b69"/><stop offset="1" style="stop-color:#3746a3"/></linearGradient><path style="fill:url(#SVGID_00000067953478982912972930000015565029146213419142_)" d="M139.6 26.2c-.9-.1-1.8-.2-2.6-.3 2.8 1.2 6.3 3 9.4 5.3 1.3.9 2.5 1.9 3.6 2.7.8-1.8 1.8-3.8 3.1-5.9-4.5-.9-9.3-1.3-13.5-1.8z"/></g></svg>