<svg width="222" height="44" viewBox="0 0 222 44" fill="none" xmlns="http://www.w3.org/2000/svg">
<g clip-path="url(#clip0_11919_6836)">
<g clip-path="url(#clip1_11919_6836)">
<path fill-rule="evenodd" clip-rule="evenodd" d="M42.537 0C43.2531 0 44.1333 0.519354 44.4941 1.13165L45.1556 2.27423H9.02494L7.69648 0H42.537ZM46.1998 4.09468H10.0746L11.3812 6.36343L47.5228 6.35797L46.1998 4.09468ZM48.5725 8.2058H12.4309L13.7484 10.4691H49.8845L48.5725 8.2058ZM2.44836 7.28736L20.5055 38.5798L21.8285 36.3111L3.75495 5.01313L2.44836 7.28736ZM22.8836 34.4797L4.79911 3.18175L6.11663 0.918457L24.1847 32.2055L22.8836 34.4797ZM0.731742 10.2614C0.365461 10.8736 0.365461 11.9014 0.731742 12.5137L18.1438 42.6855L19.4504 40.4058L1.3823 9.11877L0.737209 10.2614H0.731742ZM45.1502 12.3005L27.0712 43.5875H24.4635L42.5206 12.3005H45.1502ZM22.3478 43.5875L40.4159 12.3005H37.7972L19.7182 43.5875H22.3478ZM32.4616 42.4558C32.1008 43.09 31.2261 43.5875 30.5154 43.5875H30.5099H29.1869L47.2604 12.3005H49.8845L32.4616 42.4558Z" fill="#B4985A"/>
<path fill-rule="evenodd" clip-rule="evenodd" d="M203.641 21.8622V21.813C203.641 16.4062 207.861 11.978 213.618 11.978C217.04 11.978 219.112 12.8965 221.096 14.5857L218.461 17.762C216.985 16.5429 215.69 15.8267 213.481 15.8267C210.436 15.8267 208.014 18.5328 208.014 21.7638V21.8239C208.014 25.2954 210.403 27.8429 213.776 27.8429C215.296 27.8429 216.657 27.4712 217.712 26.7004V23.9888H213.514V20.3752H221.763V28.6302C219.806 30.2921 217.133 31.6479 213.645 31.6479C207.708 31.6479 203.635 27.4985 203.635 21.8676L203.641 21.8622ZM67.9743 16.1547H62.1794V12.3005H77.935V16.1547H72.151V31.3144H67.9743V16.1547ZM99.2723 12.3005H113.612V16.0125H103.422V19.8776H112.393V23.606H103.422V27.5859H113.754V31.3144H99.2723V12.3005ZM187.24 12.3005H183.38V31.3144H187.508V19.2216L196.72 31.3144H200.279V12.3005H196.151V24.0106L187.24 12.3005ZM171.517 15.7884L168.986 23.3546H174.048L171.517 15.7884ZM169.002 12.3005H174.016L180.98 31.3144H176.722L175.278 27.0502H167.751L166.313 31.3144H162.049L169.002 12.3005ZM84.8726 23.3546L87.4037 15.7884L89.9294 23.3546H84.8726ZM89.8912 12.3005H84.8999L77.9296 31.3144H82.1938L83.6261 27.0502H91.1704L92.5973 31.3144H96.8505L89.8912 12.3005ZM129.471 12.3005L121.758 20.6157V12.3005H117.564V31.3144H121.758V25.5031L123.95 23.2234L129.849 31.3144H134.867L126.771 20.3642L134.517 12.3005H129.471ZM159.665 12.3005L155.302 25.35L151.514 12.3005H147.638L143.855 25.35L139.503 12.3005H135.124L142.089 31.3144H145.812L149.573 19.0139L153.356 31.3144H157.079L164.049 12.3005H159.665Z" fill="#B4985A"/>
</g>
</g>
<defs>
<clipPath id="clip0_11919_6836">
<rect width="221.833" height="44" fill="white"/>
</clipPath>
<clipPath id="clip1_11919_6836">
<rect width="221.833" height="44" fill="white"/>
</clipPath>
</defs>
</svg>
